<svg width="32" height="32" viewBox="0 0 32 32" fill="none" xmlns="http://www.w3.org/2000/svg">
<mask id="mask0_2612_17072" style="mask-type:alpha" maskUnits="userSpaceOnUse" x="0" y="0" width="32" height="32">
<rect width="32" height="32" fill="#D9D9D9"/>
</mask>
<g mask="url(#mask0_2612_17072)">
<path d="M11.2007 22.2047L16.0007 17.4047L20.8007 22.2047L22.2057 20.7997L17.4057 15.9997L22.2057 11.1997L20.8007 9.79467L16.0007 14.5947L11.2007 9.79467L9.79565 11.1997L14.5957 15.9997L9.79565 20.7997L11.2007 22.2047ZM16.003 28.6663C14.251 28.6663 12.6042 28.3339 11.0627 27.669C9.5211 27.0041 8.18021 26.1018 7.03998 24.962C5.89976 23.8222 4.99698 22.4819 4.33165 20.941C3.66654 19.4001 3.33398 17.7538 3.33398 16.002C3.33398 14.25 3.66643 12.6032 4.33132 11.0617C4.99621 9.52012 5.89854 8.17923 7.03832 7.03901C8.1781 5.89879 9.51843 4.99601 11.0593 4.33067C12.6002 3.66556 14.2465 3.33301 15.9983 3.33301C17.7503 3.33301 19.3971 3.66545 20.9387 4.33034C22.4802 4.99523 23.8211 5.89756 24.9613 7.03734C26.1015 8.17712 27.0043 9.51745 27.6697 11.0583C28.3348 12.5992 28.6673 14.2456 28.6673 15.9973C28.6673 17.7493 28.3349 19.3961 27.67 20.9377C27.0051 22.4792 26.1028 23.8201 24.963 24.9603C23.8232 26.1006 22.4829 27.0033 20.942 27.6687C19.4011 28.3338 17.7548 28.6663 16.003 28.6663ZM16.0007 26.6663C18.9784 26.6663 21.5007 25.633 23.5673 23.5663C25.634 21.4997 26.6673 18.9775 26.6673 15.9997C26.6673 13.0219 25.634 10.4997 23.5673 8.43301C21.5007 6.36634 18.9784 5.33301 16.0007 5.33301C13.0229 5.33301 10.5007 6.36634 8.43398 8.43301C6.36732 10.4997 5.33398 13.0219 5.33398 15.9997C5.33398 18.9775 6.36732 21.4997 8.43398 23.5663C10.5007 25.633 13.0229 26.6663 16.0007 26.6663Z" fill="#1C1B1F"/>
</g>
</svg>
