<svg width="16" height="17" viewBox="0 0 16 17" fill="none" xmlns="http://www.w3.org/2000/svg">
<path d="M4.96146 16.9648C4.5566 16.9648 4.21236 16.8229 3.92875 16.5392C3.64514 16.2556 3.50333 15.9113 3.50333 15.5065C3.50333 15.1015 3.64514 14.7572 3.92875 14.4735C4.21236 14.1899 4.5566 14.0481 4.96146 14.0481C5.36646 14.0481 5.71076 14.1899 5.99438 14.4735C6.27799 14.7572 6.41979 15.1015 6.41979 15.5065C6.41979 15.9113 6.27799 16.2556 5.99438 16.5392C5.71076 16.8229 5.36646 16.9648 4.96146 16.9648ZM13.0385 16.9648C12.6335 16.9648 12.2892 16.8229 12.0056 16.5392C11.722 16.2556 11.5802 15.9113 11.5802 15.5065C11.5802 15.1015 11.722 14.7572 12.0056 14.4735C12.2892 14.1899 12.6335 14.0481 13.0385 14.0481C13.4434 14.0481 13.7876 14.1899 14.0713 14.4735C14.3549 14.7572 14.4967 15.1015 14.4967 15.5065C14.4967 15.9113 14.3549 16.2556 14.0713 16.5392C13.7876 16.8229 13.4434 16.9648 13.0385 16.9648ZM4.01271 3.79167L6.125 8.21479H11.806C11.8541 8.21479 11.8969 8.20278 11.9344 8.17875C11.9717 8.15472 12.0038 8.12132 12.0304 8.07854L14.266 4.01604C14.2981 3.95729 14.3008 3.90521 14.274 3.85979C14.2473 3.81438 14.2019 3.79167 14.1377 3.79167H4.01271ZM3.41354 2.54167H14.984C15.3248 2.54167 15.5825 2.68674 15.7571 2.97688C15.9318 3.26688 15.9401 3.56306 15.7821 3.86542L13.1121 8.70187C12.9754 8.94229 12.7947 9.12951 12.5698 9.26354C12.3448 9.39771 12.0983 9.46479 11.8302 9.46479H5.75L4.78521 11.2275C4.74243 11.2917 4.74111 11.3611 4.78125 11.4358C4.82125 11.5107 4.88132 11.5481 4.96146 11.5481H14.4967V12.7981H4.96146C4.4059 12.7981 3.98847 12.5585 3.70917 12.0794C3.42972 11.6002 3.41986 11.1218 3.67958 10.6442L4.86854 8.50646L1.83667 2.125H0.25V0.875H2.62188L3.41354 2.54167Z" fill="#9155F1"/>
</svg>
