<svg width="544" height="500" viewBox="0 0 544 500" fill="none" xmlns="http://www.w3.org/2000/svg">
<g clip-path="url(#clip0_2616_31679)">
<path d="M419.866 181.626C416.162 182.207 412.457 182.696 408.779 183.417C404.75 184.099 400.985 185.702 397.847 188.071C396.812 188.801 395.977 189.734 395.407 190.799C394.837 191.864 394.546 193.032 394.557 194.214C394.581 195.768 394.503 197.322 394.324 198.867C394.13 200.469 394.428 202.088 395.186 203.549C395.944 205.009 397.133 206.255 398.624 207.151C403.258 210.373 408.768 212.422 414.581 213.084C420.384 213.829 426.29 213.899 432.145 214.318C432.932 214.42 433.71 214.568 434.476 214.76V215.574C432.326 215.946 430.15 216.272 428 216.668C418.679 218.248 409.897 221.762 402.354 226.929C399.068 229.031 396.502 231.916 394.946 235.259C394.557 236.26 393.961 237.586 394.376 238.424C395.202 240.923 394.934 243.612 393.624 245.939C391.474 252.059 391.656 257.783 396.785 262.972C395.282 263.717 393.987 264.298 392.77 264.95C390.776 265.787 389.121 267.158 388.031 268.875C386.941 270.591 386.47 272.569 386.682 274.536C386.708 274.737 386.708 274.94 386.682 275.141C385.283 283.541 390.024 286.357 397.044 289.312C404.805 292.358 413.247 293.744 421.705 293.36C428.851 293.509 435.939 292.188 442.429 289.498C447.195 287.357 450.382 284.309 449.993 279.097C449.812 276.468 450.978 273.745 449.294 271.209C449.138 271 449.294 270.441 449.579 270.162C451.107 268.161 452.687 266.183 454.371 264.042C467.583 296.618 480.846 329.302 494.161 362.095C493.746 362.305 514.885 395.811 496.544 402.722L416.239 428.992C414.12 429.716 411.814 429.882 409.593 429.469C407.372 429.057 405.328 428.084 403.701 426.665C400.661 424.122 398.403 420.916 397.147 417.358C385.732 389.172 374.317 360.986 362.901 332.8L326.635 243.124C323.371 235.05 320.055 226.836 316.843 218.855C315.555 215.695 315.41 212.251 316.428 209.013C316.888 207.257 317.824 205.631 319.153 204.279C320.482 202.927 322.162 201.892 324.044 201.264L329.225 199.566C330.229 199.163 331.353 199.07 332.421 199.301C333.49 199.533 334.443 200.076 335.132 200.845C336.349 202.138 337.751 203.28 339.302 204.242C340.297 204.798 341.424 205.131 342.591 205.216C343.758 205.301 344.931 205.135 346.012 204.731L390.438 190.212C391.809 189.835 393.02 189.093 393.908 188.082C394.797 187.072 395.322 185.842 395.412 184.557C395.412 183.557 395.904 183.185 397.018 183.231C404.148 183.234 411.247 182.389 418.13 180.718C418.837 180.698 419.544 180.769 420.229 180.928L419.866 181.626ZM415.825 339.409C420.669 338.152 423.985 334.359 426.834 330.985C428.867 328.661 430.125 325.867 430.465 322.927C430.804 319.987 430.21 317.021 428.751 314.372C425.781 308.216 420.942 302.934 414.789 299.131C406.577 293.803 397.614 290.336 387.174 291.336C385.236 291.403 383.334 291.835 381.594 292.605C379.853 293.374 378.312 294.464 377.071 295.804C374.481 299.038 369.637 306.274 369.637 308.718C370.31 318.351 376.061 325.192 383.858 330.846C391.32 336.667 400.815 339.96 410.696 340.153C412.444 340.219 414.189 339.965 415.825 339.409Z" fill="white"/>
<path opacity="0.29" d="M470.562 352.742L402.122 376.382C400.323 376.982 398.41 377.255 396.493 377.186C394.576 377.117 392.693 376.707 390.954 375.98C389.214 375.253 387.652 374.223 386.359 372.95C385.066 371.677 384.066 370.186 383.419 368.564L343.37 273.908C342.291 271.424 342.35 268.657 343.534 266.211C344.719 263.766 346.932 261.84 349.691 260.855L424.581 235.585C426.254 235.041 428.031 234.801 429.808 234.88C431.585 234.958 433.326 235.353 434.932 236.041C436.537 236.73 437.974 237.698 439.159 238.89C440.344 240.082 441.253 241.474 441.834 242.985L479.241 334.709C480.682 338.138 480.583 341.937 478.964 345.302C477.344 348.668 474.332 351.335 470.562 352.742Z" fill="#C6E6A3"/>
<path d="M509.368 388.74C510.566 392.086 510.379 395.707 508.842 398.939C507.304 402.171 504.52 404.796 501.001 406.331C475.847 417.314 418.494 434.509 415.126 435.742C407.769 438.325 395.646 435.742 392.2 432.345C387.02 425.597 316.377 251.2 305.316 223.883C303.259 219.368 302.939 214.364 304.409 209.666C305.157 207.305 306.551 205.15 308.466 203.398C310.38 201.646 312.753 200.353 315.367 199.638C332.335 194.193 349.25 188.585 366.166 183.024C372.876 180.837 379.533 178.626 386.242 176.486C387.745 175.997 388.289 175.578 387.797 173.973C387.702 173.358 387.744 172.733 387.922 172.134C388.1 171.534 388.41 170.973 388.833 170.482C390.128 169.19 391.559 168.013 393.107 166.969H390.724C389.182 167.058 387.648 166.714 386.334 165.985C385.021 165.255 383.992 164.176 383.393 162.897C382.816 161.766 382.113 160.69 381.295 159.686C380.339 158.65 379.796 157.356 379.754 156.011C379.712 154.665 380.172 153.346 381.061 152.263C383.287 149.2 385.895 146.374 388.833 143.84C398.098 136.098 409.429 130.632 421.732 127.971C424.574 127.489 427.472 127.333 430.358 127.506C431.543 127.575 432.678 127.956 433.623 128.601C434.567 129.247 435.279 130.129 435.669 131.136C436.423 132.569 437.288 133.953 438.259 135.277C438.867 135.993 439.243 136.846 439.343 137.741C439.444 138.637 439.266 139.54 438.829 140.35C437.742 142.623 436.274 144.734 434.477 146.609C430.695 149.983 426.447 152.961 422.354 156.103C421.802 156.449 421.335 156.892 420.981 157.406C423.39 156.987 425.799 156.382 428.26 156.149C432.871 155.707 437.508 155.311 442.145 155.265C446.341 155.265 447.585 156.289 448.777 159.919C449.061 160.803 449.32 161.687 449.605 162.571C450.875 166.41 450.616 167.225 447.015 169.761C442.032 172.945 436.549 175.447 430.747 177.184C428.467 177.952 426.162 178.65 423.856 179.371C423.909 180.085 424.274 180.752 424.87 181.226C425.466 181.701 426.247 181.945 427.042 181.907C434.272 182.037 441.395 183.494 447.973 186.189C450.136 187.114 452.156 188.287 453.983 189.679C459.164 193.867 458.983 204.268 453.621 208.294C449.98 210.826 445.7 212.513 441.161 213.203C440.254 213.389 439.373 213.622 438.57 213.831C438.57 215.39 439.503 215.437 440.668 215.646C444.007 216.21 447.297 216.987 450.512 217.973C451.635 218.379 452.625 219.034 453.39 219.876C454.156 220.718 454.672 221.72 454.89 222.79C455.232 224.084 455.709 225.346 456.315 226.559C458.387 230.701 456.962 234.238 453.724 237.495C453.02 238.248 452.268 238.963 451.471 239.636C449.139 241.66 449.087 242.498 450.927 245.034C452.274 246.873 453.517 248.804 454.683 250.735C455.133 251.449 455.398 252.244 455.46 253.062C455.46 258.53 458.361 263.23 460.252 268.186C462.143 273.143 464.19 277.866 466.081 282.729C466.547 283.916 498.85 359.399 509.368 388.74ZM419.867 181.651L420.022 180.93C419.337 180.771 418.631 180.701 417.924 180.721C411.041 182.391 403.942 183.236 396.812 183.233C395.698 183.233 395.309 183.559 395.205 184.56C395.115 185.845 394.591 187.075 393.702 188.085C392.813 189.095 391.603 189.838 390.232 190.214L345.805 204.733C344.724 205.137 343.551 205.304 342.385 205.219C341.218 205.134 340.09 204.8 339.096 204.245C337.545 203.283 336.142 202.14 334.925 200.848C334.236 200.078 333.283 199.535 332.215 199.304C331.146 199.072 330.022 199.165 329.019 199.568L323.838 201.266C321.956 201.894 320.275 202.93 318.946 204.281C317.618 205.633 316.682 207.259 316.222 209.015C315.203 212.253 315.348 215.698 316.636 218.857C319.849 226.955 323.164 235.145 326.428 243.126L362.695 332.803C374.128 360.973 385.543 389.159 396.941 417.36C398.197 420.918 400.454 424.124 403.495 426.667C405.122 428.087 407.166 429.06 409.387 429.472C411.607 429.884 413.913 429.718 416.033 428.994L496.338 402.724C497.936 402.159 499.375 401.281 500.548 400.154C501.722 399.027 502.602 397.679 503.125 396.209C507.114 390.83 493.54 362.307 493.954 362.098C480.674 329.32 467.411 296.636 454.165 264.045C452.481 266.185 450.901 268.163 449.372 270.164C449.139 270.443 448.932 271.002 449.087 271.211C450.771 273.748 449.605 276.47 449.787 279.099C450.175 284.311 446.989 287.36 442.223 289.5C435.733 292.191 428.644 293.512 421.499 293.363C413.04 293.746 404.598 292.36 396.837 289.314C389.895 286.359 385.154 283.544 386.476 275.144C386.501 274.943 386.501 274.74 386.476 274.539C386.263 272.572 386.734 270.594 387.824 268.877C388.915 267.16 390.57 265.789 392.563 264.952C393.781 264.301 395.154 263.719 396.578 262.974C391.397 257.785 391.268 252.061 393.418 245.942C394.727 243.615 394.996 240.926 394.169 238.426C393.755 237.588 394.351 236.262 394.739 235.262C396.296 231.919 398.862 229.033 402.148 226.932C409.691 221.764 418.472 218.251 427.794 216.67C429.944 216.275 432.12 215.949 434.27 215.577V214.762C433.504 214.57 432.725 214.423 431.938 214.32C426.084 213.901 420.178 213.831 414.375 213.087C408.562 212.424 403.052 210.375 398.418 207.153C396.927 206.257 395.738 205.011 394.98 203.551C394.221 202.091 393.923 200.472 394.117 198.87C394.296 197.324 394.374 195.77 394.351 194.216C394.339 193.034 394.63 191.866 395.2 190.801C395.771 189.736 396.606 188.803 397.641 188.073C400.779 185.704 404.544 184.102 408.572 183.42C412.458 182.698 416.162 182.21 419.867 181.628V181.651ZM507.114 395.86C505.715 395.278 504.524 394.697 503.98 396.372C503.316 398.175 502.171 399.805 500.645 401.119C499.119 402.433 497.257 403.392 495.224 403.911C468.905 412.474 442.62 421.068 416.37 429.692C414.77 430.244 413.058 430.484 411.347 430.396C409.637 430.308 407.967 429.893 406.448 429.18C401.942 427.044 398.555 423.399 397.019 419.035C382.858 384.226 368.731 349.447 354.639 314.7L329.9 253.876C325.288 242.475 320.548 231.097 316.144 219.649C312.44 210.015 316.3 203.361 326.506 199.684C331.143 198.009 334.277 198.614 337.308 202.011C338.316 203.244 339.78 204.113 341.437 204.463C343.094 204.813 344.836 204.62 346.349 203.919C347.903 203.361 349.484 202.872 351.038 202.36L389.765 189.702C391.029 189.363 392.151 188.693 392.987 187.776C393.822 186.86 394.333 185.739 394.454 184.56C394.454 184.025 393.962 183.024 393.522 182.931C392.361 182.753 391.303 182.224 390.521 181.433C389.74 180.643 389.281 179.636 389.221 178.58C389.028 177.927 388.777 177.289 388.47 176.672C387.797 176.835 387.253 176.928 386.709 177.114C365.052 184.172 343.413 191.253 321.791 198.358C319.566 199.105 317.592 200.354 316.059 201.984C314.526 203.613 313.485 205.57 313.036 207.665C311.845 212.019 312.153 216.595 313.916 220.789L350.675 311.349C364.249 344.778 377.823 378.215 391.397 411.659C393.193 416.493 395.482 421.166 398.236 425.62C400.22 428.778 403.435 431.165 407.262 432.32C411.088 433.476 415.255 433.319 418.96 431.88C444.865 423.107 470.977 414.684 497.037 406.284C499.582 405.478 501.849 404.091 503.616 402.259C505.383 400.428 506.588 398.214 507.114 395.837V395.86ZM436.757 215.949V216.461C426.772 216.989 417.068 219.636 408.443 224.186C403.463 226.417 399.314 229.902 396.501 234.215C395.88 235.037 395.489 235.98 395.358 236.966C395.227 237.952 395.362 238.952 395.75 239.882C396.138 240.812 396.769 241.644 397.589 242.31C398.409 242.976 399.395 243.455 400.464 243.708C402.955 244.558 405.576 245.061 408.236 245.197C419.203 245.532 430.057 243.115 439.58 238.217C444.828 235.999 449.306 232.54 452.533 228.211C455.564 223.744 454.087 219.509 448.543 217.927C444.666 217.038 440.729 216.377 436.757 215.949ZM395.672 243.429C394.897 245.791 394.897 248.303 395.672 250.665C397.105 254.489 399.82 257.821 403.443 260.205C410.555 265.283 419.221 268.294 428.286 268.838C434.532 269.495 440.859 268.568 446.549 266.162C452.61 263.44 455.434 259.298 454.683 253.574C453.969 249.666 451.694 246.126 448.284 243.615C447.922 243.312 446.834 243.429 446.238 243.615C443.052 245.034 440.047 246.779 436.783 248.013C427.975 251.711 418.225 253.222 408.546 252.387C402.925 251.759 398.003 250.06 396.501 244.36C396.257 244.027 395.98 243.715 395.672 243.429ZM447.714 271.7C446.549 272.258 445.564 272.794 444.502 273.236C443.396 273.73 442.243 274.135 441.057 274.446C434.186 276.129 426.968 276.319 420 275C413.031 273.681 406.512 270.891 400.982 266.86C396.76 263.998 396.449 263.835 392.071 266.697C391.312 267.201 390.609 267.77 389.973 268.396C389.371 268.902 388.887 269.509 388.548 270.184C388.209 270.858 388.022 271.586 387.998 272.326C387.974 273.066 388.113 273.803 388.408 274.494C388.702 275.185 389.146 275.817 389.714 276.354C391.598 278.246 393.878 279.787 396.423 280.891C408.956 285.895 423.024 286.873 436.265 283.66C440.449 282.941 444.27 281.042 447.17 278.238C448.122 277.39 448.701 276.261 448.801 275.06C448.901 273.859 448.515 272.666 447.714 271.7ZM396.164 175.648V175.439C396.673 175.462 397.183 175.462 397.692 175.439C410.696 174.577 423.411 171.571 435.202 166.573C438.838 164.918 442.305 162.979 445.564 160.779C446.393 160.268 447.274 158.709 446.963 158.057C446.618 157.593 446.171 157.197 445.65 156.893C445.129 156.589 444.545 156.384 443.932 156.289C438.248 155.494 432.441 155.78 426.887 157.126C422.624 157.832 418.462 158.964 414.479 160.5C408.811 163.01 402.885 165.02 396.786 166.504C393.642 167.35 390.905 169.12 389.014 171.529C387.848 172.856 388.418 174.229 390.309 174.694C392.241 175.103 394.195 175.421 396.164 175.648ZM403.391 201.965C404.194 202.383 404.531 202.639 404.894 202.779C417.972 207.674 432.561 208.235 446.057 204.361C449.188 203.315 452.064 201.735 454.527 199.708C455.158 199.248 455.675 198.675 456.047 198.027C456.419 197.379 456.637 196.668 456.688 195.94C456.739 195.212 456.622 194.483 456.344 193.798C456.066 193.112 455.632 192.486 455.071 191.959C453.555 190.406 451.812 189.045 449.89 187.91C449.43 187.698 448.927 187.569 448.411 187.533C447.895 187.497 447.377 187.554 446.885 187.701C439.425 190.028 431.99 192.518 424.556 194.961L403.391 201.965ZM447.792 160.686C433.26 170.878 416.188 174.322 398.573 176.602C398.967 177.754 399.279 178.928 399.506 180.116C399.739 181.907 400.723 182.442 402.588 182.163C411.258 181.356 419.789 179.622 428.001 176.998C434.451 175.22 440.565 172.576 446.134 169.156C449.502 166.829 449.709 166.061 448.44 162.548C448.155 161.92 447.999 161.291 447.792 160.686ZM435.824 133.695C434.399 130.903 433.001 128.436 429.348 128.297C427.469 128.219 425.587 128.305 423.727 128.553C417.634 129.535 411.757 131.389 406.319 134.044C398.943 137.327 392.228 141.692 386.45 146.958C385.957 147.447 385.413 148.471 385.647 148.866C386.577 150.308 387.616 151.692 388.755 153.008C389.144 152.752 389.351 152.659 389.481 152.542C397.516 145.221 407.244 139.573 417.976 135.999C423.532 133.638 429.752 132.835 435.824 133.695ZM455.097 226.769C442.844 241.73 425.54 246.128 406.085 246.361C407.277 251.968 406.889 251.433 412.251 251.503C421.599 251.499 430.816 249.531 439.166 245.756C444.882 243.557 449.909 240.129 453.802 235.774C454.989 234.577 455.748 233.087 455.979 231.497C456.21 229.907 455.903 228.292 455.097 226.862V226.769ZM396.164 282.473C396.164 283.101 395.983 283.776 395.905 284.474C395.594 287.662 395.568 287.732 398.936 288.826C409.972 292.54 421.982 293.252 433.467 290.873C437.383 289.94 441.146 288.547 444.658 286.731C446.107 285.971 447.26 284.829 447.96 283.459C448.66 282.089 448.873 280.558 448.569 279.076C446.11 280.674 443.511 282.09 440.798 283.311C430.324 286.887 418.912 287.623 407.977 285.428C404.117 284.87 400.283 283.613 396.164 282.566V282.473ZM405.516 204.012C405.308 205.036 405.153 205.781 405.023 206.548C404.531 209.341 404.505 209.41 407.458 210.318C418.173 213.622 429.68 214.273 440.772 212.203C445.017 211.57 449.042 210.065 452.533 207.805C453.88 207.031 454.928 205.904 455.535 204.575C456.143 203.247 456.279 201.783 455.926 200.382C454.553 201.414 453.117 202.377 451.626 203.268C446.417 205.913 440.585 207.412 434.607 207.642C424.735 208.543 414.765 207.331 405.516 204.105V204.012ZM497.374 361.935C483.411 327.567 469.5 293.363 455.486 258.833C455.097 259.414 454.864 259.717 454.683 260.042C453.673 261.927 454.812 263.556 455.486 265.255C468.421 297.101 481.33 328.948 494.213 360.795C494.783 362.191 495.664 362.703 497.374 361.935ZM403.029 261.555C400.438 265.255 400.438 265.604 404.169 267.744C413.91 273.674 425.852 275.938 437.43 274.05C440.037 273.789 442.557 273.054 444.837 271.89C447.117 270.726 449.11 269.157 450.693 267.279C451.484 266.104 452.168 264.875 452.74 263.603C450.624 264.991 448.419 266.266 446.134 267.419C438.912 270.309 430.841 271.019 423.131 269.443C415.852 268.308 408.988 265.601 403.132 261.555H403.029ZM319.952 247.594C318.476 247.989 317.362 248.315 317.932 249.781C320.703 256.762 323.475 263.533 326.376 270.374C326.584 270.862 327.749 271.048 328.475 271.374C328.812 270.699 329.589 269.885 329.381 269.373C326.791 262.532 323.941 255.738 321.144 248.943C320.85 248.48 320.483 248.057 320.056 247.687L319.952 247.594ZM411.37 433.741C407.796 433.464 404.405 432.204 401.656 430.134C401.333 429.886 400.914 429.761 400.49 429.785C398.236 430.367 396.034 431.019 393.599 431.74C395.868 433.864 398.874 435.23 402.123 435.615C405.372 436 408.669 435.38 411.474 433.857L411.37 433.741ZM304.668 217.647C306.792 216.973 308.761 216.391 310.704 215.693C310.922 215.611 311.115 215.484 311.268 215.322C311.421 215.16 311.53 214.969 311.585 214.762C311.585 212.715 311.585 210.667 311.585 208.596C304.953 209.992 303.088 212.319 304.772 217.764L304.668 217.647ZM423.39 182.07L423.753 181.395C423.209 179.86 422.276 179.278 420.359 180.953L423.39 182.07Z" fill="#121212"/>
<path d="M203.538 38.9229C203.538 38.4808 203.797 37.9456 203.875 37.3639C204.807 30.5928 212.19 22.891 219.599 21.4018C225.368 20.4053 231.343 21.2271 236.515 23.7287C238.717 24.6827 240.841 25.8228 243.198 26.963C243.551 26.0494 243.984 25.1624 244.493 24.3104C246.238 21.6282 248.194 19.0621 250.348 16.6318C251.436 15.588 252.765 14.7702 254.241 14.2357C255.718 13.7011 257.307 13.4627 258.897 13.5371C259.628 13.5365 260.357 13.4663 261.073 13.3277C268.844 11.7687 274.413 15.0263 278.584 20.5176C280.682 23.3098 282.211 26.4278 284.102 29.5923C285.423 28.5452 286.848 27.2655 288.324 26.2649C292.214 22.9976 296.91 20.6053 302.028 19.2844C303.241 18.9699 304.527 18.9552 305.748 19.2419C306.97 19.5285 308.083 20.1059 308.97 20.9132C309.891 21.7786 310.906 22.5581 312.001 23.24C313.607 24.0302 314.875 25.277 315.607 26.7847C316.338 28.2924 316.491 29.9757 316.042 31.5701C316.004 31.8249 316.004 32.0832 316.042 32.338C318.633 31.2443 320.887 30.0111 323.348 29.1735C325.415 28.2908 327.708 27.9244 329.987 28.1128C332.266 28.3011 334.447 29.0372 336.3 30.2438C336.964 30.6602 337.676 31.0113 338.424 31.2909C345.134 33.8969 347.517 38.8764 347.517 45.0192C347.301 54.9076 343.221 64.4129 335.989 71.871C332.335 76.2288 327.478 79.6537 321.897 81.8066C319.674 82.7837 317.195 83.1962 314.729 82.9994C312.264 82.8025 309.905 82.0038 307.908 80.6897C307.32 80.3222 306.695 80.0029 306.043 79.7357C299.826 77.1994 297.391 72.5225 297.184 66.7054C297.184 64.3785 297.391 62.0517 297.521 59.4922C296.951 59.911 296.51 60.2833 296.018 60.6091C291.899 63.1686 287.91 65.9143 283.636 68.1946C282.357 68.9767 280.869 69.4386 279.326 69.5327C277.782 69.6268 276.239 69.3496 274.854 68.7297C274.515 68.6478 274.157 68.6478 273.818 68.7297C270.813 69.102 267.808 69.5209 264.803 69.9397C261.676 70.3789 258.479 69.7747 255.814 68.2411C254.907 67.7292 254.26 67.5198 253.379 68.2411C251.726 69.685 249.737 70.7806 247.555 71.4487C245.373 72.1167 243.053 72.3405 240.763 72.1037C235.956 71.7911 231.285 70.5278 227.085 68.404L225.065 67.45C225.308 69.194 225.412 70.9513 225.376 72.7086C225.258 75.3632 224.877 78.003 224.236 80.5966C223.746 82.3178 222.823 83.9152 221.539 85.2664C220.254 86.6176 218.643 87.6866 216.827 88.3915C214.981 89.1051 213.406 90.2854 212.294 91.7887C210.455 94.2784 207.994 96.4424 205.895 98.7692C205.066 99.6534 204.574 100.77 203.745 101.678C196.881 109.077 185.612 130.88 185.275 131.461C184.938 132.043 184.602 132.043 184.317 131.903C186.441 127.25 190.456 119.85 193.047 114.592C192.703 114.44 192.328 114.352 191.945 114.333C191.563 114.315 191.18 114.365 190.819 114.483C190.459 114.6 190.129 114.781 189.848 115.016C189.568 115.251 189.343 115.534 189.187 115.848C186.721 121.611 184.611 127.491 182.866 133.462C182.063 136.092 178.954 150.704 173.67 152.38C165.795 156.475 165.536 148.796 166.261 137.534C168.074 129.39 170.225 118.501 172.038 110.287C159.526 104.074 147.636 96.9776 143.543 82.97C130.638 103.996 122.279 127.026 118.907 150.844L117.975 150.635C118.182 149.006 118.337 147.377 118.622 145.771C122.192 124.252 129.933 103.461 141.496 84.3428C144.734 79.1074 148.568 74.1745 152.143 69.102L152.376 68.8926C156.832 65.891 158.567 60.9814 162.22 57.2584C163.496 55.9567 165.108 54.9557 166.914 54.3432C168.72 53.7307 170.667 53.5252 172.582 53.7449C174.033 53.7449 174.525 53.5355 174.628 52.2557C174.754 49.5647 175.722 46.9601 177.423 44.7415C179.123 42.5229 181.485 40.7803 184.239 39.714C187.866 38.1551 191.233 36.0144 195.508 36.8055C198.176 37.2941 200.74 38.1783 203.538 38.9229ZM346.662 46.2525C346.299 43.9256 346.17 42.0874 345.729 40.319C345.33 37.8293 343.869 35.5764 341.655 34.0354C339.442 32.4943 336.649 31.7857 333.865 32.0587C329.848 32.4314 326.044 33.8645 322.933 36.1772C317.272 40.009 312.622 44.915 309.313 50.5456C306.004 56.1762 304.118 62.3929 303.789 68.753C303.543 70.7413 303.791 72.754 304.517 74.6454C305.243 76.5368 306.428 78.2596 307.986 79.6892C311.535 82.7606 316.949 83.2958 322.441 80.6432C337.777 73.1275 344.538 60.7719 346.662 46.2525ZM181.053 51.7671C182.426 65.1929 188.177 75.7335 199.186 83.7844C202.349 86.2257 206.24 87.7792 210.377 88.2519C212.53 88.5707 214.74 88.302 216.721 87.4807C218.702 86.6594 220.363 85.3232 221.49 83.6448C223.787 79.9908 224.781 75.7923 224.34 71.615C224.356 70.1106 223.947 68.627 223.149 67.3041C222.352 65.9811 221.192 64.8622 219.78 64.0528C212.107 59.1914 206.716 51.9444 204.652 43.7162C204.475 42.4152 203.843 41.1983 202.847 40.2407C201.85 39.2831 200.541 38.6343 199.108 38.3877L198.072 38.0853C191.104 36.3169 185.12 38.7368 182.892 44.6004C182.082 46.9451 181.468 49.3406 181.053 51.7671ZM252.187 66.4029C250.39 64.2772 248.713 62.0717 247.162 59.7947C241.791 50.7085 240.141 40.2176 242.499 30.1507C242.607 29.7181 242.61 29.2694 242.508 28.8356C242.405 28.4018 242.198 27.9931 241.903 27.6377C236.403 23.8844 229.692 21.8424 222.785 21.8206C219.654 21.6934 216.581 22.6046 214.149 24.3809C211.718 26.1572 210.099 28.6746 209.6 31.4538C209.106 33.8224 209.186 36.2586 209.833 38.5972C214.081 52.8142 224.469 61.8656 239.831 66.3564C243.838 67.5968 248.197 67.5722 252.187 66.2866V66.4029ZM273.429 67.9852C271.823 66.7985 270.683 65.8212 269.388 65.0301C268.074 64.2485 267.056 63.1268 266.469 61.8136C265.881 60.5005 265.752 59.0579 266.098 57.6772C266.345 55.9374 266.779 54.2231 267.393 52.5582C270.284 45.4214 274.791 38.9007 280.631 33.4083C281.632 32.7432 282.304 31.7523 282.503 30.6477C282.701 29.5431 282.411 28.4126 281.693 27.4981C281.686 27.4362 281.686 27.3739 281.693 27.312C279.833 22.7457 276.506 18.7777 272.134 15.9105C269.938 14.3955 267.181 13.6915 264.427 13.9424C261.672 14.1932 259.129 15.3801 257.316 17.26C254.876 19.6556 252.992 22.4636 251.773 25.5203C249.729 30.8767 248.905 36.5476 249.35 42.1958C249.795 47.844 251.5 53.3542 254.363 58.3986C256.164 61.9273 259.037 64.9277 262.653 67.0544C264.238 67.9714 266.049 68.5252 267.928 68.6671C269.807 68.8091 271.696 68.535 273.429 67.8688V67.9852ZM211.258 91.2536C208.762 92.0661 206.085 92.3234 203.455 92.0032C200.824 91.6831 198.32 90.7951 196.155 89.4153C190.145 86.063 185.07 81.5177 181.32 76.1288C177.57 70.7398 175.246 64.6506 174.525 58.3288C173.929 54.3731 173.929 54.2801 169.344 54.7687C168.129 54.7687 166.931 55.0169 165.839 55.4944C164.748 55.972 163.791 56.6664 163.042 57.525C162.294 58.3837 161.772 59.3841 161.517 60.4506C161.263 61.517 161.282 62.6215 161.572 63.6805C161.963 65.9964 162.759 68.2423 163.93 70.3353C168.779 78.1603 175.954 84.621 184.653 88.9965C189.861 92.0923 195.842 93.9792 202.061 94.4879C205.636 94.7205 209.211 94.2784 211.387 91.0674L211.258 91.2536ZM156.055 67.0079C154.777 67.4544 153.68 68.2381 152.907 69.2557C152.135 70.2733 151.724 71.4771 151.729 72.7086C151.78 75.0467 152.334 77.3538 153.361 79.503C157.713 87.8564 165.251 93.464 173.851 98.1177C179.41 101.404 185.813 103.359 192.451 103.795C195.322 103.742 198.169 103.303 200.896 102.492C201.984 102.213 202.735 101.026 203.849 100.165C200.789 100.401 197.712 100.401 194.653 100.165C183.177 98.2573 173.929 92.51 166.157 85.1107C160.977 80.0615 156.728 74.5468 156.055 67.0079ZM310.136 23.3098C307.313 20.4711 305.499 19.7265 302.365 20.2849C300.876 20.5536 299.431 20.9915 298.065 21.588C290.847 24.985 284.537 29.7483 279.569 35.549C274.454 40.8265 270.522 46.9418 267.989 53.5587C267.874 53.9538 267.857 54.3665 267.937 54.7683C268.018 55.17 268.195 55.5513 268.455 55.8856C269.657 56.8412 270.958 57.6905 272.341 58.4218C272.54 58.1601 272.722 57.8882 272.885 57.6074C277.392 46.7908 285.05 37.26 295.06 30.0111C299.267 26.5261 304.5 24.2001 310.136 23.3098ZM334.772 30.6626C334.328 30.409 333.869 30.176 333.399 29.9646C331.278 29.244 328.996 28.9884 326.744 29.2191C324.491 29.4497 322.332 30.16 320.446 31.2909C306.613 38.7833 299.722 50.1848 297.987 64.3785C297.97 64.7114 298.033 65.0437 298.172 65.3528C298.31 65.6619 298.521 65.9406 298.79 66.1702C299.986 66.8174 301.243 67.3701 302.546 67.8223C303.103 61.192 305.355 54.7664 309.126 49.0447C315.032 40.1329 322.337 32.8033 334.772 30.6626ZM175.613 84.3428C168.126 77.7811 161.132 71.2195 160.303 61.3537C159.144 62.1602 158.257 63.2397 157.74 64.472C157.223 65.7044 157.097 67.0413 157.376 68.3342C158.723 77.0598 165.147 82.9235 171.934 88.7406L175.613 84.3428ZM165.95 94.5809C158.541 88.694 151.677 82.714 150.278 73.3136C149.128 74.2899 148.296 75.5294 147.871 76.8988C147.447 78.2681 147.446 79.7155 147.869 81.0853C148.635 83.4569 149.695 85.7438 151.029 87.9029C153.996 92.2205 157.846 95.9944 162.375 99.0252L165.95 94.5809ZM221.127 58.4218C218.044 55.0937 215.206 51.5882 212.631 47.9278C210.618 44.1575 208.887 40.2708 207.45 36.2936C204.859 37.5966 204.497 39.9002 205.377 42.6226C205.533 43.1112 205.636 43.6464 205.766 44.135C207.838 50.7442 211.941 56.6954 217.604 61.3071L221.127 58.4218ZM248.017 38.7833C248.379 29.6156 250.063 21.0063 258.56 14.6074C256.152 14.7619 253.834 15.4902 251.844 16.7171C249.855 17.9441 248.265 19.6255 247.239 21.588C244.558 25.8627 243.04 30.6467 242.81 35.549C242.81 36.8055 242.81 38.062 242.81 39.4348L248.017 38.7833ZM181.027 60.9116C179.82 61.4379 178.644 62.0204 177.504 62.6567C177.304 62.8141 177.15 63.013 177.055 63.236C176.96 63.459 176.928 63.6995 176.96 63.9364C178.321 68.5083 180.528 72.8422 183.488 76.7573L188.151 74.8726L181.027 60.9116ZM247.732 40.319C246.954 40.319 245.944 40.319 244.934 40.319C243.302 40.319 242.343 40.8077 242.81 42.3899C243.665 46.2059 244.493 50.0452 245.4 53.838C245.512 54.116 245.698 54.3652 245.942 54.5639C246.186 54.7626 246.48 54.9048 246.799 54.9781C248.161 54.9711 249.521 54.8699 250.866 54.6756C249.804 49.7195 248.69 45.089 247.732 40.319ZM183.255 41.4592C175.639 44.3677 174.162 54.9316 176.597 61.6794C177.716 61.2502 178.784 60.7201 179.783 60.0972C180.092 59.849 180.338 59.5438 180.503 59.2024C180.669 58.8611 180.75 58.4916 180.742 58.1193C179.783 52.4651 179.654 46.9505 183.255 41.4592ZM204.807 36.0144C208.02 34.944 208.227 32.5706 208.564 30.2438L207.994 29.9879L204.807 36.0144Z" fill="#121212"/>
<path d="M291.459 313.491C291.718 315.864 291.77 318.253 291.615 320.634C291.198 330.943 287.67 340.956 281.408 349.603C279.344 352.167 276.895 354.461 274.129 356.421C272.996 357.221 271.663 357.76 270.245 357.991C268.827 358.223 267.368 358.139 265.995 357.747C244.589 353.107 224.367 344.838 206.414 333.385C197.58 327.801 189.291 321.472 181.079 315.119C176.209 311.373 171.986 306.906 167.401 302.834C166.585 302.203 166.081 301.308 165.998 300.344C165.916 299.38 166.262 298.426 166.961 297.691C169.602 294.081 172.538 290.651 175.743 287.43C184.962 278.59 195.844 271.28 207.89 265.837L208.901 265.418C215.04 263.091 215.817 263.277 220.402 267.605C233.864 280.862 250.498 291.205 269.052 297.854C273.273 299.3 277.601 300.482 282.004 301.391C285.657 302.159 288.014 302.764 290.164 306.231C290.164 306.231 290.164 306.394 290.164 306.487C290.893 308.769 291.328 311.119 291.459 313.491ZM276.15 303.229C276.348 303.102 276.505 302.928 276.602 302.727C276.699 302.525 276.734 302.304 276.702 302.087C276.67 301.869 276.573 301.664 276.421 301.492C276.269 301.32 276.067 301.189 275.839 301.112C272.393 300.018 269 299.018 265.736 297.784C248.194 290.923 232.45 280.832 219.522 268.164C215.429 264.301 215.144 264.255 209.6 266.186C209.186 266.325 208.771 266.535 208.357 266.698C199.904 270.447 192.06 275.214 185.042 280.868C181.701 283.474 178.54 286.267 175.173 289.082C175.046 289.195 174.945 289.329 174.876 289.476C174.808 289.624 174.772 289.783 174.772 289.943C174.772 290.103 174.808 290.262 174.876 290.409C174.945 290.557 175.046 290.691 175.173 290.804C198.487 312.979 225.065 330.058 256.436 340.179C256.618 340.236 256.811 340.257 257.003 340.241C257.194 340.224 257.38 340.171 257.547 340.086C257.713 340 257.858 339.882 257.97 339.742C258.082 339.602 258.16 339.441 258.198 339.272C259.389 333.92 260.218 328.708 261.902 323.752C264.596 315.841 268.326 308.302 276.15 303.229ZM169.655 299.436C169.476 299.263 169.244 299.141 168.989 299.084C168.733 299.028 168.465 299.04 168.217 299.12C167.969 299.199 167.752 299.342 167.593 299.53C167.434 299.719 167.341 299.945 167.324 300.181C167.351 300.628 167.481 301.065 167.703 301.465C167.926 301.865 168.238 302.22 168.619 302.508C172.919 306.37 177.064 310.419 181.571 314.142C201.461 331.294 225.177 344.459 251.151 352.768C253.742 353.535 256.177 354.233 258.923 354.955C259.266 355.057 259.641 355.032 259.964 354.886C260.287 354.739 260.532 354.484 260.646 354.175C260.759 353.867 260.731 353.53 260.568 353.24C260.406 352.95 260.121 352.73 259.778 352.628L258.975 352.372C255.996 351.465 252.991 350.534 250.038 349.51C220.729 338.921 194.342 322.723 172.712 302.042L169.655 299.436Z" fill="#121212"/>
<path d="M379.529 56.7464C378.726 58.6622 377.801 60.5346 376.757 62.3541C370.145 71.9203 361.679 80.3447 351.759 87.2281C347.929 89.9101 343.857 92.2996 339.583 94.3715C335.957 96.1864 334.895 95.7908 331.967 93.1382C331.177 92.2995 330.311 91.5212 329.377 90.8114C328.801 90.485 328.307 90.0542 327.927 89.5466C327.547 89.0391 327.289 88.4659 327.17 87.8637C327.05 87.2615 327.072 86.6435 327.233 86.0493C327.395 85.455 327.693 84.8976 328.108 84.4126C330.519 80.5605 333.22 76.86 336.19 73.3368C343.811 64.5726 353.099 57.0889 363.623 51.2318C370.022 47.8114 370.902 47.9975 376.031 52.8374C377.272 54.0848 378.439 55.3896 379.529 56.7464ZM335.49 86.2973C346.5 72.918 358.546 60.9348 375.487 53.7216C371.058 49.3936 371.576 48.7887 364.659 51.7903C364.468 51.8852 364.286 51.9942 364.115 52.116C352.053 58.9891 341.585 67.8939 333.289 78.3395C330.413 81.8298 330.491 81.8996 334.014 84.971L335.49 86.2973Z" fill="#121212"/>
<path d="M371.115 135.856C370.494 135.553 369.927 135.168 369.431 134.716C368.084 133.018 366.84 131.203 365.571 129.504C364.587 128.271 365.286 127.317 366.219 126.572C369.923 123.571 373.55 120.406 377.539 117.707C387.894 110.52 399.059 104.327 410.852 99.232C416.862 96.719 416.888 96.7655 420.463 101.559C423.054 105.235 423.235 105.305 419.634 108.33C411.004 115.351 401.554 121.514 391.45 126.712C386.113 129.597 380.466 132.04 374.923 134.6C373.69 135.104 372.417 135.524 371.115 135.856ZM420.334 103.537C416.111 97.5566 417.743 97.3938 410.516 100.419C397.024 106.298 384.341 113.568 372.721 122.082C372.172 122.396 371.591 122.661 370.985 122.873L375.389 128.55C389.507 118.708 403.884 109.656 420.437 103.537H420.334Z" fill="#121212"/>
<path d="M354.146 112.033C352.696 112.127 351.249 111.824 349.995 111.163C348.742 110.503 347.741 109.516 347.126 108.333C346.412 107.02 345.543 105.78 344.535 104.633C343.81 103.813 343.384 102.813 343.315 101.768C343.245 100.723 343.536 99.6843 344.147 98.7928C346.35 95.1795 349.357 92.0115 352.98 89.4855C362.672 81.8149 374.192 76.2428 386.656 73.1976C388.358 72.8407 390.092 72.6227 391.837 72.5461C393.29 72.3409 394.777 72.5804 396.06 73.2261C397.342 73.8718 398.346 74.8862 398.909 76.1062C399.648 77.3753 400.524 78.5756 401.526 79.6895C402.363 80.6176 402.82 81.7759 402.82 82.9703C402.82 84.1648 402.363 85.323 401.526 86.2512C398.99 89.4175 396.119 92.3553 392.951 95.0234C384.101 102.054 373.691 107.32 362.41 110.474C359.767 111.218 356.918 111.521 354.146 112.033ZM350.027 104.912C350.986 104.912 352.203 104.75 353.421 104.54C354.787 104.344 356.137 104.064 357.462 103.702C368.808 100.511 379.307 95.269 388.314 88.2988C392.06 85.778 395.095 82.5023 397.174 78.7355C398.676 75.571 397.303 73.5001 393.469 73.5234C390.708 73.4979 387.955 73.8031 385.283 74.4308C375.347 77.0295 366.048 81.2927 357.876 86.9958C352.902 89.9811 348.683 93.8738 345.494 98.4206C343.007 102.423 344.535 104.866 350.027 104.912ZM358.109 104.912C358.602 105.913 359.016 106.82 359.43 107.705C360.596 110.171 360.57 110.031 363.394 109.333C372.466 106.55 380.971 102.455 388.573 97.2106C393.348 94.3038 397.418 90.5602 400.541 86.2046C401.022 85.6062 401.367 84.9284 401.556 84.2099C401.745 83.4915 401.774 82.7467 401.642 82.0182C401.509 81.2896 401.218 80.5918 400.785 79.9646C400.352 79.3373 399.785 78.7931 399.117 78.3632C389.402 92.0683 374.326 98.979 358.109 104.819V104.912Z" fill="#121212"/>
<path d="M121.467 149.773C122.633 144.328 123.565 139.349 124.783 134.416C125.836 130.088 127.079 125.807 128.513 121.572C129.172 120.359 130.047 119.251 131.103 118.291C131.799 119.56 132.271 120.918 132.502 122.316C132.313 124.664 131.941 126.996 131.388 129.297C130.352 134.835 129.238 140.349 128.306 145.887C128.292 146.538 128.025 147.164 127.552 147.656C127.079 148.149 126.429 148.478 125.715 148.586C124.498 148.819 123.254 149.261 121.467 149.773Z" fill="#121212"/>
<path d="M507.116 395.836C506.585 398.203 505.379 400.405 503.618 402.228C501.856 404.051 499.599 405.432 497.065 406.237C471.005 414.684 444.919 423.107 418.988 431.833C415.283 433.272 411.116 433.429 407.29 432.273C403.463 431.118 400.249 428.731 398.264 425.573C395.51 421.119 393.221 416.446 391.426 411.612C377.765 378.199 364.191 344.762 350.703 311.302L313.944 220.742C312.181 216.548 311.874 211.972 313.064 207.618C313.513 205.523 314.554 203.566 316.087 201.937C317.62 200.307 319.594 199.058 321.819 198.311C343.424 191.175 365.054 184.086 386.711 177.044C387.255 176.858 387.799 176.764 388.472 176.602C388.779 177.218 389.031 177.856 389.224 178.51C389.283 179.566 389.742 180.572 390.523 181.363C391.305 182.154 392.363 182.682 393.524 182.861C393.964 182.861 394.534 183.954 394.456 184.49C394.336 185.669 393.825 186.789 392.989 187.706C392.153 188.622 391.031 189.293 389.768 189.632L351.04 202.29C349.486 202.802 347.905 203.29 346.351 203.849C344.838 204.55 343.096 204.743 341.439 204.393C339.782 204.043 338.318 203.174 337.31 201.941C334.331 198.474 331.145 197.869 326.508 199.614C316.328 203.267 312.468 209.945 316.146 219.578C320.55 231.026 325.291 242.405 329.902 253.806L354.641 314.7C368.75 349.509 382.877 384.311 397.021 419.105C398.557 423.469 401.944 427.113 406.45 429.25C407.969 429.963 409.639 430.377 411.35 430.465C413.06 430.554 414.772 430.314 416.372 429.762C442.639 421.153 468.924 412.559 495.226 403.98C497.259 403.461 499.121 402.503 500.647 401.188C502.173 399.874 503.318 398.245 503.982 396.441C504.603 394.673 505.717 395.255 507.116 395.836Z" fill="#9155F1"/>
<path d="M436.754 215.947C440.692 216.387 444.595 217.056 448.437 217.948C453.981 219.531 455.457 223.765 452.426 228.233C449.199 232.562 444.722 236.02 439.474 238.238C429.951 243.137 419.097 245.554 408.129 245.219C405.469 245.082 402.848 244.58 400.358 243.73C399.289 243.477 398.303 242.997 397.483 242.332C396.662 241.666 396.032 240.833 395.644 239.903C395.255 238.974 395.121 237.974 395.252 236.988C395.382 236.002 395.774 235.058 396.394 234.236C399.207 229.923 403.357 226.439 408.337 224.208C416.962 219.658 426.665 217.011 436.65 216.482L436.754 215.947Z" fill="#C6E6A3"/>
<path d="M395.67 243.428C395.91 243.744 396.118 244.079 396.292 244.428C397.794 250.152 402.716 251.828 408.337 252.456C418.016 253.29 427.766 251.78 436.574 248.081C439.838 246.848 442.843 245.103 446.029 243.684C446.625 243.428 447.713 243.311 448.075 243.684C451.485 246.194 453.76 249.735 454.474 253.643C455.225 259.367 452.401 263.508 446.34 266.231C440.65 268.637 434.323 269.564 428.077 268.907C419.012 268.363 410.346 265.352 403.234 260.274C399.611 257.89 396.896 254.558 395.463 250.734C394.74 248.332 394.812 245.793 395.67 243.428Z" fill="#C6E6A3"/>
<path d="M447.711 271.698C448.511 272.665 448.897 273.858 448.797 275.059C448.697 276.26 448.118 277.388 447.167 278.237C444.266 281.04 440.446 282.939 436.261 283.658C422.996 286.888 408.897 285.91 396.341 280.889C393.796 279.786 391.517 278.244 389.632 276.352C389.064 275.816 388.621 275.184 388.326 274.492C388.032 273.801 387.893 273.064 387.917 272.325C387.941 271.585 388.128 270.857 388.467 270.182C388.805 269.508 389.29 268.9 389.891 268.394C390.528 267.768 391.231 267.2 391.989 266.696C396.367 263.834 396.678 263.997 400.901 266.859C406.431 270.889 412.95 273.679 419.918 274.998C426.887 276.317 434.105 276.127 440.975 274.444C442.162 274.134 443.315 273.729 444.421 273.234C445.561 272.815 446.545 272.257 447.711 271.698Z" fill="#C6E6A3"/>
<path d="M396.162 175.648C394.159 175.425 392.17 175.106 390.204 174.694C388.313 174.229 387.743 172.856 388.909 171.53C390.8 169.12 393.536 167.351 396.68 166.504C402.815 165.026 408.775 163.016 414.477 160.5C418.46 158.964 422.622 157.833 426.885 157.127C432.439 155.78 438.246 155.494 443.93 156.289C444.543 156.384 445.127 156.59 445.648 156.894C446.169 157.198 446.616 157.593 446.961 158.057C447.272 158.709 446.391 160.268 445.562 160.78C442.303 162.979 438.836 164.918 435.2 166.574C423.415 171.561 410.709 174.558 397.716 175.416C397.207 175.439 396.697 175.439 396.188 175.416L396.162 175.648Z" fill="white"/>
<path d="M403.391 201.965L424.529 194.985C431.964 192.658 439.398 190.075 446.859 187.725C447.35 187.578 447.869 187.521 448.385 187.557C448.901 187.593 449.404 187.721 449.864 187.934C451.786 189.069 453.528 190.43 455.045 191.983C455.606 192.51 456.039 193.136 456.317 193.822C456.595 194.507 456.713 195.236 456.662 195.964C456.611 196.692 456.392 197.403 456.02 198.051C455.648 198.699 455.131 199.272 454.501 199.731C452.038 201.759 449.161 203.339 446.03 204.385C432.534 208.259 417.945 207.698 404.867 202.803C404.53 202.64 404.116 202.384 403.391 201.965Z" fill="#C6E6A3"/>
<path d="M447.789 160.686C447.996 161.291 448.178 161.919 448.411 162.547C449.68 166.061 449.473 166.898 446.105 169.155C440.536 172.576 434.422 175.219 427.972 176.997C419.739 179.593 411.19 181.295 402.507 182.069C400.642 182.232 399.658 181.813 399.425 180.022C399.198 178.834 398.886 177.66 398.492 176.508C416.185 174.321 433.256 170.877 447.789 160.686Z" fill="#9155F1"/>
<path d="M435.82 133.694C429.77 132.855 423.58 133.666 418.049 136.021C407.317 139.595 397.589 145.243 389.554 152.564C389.554 152.564 389.217 152.774 388.828 153.03C387.689 151.714 386.651 150.33 385.72 148.888C385.487 148.492 386.031 147.469 386.523 146.98C392.301 141.714 399.016 137.349 406.392 134.066C411.804 131.41 417.655 129.548 423.722 128.551C425.582 128.303 427.465 128.217 429.343 128.295C432.996 128.551 434.395 130.878 435.82 133.694Z" fill="#9155F1"/>
<path d="M455.09 226.861C455.918 228.303 456.238 229.937 456.007 231.545C455.775 233.154 455.004 234.661 453.795 235.866C449.902 240.222 444.875 243.65 439.159 245.848C430.809 249.624 421.591 251.592 412.243 251.596C406.881 251.596 407.27 252.061 406.078 246.453C425.533 246.221 442.967 241.823 455.09 226.861Z" fill="#C6E6A3"/>
<path d="M396.164 282.563C400.283 283.61 404.117 284.89 408.055 285.518C418.99 287.713 430.402 286.977 440.876 283.401C443.59 282.18 446.189 280.764 448.648 279.166C448.951 280.648 448.738 282.179 448.038 283.549C447.338 284.919 446.185 286.061 444.736 286.821C441.224 288.637 437.462 290.03 433.545 290.963C422.061 293.342 410.051 292.63 399.014 288.915C395.646 287.822 395.672 287.752 395.983 284.564C395.983 283.866 396.087 283.191 396.164 282.563Z" fill="#C6E6A3"/>
<path d="M405.505 204.106C414.721 207.325 424.653 208.545 434.493 207.666C440.471 207.436 446.303 205.937 451.512 203.291C453.039 202.396 454.509 201.425 455.916 200.383C456.302 201.787 456.193 203.265 455.604 204.611C455.014 205.958 453.974 207.106 452.626 207.898C449.135 210.159 445.11 211.664 440.865 212.296C429.774 214.366 418.266 213.715 407.552 210.411C404.598 209.504 404.624 209.434 405.117 206.642C405.142 205.874 405.298 205.13 405.505 204.106Z" fill="#C6E6A3"/>
<path d="M497.373 361.936C495.559 362.704 494.782 362.192 494.212 360.796C481.312 328.949 468.403 297.103 455.485 265.256C454.811 263.557 453.671 261.929 454.682 260.044C454.863 259.718 455.096 259.416 455.485 258.834C469.603 293.364 483.514 327.569 497.373 361.936Z" fill="#9155F1"/>
<path d="M403.133 261.555C409.019 265.614 415.919 268.322 423.235 269.443C430.945 271.019 439.016 270.309 446.238 267.418C448.523 266.265 450.729 264.991 452.844 263.602C452.272 264.875 451.588 266.104 450.798 267.279C449.214 269.157 447.222 270.726 444.941 271.89C442.661 273.054 440.141 273.789 437.534 274.05C425.956 275.938 414.014 273.674 404.273 267.744C400.594 265.603 400.594 265.254 403.133 261.555Z" fill="#C6E6A3"/>
<path d="M320.054 247.686C320.527 248.077 320.929 248.533 321.246 249.035C324.044 255.829 326.841 262.624 329.484 269.465C329.691 269.977 328.914 270.791 328.577 271.466C327.852 271.14 326.686 270.954 326.479 270.465C323.577 263.624 320.806 256.76 318.034 249.873C317.412 248.407 318.63 248.081 320.054 247.686Z" fill="#C6E6A3"/>
<path d="M411.466 433.857C408.686 435.37 405.419 435.996 402.193 435.633C398.968 435.27 395.973 433.939 393.695 431.856C396.13 431.135 398.332 430.483 400.586 429.901C401.01 429.877 401.429 430.002 401.752 430.251C404.5 432.32 407.892 433.58 411.466 433.857Z" fill="#C6E6A3"/>
<path d="M304.767 217.762C303.032 212.341 304.949 209.898 311.736 208.711C311.736 210.782 311.736 212.829 311.736 214.877C311.681 215.083 311.572 215.275 311.419 215.437C311.266 215.599 311.073 215.726 310.855 215.808C308.86 216.506 306.891 217.088 304.767 217.762Z" fill="#C6E6A3"/>
<path d="M423.386 182.067L420.355 180.951C422.272 179.275 423.205 179.857 423.749 181.393L423.386 182.067Z" fill="white"/>
<path d="M201.622 251.876C193.337 253.893 185.567 257.338 178.748 262.021C171.754 266.349 165.122 271.119 158.024 275.982C156.315 273.772 154.242 271.329 152.532 268.793C147.559 261.238 142.68 253.622 137.896 245.943C137.407 244.997 137.297 243.928 137.585 242.918C140.746 232.471 146.989 224.071 157.972 219.021C161.608 217.152 165.812 216.369 169.975 216.788C174.138 217.206 178.045 218.803 181.131 221.348C181.932 222.021 182.606 222.807 183.126 223.675C188.194 233.196 194.129 242.325 200.871 250.969C201.13 251.155 201.311 251.504 201.622 251.876Z" fill="#9155F1" stroke="#121212" stroke-width="0.5" stroke-miterlimit="10"/>
<path d="M166.008 137.88C166.005 138.99 165.989 140.073 165.973 141.142C165.938 143.449 165.905 145.688 166.008 147.971L166.008 147.974C166.074 149.148 166.257 150.408 166.814 151.454C167.379 152.515 168.321 153.344 169.862 153.65C171.402 153.956 172.596 153.55 173.536 152.817C174.464 152.093 175.138 151.056 175.672 150.108C177.204 147.429 178.496 144.633 179.794 141.823C180.148 141.058 180.502 140.292 180.861 139.527L180.863 139.524C181.335 138.488 181.662 137.5 181.985 136.526L181.986 136.521C182.309 135.548 182.627 134.589 183.082 133.586C183.524 132.924 184.133 132.364 184.86 131.95C181.173 143.98 178.931 156.33 178.174 168.789C178.139 168.738 178.105 168.691 178.073 168.645C177.929 168.441 177.819 168.285 177.712 168.117C177.463 167.722 177.221 167.312 176.976 166.899C176.573 166.218 176.164 165.526 175.712 164.874L175.711 164.873C172.597 160.391 169.31 157.773 165.551 157.04C161.795 156.307 157.63 157.469 152.787 160.404L152.787 160.404L152.781 160.408C144.351 165.877 137.322 172.906 132.168 181.023C131.043 182.554 129.982 184.201 128.846 185.963C128.359 186.719 127.859 187.496 127.333 188.295C127.304 188.137 127.276 187.991 127.25 187.854C127.239 187.799 127.229 187.746 127.219 187.694C127.154 187.354 127.105 187.074 127.08 186.798C126.179 175.014 126.404 163.182 127.753 151.432L127.753 151.432L127.753 151.43C127.812 150.855 128.008 150.51 128.293 150.264C128.591 150.006 129.006 149.838 129.55 149.664C133.871 148.279 138.186 146.872 142.499 145.466C148.845 143.396 155.187 141.328 161.541 139.333L161.543 139.333L166.008 137.88Z" fill="#9155F1" stroke="#121212" stroke-width="0.5"/>
<path d="M120.744 150.055C120.559 151.938 120.353 153.805 120.148 155.663C119.666 160.024 119.19 164.332 119.011 168.657L119.011 168.658C118.804 173.922 118.873 179.193 118.942 184.456C118.977 187.083 119.011 189.709 119.011 192.331C119.011 192.868 119.011 193.244 118.97 193.525C118.93 193.798 118.858 193.942 118.743 194.043C118.617 194.154 118.406 194.245 118.017 194.328C117.678 194.401 117.237 194.463 116.651 194.541C116.322 192.171 116.135 189.788 116.092 187.4C116.377 178.097 116.791 168.794 117.231 159.489C117.333 157.522 117.609 155.572 117.887 153.611C117.963 153.081 118.038 152.55 118.11 152.017L118.11 152.017L118.112 152.004C118.151 151.525 118.181 151.197 118.245 150.953C118.305 150.722 118.389 150.594 118.526 150.499C118.678 150.394 118.92 150.312 119.338 150.237C119.693 150.174 120.149 150.121 120.744 150.055Z" fill="#9155F1" stroke="#121212" stroke-width="0.5"/>
<path d="M134.705 259.67L148.72 279.262C149.206 280.026 149.779 280.744 150.43 281.403C150.749 281.634 151.006 281.926 151.183 282.258C151.36 282.591 151.451 282.954 151.451 283.322C151.451 283.69 151.36 284.054 151.183 284.386C151.006 284.718 150.749 285.011 150.43 285.242C149.974 284.84 149.558 284.404 149.186 283.939C144.575 277.54 139.99 271.095 135.327 264.696C134.791 263.961 134.455 263.123 134.347 262.25C134.239 261.376 134.362 260.493 134.705 259.67Z" fill="#9155F1" stroke="#121212" stroke-width="0.5" stroke-miterlimit="10"/>
<path d="M346.654 46.2526C344.529 60.772 337.768 73.1276 322.433 80.62C316.941 83.2726 311.527 82.7374 307.978 79.666C306.412 78.2313 305.223 76.5008 304.497 74.6008C303.771 72.7007 303.527 70.6791 303.781 68.6833C304.11 62.3232 305.996 56.1065 309.305 50.4758C312.613 44.8452 317.264 39.9393 322.925 36.1075C326.036 33.7948 329.84 32.3617 333.857 31.989C336.641 31.7159 339.434 32.4246 341.647 33.9657C343.861 35.5067 345.321 37.7596 345.721 40.2493C346.161 42.0875 346.291 43.9257 346.654 46.2526Z" fill="#F7F7F7"/>
<path d="M181.047 51.768C181.446 49.4061 182.035 47.0732 182.808 44.7874C185.114 38.9238 191.02 36.5039 197.989 38.2723L199.025 38.5748C200.442 38.7974 201.746 39.413 202.755 40.3352C203.763 41.2575 204.424 42.4401 204.646 43.7171C206.73 51.956 212.15 59.2046 219.852 64.0537C221.264 64.8631 222.423 65.982 223.221 67.3049C224.019 68.6279 224.428 70.1115 224.411 71.6159C224.853 75.7932 223.859 79.9917 221.562 83.6457C220.419 85.2986 218.755 86.6084 216.78 87.4082C214.805 88.208 212.61 88.4615 210.475 88.1365C206.338 87.6637 202.447 86.1103 199.284 83.6689C188.171 75.6181 182.42 65.0775 181.047 51.768Z" fill="white"/>
<path d="M252.18 66.2853C248.157 67.5647 243.768 67.5647 239.745 66.2853C224.384 61.841 213.996 52.8129 209.825 38.5959C209.204 36.2523 209.151 33.8161 209.67 31.4525C210.168 28.6857 211.776 26.1783 214.19 24.4036C216.605 22.6288 219.66 21.7096 222.778 21.8194C229.67 21.8076 236.38 23.8084 241.895 27.5201C242.191 27.8755 242.397 28.2842 242.5 28.718C242.603 29.1518 242.6 29.6004 242.491 30.0331C240.133 40.1 241.784 50.5909 247.154 59.677C248.705 61.954 250.382 64.1596 252.18 66.2853Z" fill="white"/>
<path d="M273.427 67.866C271.686 68.5112 269.797 68.7637 267.923 68.6015C266.049 68.4392 264.247 67.8671 262.676 66.9353C259.061 64.8085 256.188 61.8082 254.387 58.2794C251.523 53.235 249.818 47.7249 249.373 42.0767C248.928 36.4285 249.752 30.7575 251.796 25.4012C253.015 22.3445 254.9 19.5364 257.34 17.1409C259.152 15.2609 261.696 14.0741 264.45 13.8232C267.205 13.5723 269.962 14.2764 272.157 15.7913C276.529 18.6586 279.856 22.6265 281.716 27.1928C281.71 27.2547 281.71 27.3171 281.716 27.379C282.434 28.2934 282.725 29.4239 282.526 30.5285C282.328 31.6331 281.656 32.624 280.654 33.2891C274.815 38.7816 270.308 45.3022 267.417 52.439C266.803 54.1039 266.369 55.8183 266.122 57.5581C265.776 58.9388 265.905 60.3813 266.492 61.6945C267.08 63.0076 268.098 64.1293 269.412 64.9109C270.681 65.7253 271.821 66.6793 273.427 67.866Z" fill="white"/>
<path d="M211.381 91.0673C209.205 94.2784 205.631 94.7205 201.952 94.4878C195.769 93.964 189.825 92.0778 184.648 88.9964C176.035 84.5293 168.969 78.0054 164.235 70.149C163.053 68.027 162.258 65.749 161.877 63.4012C161.587 62.3422 161.568 61.2377 161.823 60.1712C162.077 59.1048 162.599 58.1044 163.348 57.2457C164.096 56.3871 165.053 55.6927 166.145 55.2151C167.236 54.7376 168.435 54.4894 169.649 54.4894C174.105 54.0007 174.105 54.0938 174.83 58.0494C175.515 64.3731 177.805 70.4716 181.523 75.8766C185.242 81.2816 190.289 85.8493 196.279 89.2291C198.444 90.6089 200.948 91.4969 203.578 91.817C206.209 92.1371 208.886 91.8799 211.381 91.0673Z" fill="white"/>
<path d="M156.051 67.0059C156.724 74.5448 160.973 80.0594 166.18 84.9923C173.951 92.3917 183.173 98.139 194.675 100.047C197.735 100.283 200.811 100.283 203.871 100.047C202.757 101.001 202.006 102.188 200.918 102.374C198.191 103.185 195.344 103.624 192.473 103.677C185.835 103.24 179.432 101.286 173.873 97.9994C165.273 93.3457 157.735 87.6449 153.383 79.3846C152.364 77.2732 151.801 75.0069 151.725 72.7066C151.72 71.4751 152.131 70.2713 152.904 69.2537C153.676 68.2361 154.773 67.4524 156.051 67.0059Z" fill="#9155F1"/>
<path d="M310.129 23.3093C304.515 24.2494 299.319 26.6154 295.156 30.1269C285.147 37.3758 277.488 46.9066 272.982 57.7232C272.818 58.0039 272.637 58.2759 272.438 58.5376C271.055 57.8063 269.754 56.957 268.552 56.0013C268.291 55.6671 268.114 55.2858 268.034 54.884C267.953 54.4822 267.971 54.0695 268.086 53.6745C270.644 47.0338 274.611 40.9017 279.769 35.6182C284.737 29.8175 291.048 25.0542 298.265 21.6572C299.631 21.0607 301.076 20.6229 302.565 20.3542C305.492 19.7259 307.306 20.4705 310.129 23.3093Z" fill="#9155F1"/>
<path d="M334.768 30.6607C322.334 32.8014 315.028 40.1775 309.122 49.0427C305.351 54.7645 303.1 61.1901 302.542 67.8203C301.24 67.3682 299.983 66.8154 298.786 66.1683C298.517 65.9387 298.306 65.6599 298.168 65.3508C298.029 65.0417 297.966 64.7095 297.983 64.3766C299.693 50.1829 306.609 38.7814 320.443 31.2889C322.328 30.1581 324.487 29.4478 326.74 29.2171C328.993 28.9864 331.274 29.242 333.395 29.9626C333.866 30.174 334.324 30.407 334.768 30.6607Z" fill="#9155F1"/>
<path d="M175.612 84.3429L171.933 88.7639C165.017 82.9468 158.722 77.1297 157.375 68.3575C157.096 67.0646 157.222 65.7277 157.739 64.4953C158.256 63.263 159.143 62.1835 160.302 61.377C161.131 71.2893 168.125 77.851 175.612 84.3429Z" fill="#9155F1"/>
<path d="M165.943 94.5779L162.368 99.0221C157.838 95.9913 153.988 92.2174 151.021 87.8998C149.687 85.7408 148.627 83.4539 147.861 81.0822C147.435 79.7145 147.432 78.2684 147.852 76.8992C148.271 75.53 149.099 74.2894 150.244 73.3105C151.669 82.711 158.534 88.691 165.943 94.5779Z" fill="#9155F1"/>
<path d="M221.117 58.4207L217.594 61.306C211.9 56.6811 207.778 50.7037 205.704 44.0641C205.704 43.5755 205.471 43.0403 205.316 42.5517C204.435 39.8293 204.849 37.5257 207.388 36.2227C208.825 40.1998 210.556 44.0865 212.569 47.8569C215.158 51.5425 218.013 55.0714 221.117 58.4207Z" fill="#9155F1"/>
<path d="M248.017 38.7808L242.836 39.3625C242.836 37.9897 242.836 36.7332 242.836 35.4767C243.066 30.5744 244.584 25.7905 247.266 21.5157C248.291 19.5532 249.881 17.8719 251.871 16.6449C253.861 15.4179 256.179 14.6896 258.586 14.5352C250.063 21.0038 248.38 29.6131 248.017 38.7808Z" fill="#9155F1"/>
<path d="M181.02 60.9102L188.144 74.8712L183.481 76.7559C180.521 72.8408 178.315 68.5069 176.953 63.935C176.921 63.6981 176.954 63.4576 177.049 63.2346C177.144 63.0115 177.298 62.8127 177.497 62.6553C178.637 62.019 179.813 61.4365 181.02 60.9102Z" fill="#9155F1"/>
<path d="M247.729 40.3163C248.791 45.0863 249.801 49.6237 250.889 54.6729C249.544 54.8672 248.184 54.9683 246.822 54.9754C246.503 54.9021 246.209 54.7599 245.965 54.5612C245.721 54.3625 245.535 54.1133 245.423 53.8352C244.49 50.0425 243.661 46.2032 242.833 42.3872C242.47 40.8049 243.325 40.2465 244.957 40.3163C245.941 40.3396 246.951 40.3163 247.729 40.3163Z" fill="white"/>
<path d="M183.25 41.4609C179.649 46.9523 179.778 52.4669 180.659 58.1211C180.667 58.4934 180.586 58.8628 180.421 59.2042C180.255 59.5456 180.01 59.8508 179.701 60.0989C178.701 60.7218 177.633 61.252 176.514 61.6812C174.157 54.9333 175.634 44.3695 183.25 41.4609Z" fill="#9155F1"/>
<path d="M204.803 36.0148L207.989 29.9883L208.559 30.2442C208.222 32.5711 208.015 34.9445 204.803 36.0148Z" fill="white"/>
<path d="M278.374 301.924C269.022 306.95 264.826 315.117 261.873 323.796C260.033 329.171 259.282 334.848 257.857 340.689C225.451 330.497 198.147 312.93 174.211 289.964C177.941 286.846 181.387 283.774 185.065 280.912C192.083 275.258 199.926 270.491 208.379 266.742C208.794 266.579 209.208 266.369 209.623 266.23C215.166 264.299 215.451 264.345 219.544 268.208C232.478 280.86 248.221 290.935 265.758 297.782C269.825 299.318 274.048 300.504 278.374 301.924Z" fill="#9155F1"/>
<path d="M168.226 298.109L172.526 302.158C194.159 322.83 220.546 339.02 249.852 349.602C252.805 350.626 255.81 351.557 258.789 352.464C261.198 353.209 261.224 353.162 262.701 356.094C258.582 354.931 254.774 353.954 251.07 352.813C225.095 344.505 201.379 331.34 181.489 314.188C177.06 310.442 172.915 306.393 168.537 302.554C168.175 302.29 167.878 301.962 167.664 301.59C167.45 301.218 167.325 300.811 167.296 300.393C167.266 299.975 167.334 299.556 167.494 299.163C167.654 298.77 167.904 298.411 168.226 298.109Z" fill="#9155F1"/>
<path d="M335.518 86.2955L334.041 85.0623C330.518 81.9908 330.44 81.921 333.316 78.4308C341.612 67.9852 352.08 59.0803 364.142 52.2073C364.313 52.0854 364.495 51.9765 364.686 51.8815C371.603 48.8799 371.085 49.5547 375.515 53.8128C358.573 60.9329 346.527 72.9161 335.518 86.2955Z" fill="#9155F1"/>
<path d="M420.435 103.536C403.881 109.656 389.504 118.707 375.386 128.48L371.086 122.872C371.692 122.66 372.273 122.395 372.822 122.081C384.442 113.568 397.125 106.298 410.617 100.418C417.844 97.3934 416.212 97.5563 420.435 103.536Z" fill="#9155F1"/>
<path d="M350.025 104.914C344.637 104.914 343.005 102.424 345.492 98.4221C348.681 93.8753 352.9 89.9826 357.874 86.9973C366.046 81.2943 375.345 77.0311 385.281 74.4324C387.953 73.8046 390.706 73.4995 393.467 73.5249C397.301 73.5249 398.648 75.5725 397.172 78.737C395.093 82.5038 392.058 85.7795 388.312 88.3003C379.312 95.2678 368.822 100.51 357.486 103.704C356.161 104.065 354.811 104.345 353.445 104.542C352.305 104.751 350.984 104.821 350.025 104.914Z" fill="white"/>
<path d="M358.105 104.817C374.322 98.9771 389.398 92.0664 399.009 78.3613C399.677 78.7913 400.244 79.3355 400.677 79.9627C401.111 80.5899 401.402 81.2878 401.534 82.0163C401.667 82.7448 401.638 83.4897 401.449 84.2081C401.26 84.9265 400.915 85.6044 400.434 86.2028C397.341 90.5493 393.306 94.2923 388.569 97.2087C380.991 102.412 372.522 106.475 363.494 109.238C360.67 110.053 360.696 110.076 359.53 107.61C359.012 106.726 358.598 105.818 358.105 104.817Z" fill="#9155F1"/>
<path d="M410.933 340.292C400.985 340.085 391.421 336.797 383.862 330.984C376.091 325.33 370.314 318.489 369.641 308.856C369.637 307.976 369.804 307.102 370.133 306.273C372.438 302.806 374.433 299.293 377.075 295.942C378.316 294.603 379.857 293.513 381.598 292.743C383.338 291.974 385.24 291.541 387.178 291.475C397.54 290.474 406.581 293.941 414.793 299.27C420.946 303.073 425.785 308.354 428.755 314.51C430.214 317.16 430.808 320.126 430.469 323.066C430.129 326.006 428.871 328.799 426.838 331.124C423.989 334.358 420.984 339.757 410.933 340.292ZM413.29 333.963H415.259C423.497 333.567 428.781 329.472 429.118 322.724C429.194 320.247 428.727 317.78 427.745 315.464C424.01 307.295 417.031 300.661 408.161 296.85C401.564 293.274 393.796 291.852 386.168 292.824C384.289 293.001 382.475 293.544 380.854 294.417C379.234 295.289 377.845 296.47 376.786 297.875C375.727 299.281 375.024 300.878 374.725 302.554C374.425 304.23 374.538 305.944 375.055 307.576C376.333 312.575 379.141 317.153 383.163 320.793C386.974 324.653 391.599 327.798 396.769 330.047C401.94 332.295 407.555 333.602 413.29 333.893V333.963ZM423.652 333.055C419.787 334.78 415.462 335.498 411.166 335.126C403.002 334.411 395.258 331.536 388.914 326.866C384.691 323.771 381.142 320.048 377.024 316.558C373.915 318.652 373.811 319.071 376.169 322.096C379.259 326.071 383.162 329.482 387.67 332.148C395.442 336.801 403.783 339.663 413.29 338.616C415.388 338.462 417.418 337.874 419.22 336.897C421.023 335.92 422.548 334.581 423.678 332.985L423.652 333.055Z" fill="#121212"/>
<path d="M362.407 194.192C362.014 194.356 361.57 194.397 361.148 194.308C360.725 194.22 360.348 194.007 360.076 193.703C359.822 193.504 359.634 193.247 359.532 192.958C359.415 192.602 359.417 192.223 359.536 191.868C359.656 191.512 359.888 191.196 360.205 190.957C364.143 189.515 368.158 188.165 372.199 187.002C372.621 186.914 373.065 186.962 373.452 187.136C373.84 187.31 374.148 187.6 374.323 187.956C374.997 189.259 373.624 190.469 372.795 190.795C369.401 192.004 362.459 194.168 362.407 194.192ZM372.588 189.957C372.848 189.625 372.963 189.218 372.91 188.814C372.858 188.411 372.641 188.039 372.303 187.77C372.215 187.702 372.111 187.653 371.998 187.629C371.885 187.605 371.768 187.605 371.655 187.63C368.158 188.631 364.713 189.771 361.293 191.027C361.16 191.076 361.043 191.157 360.956 191.26C360.81 191.449 360.718 191.668 360.688 191.898C360.659 192.127 360.693 192.359 360.788 192.573C360.883 192.788 361.036 192.978 361.232 193.126C361.429 193.274 361.664 193.377 361.915 193.424C362.052 193.447 362.192 193.447 362.329 193.424C365.645 192.47 368.909 191.376 372.147 190.236C372.327 190.193 372.483 190.094 372.588 189.957Z" fill="#121212"/>
<path d="M413.288 333.895C407.541 333.587 401.919 332.258 396.748 329.985C391.577 327.713 386.958 324.541 383.16 320.655C379.139 317.015 376.33 312.437 375.052 307.439C374.536 305.806 374.423 304.092 374.722 302.416C375.021 300.74 375.725 299.144 376.784 297.738C377.843 296.332 379.231 295.152 380.852 294.279C382.472 293.407 384.286 292.863 386.165 292.687C393.794 291.715 401.562 293.137 408.158 296.712C417.028 300.524 424.007 307.157 427.742 315.327C428.724 317.643 429.191 320.109 429.115 322.587C428.779 329.334 423.494 333.43 415.256 333.825L413.288 333.895Z" fill="#C6E6A3"/>
<path d="M423.672 332.988C422.537 334.567 421.011 335.891 419.214 336.855C417.417 337.819 415.397 338.399 413.31 338.549C403.803 339.596 395.462 336.687 387.691 332.08C383.182 329.414 379.279 326.003 376.189 322.028C373.832 319.003 373.935 318.584 377.044 316.49C381.033 319.98 384.815 323.703 388.934 326.798C395.278 331.469 403.022 334.343 411.186 335.058C415.482 335.43 419.808 334.713 423.672 332.988Z" fill="#C6E6A3"/>
<path d="M372.094 187.609C372.389 187.677 372.655 187.82 372.86 188.023C373.065 188.225 373.199 188.477 373.246 188.747C373.293 189.017 373.25 189.293 373.124 189.542C372.997 189.791 372.793 190 372.535 190.145L372.172 190.308C368.856 191.495 365.514 192.635 362.147 193.589C362.003 193.625 361.851 193.625 361.706 193.589C361.428 193.551 361.166 193.446 360.948 193.286C360.73 193.126 360.563 192.916 360.465 192.679C360.368 192.442 360.342 192.185 360.392 191.936C360.442 191.687 360.565 191.454 360.748 191.262C360.833 191.152 360.949 191.064 361.085 191.006C364.556 189.727 368.105 188.54 371.706 187.493C371.776 187.486 371.847 187.493 371.914 187.513C371.981 187.533 372.043 187.566 372.094 187.609Z" fill="white"/>
<path d="M125.276 50.1142C125.458 53.046 125.82 55.9779 126.105 58.8864C126.39 61.795 125.691 62.6094 122.712 63.5401L121.054 64.0753C120.305 64.2566 119.661 64.6868 119.252 65.2787C118.844 65.8706 118.7 66.5799 118.852 67.263C118.852 68.0309 119.033 68.822 119.059 69.5899C119.159 70.4108 118.93 71.2369 118.412 71.9194C117.895 72.6019 117.123 73.096 116.236 73.3128C113.412 74.1272 110.64 75.151 107.843 76.0585C103.905 77.3383 103.724 77.5477 104.035 81.2939C104.294 84.2024 103.672 85.0634 100.537 86.1104C92.4292 88.8096 84.321 91.4855 76.2387 94.2078C75.4812 94.5227 74.6389 94.6353 73.8122 94.5322C72.9854 94.429 72.2091 94.1145 71.5758 93.6261C66.3949 89.8799 66.2654 89.9265 59.9964 91.9741C59.5414 92.1834 59.0514 92.3249 58.5458 92.3929C57.7634 92.4704 56.9718 92.3745 56.2402 92.1137C53.1317 90.4616 50.049 88.763 47.0181 86.9714C42.718 84.4118 38.4437 81.8291 34.2471 79.1299C33.7851 78.8499 33.394 78.4855 33.0994 78.0605C32.8048 77.6355 32.6133 77.1595 32.5374 76.6635C32.7419 74.8235 32.2532 72.9751 31.1495 71.4141C30.0458 69.8532 28.3909 68.6701 26.4498 68.0542C26.0612 67.8913 25.7503 67.5888 25.3359 67.4027C24.5899 67.0699 23.9677 66.5497 23.5446 65.9054C23.1215 65.261 22.9159 64.5201 22.9526 63.7728C22.2791 56.42 21.5279 49.1369 20.7248 41.8539C20.2844 37.6889 20.5435 37.2003 24.9991 35.8972C27.5896 35.0828 28.0559 34.5011 27.8227 31.9881C27.5637 29.1261 27.2269 26.2641 26.942 23.4021C26.8009 22.923 26.7721 22.4227 26.8572 21.9331C26.9424 21.4434 27.1397 20.9749 27.4367 20.5572C27.7338 20.1395 28.124 19.7818 28.5828 19.5065C29.0416 19.2312 29.559 19.0444 30.1023 18.9578L32.1488 18.3063C32.8276 18.1421 33.4159 17.7602 33.8025 17.2329C34.1891 16.7056 34.3473 16.0693 34.2471 15.4443C34.2471 14.7463 34.0917 14.0249 34.014 13.3036C33.8834 12.8572 33.8548 12.3916 33.9299 11.9349C34.005 11.4783 34.1822 11.04 34.4508 10.6465C34.7195 10.253 35.074 9.91243 35.4931 9.64528C35.9122 9.37813 36.3872 9.18993 36.8894 9.09203C39.6094 8.1613 42.3553 7.2771 45.0753 6.41617C49.2719 5.04333 49.4532 4.81065 49.0128 0.901556C48.859 0.425472 48.8191 -0.074461 48.8957 -0.565392C48.9723 -1.05632 49.1637 -1.52714 49.4573 -1.9469C49.7509 -2.36665 50.14 -2.72585 50.5992 -3.00089C51.0583 -3.27593 51.5771 -3.46058 52.1214 -3.54271C60.2814 -6.26511 68.4673 -8.98751 76.6014 -11.7332C77.3955 -12.1037 78.3002 -12.238 79.1848 -12.1167C80.0695 -11.9954 80.8883 -11.6248 81.5233 -11.0584C85.124 -7.98697 89.1393 -14.0833 97.0661 -9.45288C103.309 -5.89282 109.397 -2.10007 115.769 1.29712C117.502 2.01864 118.946 3.19914 119.91 4.67997C120.873 6.16079 121.308 7.87097 121.158 9.58067C121.17 10.0232 121.284 10.4586 121.494 10.8592C121.703 11.2598 122.003 11.6168 122.375 11.9075C124.318 13.2803 126.494 14.3507 128.463 15.7003C129.239 16.2245 129.773 16.9862 129.965 17.841C130.898 25.9616 131.675 34.1288 132.556 42.2262C132.681 43.0913 132.438 43.967 131.877 44.6786C131.315 45.3902 130.475 45.8855 129.525 46.0655C128.437 46.3913 127.375 46.8101 125.872 47.3453C125.549 48.2431 125.349 49.173 125.276 50.1142ZM64.2966 9.65047C64.4779 14.3042 64.2966 14.4205 59.556 16.026C56.9656 16.8637 54.3751 17.8177 51.7846 18.5855C50.9836 18.7322 50.273 19.1434 49.7933 19.738C49.3136 20.3326 49.0998 21.0672 49.1941 21.7966C49.1941 22.3085 49.1941 22.8437 49.3237 23.3556C49.4726 23.8666 49.5032 24.3996 49.4137 24.9216C49.3242 25.4437 49.1164 25.9437 48.8032 26.3908C48.49 26.8379 48.078 27.2225 47.5928 27.5209C47.1075 27.8193 46.5593 28.0251 45.982 28.1256C41.9667 29.4984 41.8372 29.6846 42.2517 33.5704C42.5107 36.1066 42.7439 38.6429 43.0288 41.1792C43.2183 42.0593 43.0261 42.9712 42.4915 43.7281C41.957 44.4851 41.1205 45.03 40.1534 45.2511C39.454 45.4838 38.8063 45.763 38.1069 45.9492C37.3192 46.1264 36.6366 46.5671 36.1985 47.1812C35.7604 47.7953 35.5998 48.5364 35.7496 49.2533C36.5526 57.2576 37.3816 65.262 38.1846 73.2663C38.34 74.9649 39.2726 75.151 40.7751 74.7089C46.1115 73.1499 46.1374 73.1732 46.6555 78.1294C46.8627 80.4562 47.07 82.5504 47.329 84.7609C47.588 86.9714 48.1839 87.3902 50.5412 86.6456H50.7484C54.9709 85.3193 55.4113 85.5753 55.9294 89.6007C56.2143 91.9275 56.7842 92.1835 59.1934 91.3924L68.0269 88.5536C71.1355 87.5531 71.9903 88.0417 72.3271 90.8805C72.3271 91.1364 72.3271 91.3924 72.3271 91.6483C72.5861 93.9752 73.156 94.3242 75.5393 93.5331L101.03 85.203C101.767 85.0033 102.399 84.5704 102.809 83.9843C103.219 83.3982 103.378 82.6987 103.257 82.0152C103.257 81.3637 103.257 80.7354 103.102 80.0839C102.992 79.6194 102.985 79.1399 103.082 78.673C103.179 78.2061 103.377 77.761 103.666 77.3632C103.955 76.9654 104.328 76.6227 104.765 76.3549C105.202 76.0871 105.693 75.8994 106.211 75.8026L115.225 72.8475C117.816 71.9633 118.438 71.2419 118.23 68.7755C117.894 64.5872 118.23 64.308 122.531 62.7955C125.121 61.9346 125.535 61.2365 125.302 58.7933C125.043 55.9313 124.707 53.0693 124.473 50.2073C124.24 47.3453 124.914 46.8334 127.53 45.9026C131.96 44.3669 131.96 44.3669 131.519 40.039C130.811 32.9344 130.095 25.8453 129.369 18.7717C129.11 16.2122 128.644 15.9562 125.95 16.8404L124.499 17.3058C122.271 17.9108 121.158 17.3058 120.898 15.2116C120.562 12.3031 120.303 9.37126 119.992 6.43944C119.733 4.1126 119.241 3.78684 116.676 4.64777C116.262 4.78738 115.873 4.97353 115.459 5.08987C112.868 5.83446 111.806 5.22948 111.521 2.76303C111.055 -1.05299 111.055 -1.05299 107.039 0.296577L99.009 2.90264C96.4185 3.71703 95.3305 3.13532 95.0197 0.692141C94.5275 -3.19368 94.5275 -3.19368 90.4345 -1.84412L67.3534 5.83446L64.8924 6.71865C64.5779 7.67403 64.3782 8.6569 64.2966 9.65047ZM67.716 4.85719C75.4875 2.18132 83.2589 -0.354939 91.2117 -2.961C91.5935 -3.10376 91.9654 -3.26693 92.3256 -3.44963C91.8983 -3.84259 91.4487 -4.21538 90.9785 -4.56652C87.6109 -6.61414 84.2174 -8.63849 80.8757 -10.6861C80.3614 -11.0394 79.75 -11.2607 79.1067 -11.3263C78.4634 -11.3918 77.8124 -11.2993 77.2231 -11.0584C68.8818 -8.19639 60.4627 -5.49726 52.1214 -2.65851C51.1923 -2.24336 50.4512 -1.553 50.0231 -0.703964C50.0231 -0.424744 50.852 0.529261 51.4997 0.924823C55.3077 3.25166 59.2711 5.5785 62.4574 7.57959C64.1342 6.55839 65.8917 5.64851 67.716 4.85719ZM52.4322 17.585C55.0227 16.5379 57.8204 15.7235 60.7995 14.723C60.454 14.3592 60.0725 14.0243 59.6597 13.7224C56.1107 11.5352 52.6136 9.34798 48.9869 7.2771C48.1529 6.83173 47.1577 6.69805 46.2151 6.9048C43.1065 7.789 40.0498 8.81281 37.0448 9.9297C36.6013 10.1068 36.2027 10.3632 35.8731 10.6833C35.5435 11.0033 35.29 11.3803 35.1279 11.7912C34.9983 12.2565 35.9827 13.1407 36.6562 13.5828C40.4642 15.9097 44.4277 18.2365 47.588 20.2143C49.1405 19.2484 50.7583 18.3703 52.4322 17.585ZM93.2581 -4.07788C94.0695 -3.70793 94.7452 -3.13604 95.2046 -2.43049C95.6639 -1.72495 95.8875 -0.915568 95.8486 -0.0989857C95.9781 2.62342 96.4703 2.83283 99.2939 1.9021L109.241 -1.37875C106.651 -2.86793 92.8177 -9.12713 88.5176 -6.98643C90.2791 -5.86955 91.7038 -4.84574 93.2581 -4.07788ZM39.2208 44.3669C38.8922 44.0698 38.537 43.7975 38.1587 43.5525C34.7047 41.4584 31.2508 39.372 27.7968 37.2933C26.8375 36.8055 25.7161 36.6407 24.6338 36.8283C23.5514 37.0159 22.5788 37.5437 21.8905 38.3171C21.7506 38.6277 21.6986 38.9645 21.7393 39.2975C21.78 39.6306 21.9121 39.9493 22.1237 40.2252C26.1907 42.8312 30.3873 45.2977 34.1694 47.578L39.2208 44.3669ZM45.7229 26.8924C41.5263 24.3794 37.3816 21.7966 33.1332 19.3534C31.9675 18.6786 28.5481 20.0282 28.1077 21.2614C28.0265 21.5429 28.0217 21.8377 28.0938 22.1212C28.166 22.4046 28.3129 22.6684 28.5221 22.8902C32.6151 25.473 36.8117 27.9627 40.6456 30.2895L45.7229 26.8924ZM126.934 15.4908L121.494 12.21C121.572 17.1894 121.935 17.3989 126.934 15.4908ZM112.894 0.575798C112.512 0.48759 112.122 0.433039 111.728 0.41292C112.246 1.9719 112.324 3.64723 113.283 4.48489C113.826 4.95026 115.873 4.04279 117.22 3.76357V3.20513L112.894 0.575798Z" fill="#121212"/>
<path d="M67.3585 5.83242L90.4397 -1.75307C94.5326 -3.10264 94.5326 -3.10264 95.0248 0.783183C95.3357 3.11002 96.3719 3.80807 99.0141 2.99368L106.993 0.38762C111.008 -0.961946 111.008 -0.961948 111.474 2.85407C111.759 5.32052 112.795 5.9255 115.412 5.18091C115.826 5.18091 116.215 4.87842 116.629 4.73881C119.22 3.87788 119.686 4.13383 119.945 6.53047C120.256 9.46229 120.515 12.3941 120.852 15.3027C121.111 17.3735 122.225 18.0018 124.453 17.3968L125.903 16.9314C128.494 16.0472 129.064 16.3032 129.323 18.8627C130.048 25.9363 130.765 33.0254 131.473 40.13C131.913 44.458 131.913 44.458 127.483 45.9937C124.893 46.9244 124.219 47.7388 124.427 50.2983C124.634 52.8578 124.997 56.0223 125.256 58.8844C125.489 61.2112 124.997 62.0256 122.484 62.8865C118.054 64.399 117.847 64.6782 118.184 68.8665C118.391 71.3329 117.847 72.0543 115.179 72.9385L106.216 75.8005C105.69 75.8968 105.191 76.0867 104.748 76.3591C104.306 76.6316 103.928 76.9809 103.639 77.3865C103.349 77.7922 103.152 78.2458 103.061 78.7208C102.97 79.1957 102.985 79.6823 103.107 80.1517C103.107 80.8032 103.237 81.4314 103.263 82.0829C103.363 82.7555 103.194 83.4383 102.786 84.0094C102.378 84.5805 101.757 85.0028 101.035 85.2009L75.8812 93.5077C73.498 94.2988 72.928 93.9266 72.669 91.623C72.669 91.367 72.669 91.1111 72.669 90.8551C72.3322 87.9698 71.4774 87.4812 68.3688 88.5283L59.354 91.3205C56.9448 92.1116 56.3749 91.8091 56.09 89.5288C55.5978 85.5034 55.1574 85.2474 50.909 86.5737H50.7018C48.3444 87.3183 47.7486 86.9926 47.4896 84.689C47.2305 82.3854 47.0233 80.268 46.8161 78.0575C46.298 73.1013 46.2721 73.0781 40.9357 74.6371C39.3296 75.0792 38.3452 74.893 38.3452 73.1944C37.5421 65.1901 36.7132 57.1858 35.9101 49.1814C35.7604 48.4646 35.921 47.7234 36.3591 47.1093C36.7972 46.4952 37.4798 46.0546 38.2675 45.8773C38.9669 45.6912 39.6145 45.412 40.314 45.1793C41.2811 44.9581 42.1175 44.4133 42.6521 43.6563C43.1866 42.8993 43.3789 41.9874 43.1894 41.1073C42.9044 38.5711 42.6713 36.0348 42.4122 33.4985C41.9978 29.6127 42.1273 29.4266 46.1425 28.0537C46.7198 27.9532 47.2681 27.7474 47.7533 27.449C48.2386 27.1506 48.6505 26.766 48.9637 26.3189C49.277 25.8719 49.4847 25.3719 49.5743 24.8498C49.6638 24.3277 49.6332 23.7947 49.4842 23.2837C49.4842 22.7718 49.4842 22.2366 49.3547 21.7247C49.2604 20.9954 49.4742 20.2607 49.9539 19.6662C50.4336 19.0716 51.1442 18.6603 51.9452 18.5137C54.5357 17.7458 57.1261 16.7918 59.7166 15.9542C64.5608 14.3487 64.6385 14.1625 64.4572 9.57864C64.4509 8.61757 64.555 7.65847 64.768 6.71662L67.3585 5.83242Z" fill="white"/>
<path d="M62.4597 7.5562C64.1115 6.53794 65.843 5.6281 67.6406 4.8338C75.4121 2.15793 83.1835 -0.378324 91.1363 -2.98438C91.5181 -3.12715 91.8901 -3.29032 92.2502 -3.47302C91.8229 -3.86597 91.3733 -4.23877 90.9031 -4.58991C87.5355 -6.63752 84.142 -8.66188 80.8003 -10.7095C80.2918 -11.0462 79.6932 -11.2558 79.0652 -11.3171C78.4373 -11.3784 77.8025 -11.2892 77.2254 -11.0585C68.8841 -8.19651 60.465 -5.49737 52.1237 -2.65863C51.1946 -2.24348 50.4535 -1.55312 50.0254 -0.704082C50.0254 -0.424862 50.8543 0.529142 51.502 0.924705C55.31 3.29808 59.1698 5.60166 62.4597 7.5562Z" fill="white"/>
<path d="M47.5909 20.2112C49.1433 19.2452 50.7612 18.3671 52.4351 17.5818C55.0256 16.5347 57.8233 15.7204 60.8023 14.7198C60.4569 14.356 60.0754 14.0212 59.6625 13.7193C56.1136 11.532 52.6164 9.34481 48.9898 7.27393C48.1558 6.82856 47.1605 6.69489 46.218 6.90163C43.1094 7.78583 40.0526 8.80964 37.0477 9.92653C36.6042 10.1037 36.2055 10.3601 35.876 10.6801C35.5464 11.0001 35.2928 11.3771 35.1307 11.788C35.0012 12.2534 35.9856 13.1376 36.6591 13.5797C40.4671 15.953 44.3269 18.2333 47.5909 20.2112Z" fill="white"/>
<path d="M88.5723 -6.96328C90.282 -5.86966 91.7067 -4.84585 93.261 -4.05473C94.0724 -3.68477 94.7481 -3.11288 95.2075 -2.40734C95.6668 -1.7018 95.8904 -0.892416 95.8515 -0.0758333C95.981 2.64657 96.4732 2.85598 99.2968 1.92525L109.244 -1.3556L102.587 -5.35776C101.81 -5.82313 92.7688 -9.10397 88.5723 -6.96328Z" fill="white"/>
<path d="M34.2439 47.5771L39.2176 44.3661C38.889 44.069 38.5337 43.7966 38.1555 43.5517C34.7015 41.4575 31.2476 39.3711 27.7936 37.2925C26.8343 36.8047 25.7129 36.6398 24.6306 36.8274C23.5482 37.015 22.5756 37.5429 21.8873 38.3163C21.7474 38.6268 21.6954 38.9637 21.7361 39.2967C21.7768 39.6297 21.9089 39.9484 22.1205 40.2243C26.2652 42.8304 30.4618 45.2968 34.2439 47.5771Z" fill="white"/>
<path d="M40.6434 30.2882L45.8244 26.891C41.6278 24.3781 37.4831 21.7953 33.2347 19.3521C32.069 18.6773 28.6495 20.0269 28.2092 21.2601C28.1279 21.5416 28.1232 21.8364 28.1953 22.1199C28.2675 22.4033 28.4144 22.6671 28.6236 22.8889C32.613 25.4717 36.8095 27.9614 40.6434 30.2882Z" fill="white"/>
<path d="M121.5 12.2109C121.5 17.2369 121.94 17.4463 126.966 15.5383L121.5 12.2109Z" fill="white"/>
<path d="M117.137 3.08993L112.888 0.576941C112.507 0.488732 112.116 0.434182 111.723 0.414062C112.241 1.97305 112.318 3.64837 113.277 4.48603C113.821 4.9514 115.867 4.04393 117.214 3.76471L117.137 3.08993Z" fill="white"/>
<path d="M61.2154 85.5277L78.9342 68.0996L76.0588 61.026L92.1975 44.7149L89.607 38.2463L103.492 24.0293L106.782 34.4535L114.994 32.5223L110.175 10.3242L86.8611 12.3253L87.0424 20.3994L98.9327 19.2826L80.3331 37.618L83.2862 43.8307L67.7952 59.7463L70.4116 66.4709L58.2363 78.8031L61.2154 85.5277Z" fill="#9155F1"/>
<path d="M65.9844 35.183L72.4208 33.2891L72.1516 29.0721L65.6417 30.9912L65.2257 25.4863L60.0373 26.7742L60.5268 32.6073L53.8945 34.6022L54.2127 38.5162L60.9184 36.6223L61.2121 42.1272L66.4249 40.5868L65.9844 35.183Z" fill="#9155F1"/>
<path d="M306.528 39.8563C297.265 54.228 298.949 59.5228 281.953 66.6741C277.748 67.8749 275.146 66.154 274.772 62.5173C274.646 60.8396 274.864 58.9743 275.411 57.0578C275.957 55.1412 276.818 53.2216 277.93 51.4391C281.218 45.6491 285.26 40.3444 289.768 35.9027C294.276 31.4611 299.139 27.9918 304.011 25.742C306.789 24.3148 309.504 23.8558 311.812 24.4228C313.418 24.8022 314.549 26.0889 314.966 28.0116C315.382 29.9344 315.115 30.6624 314.107 33.0487C313.44 34.8435 307.476 37.6286 306.528 39.8563Z" fill="#F0FFDF"/>
<path d="M396.201 175.256C394.198 175.032 392.209 174.714 390.243 174.302C388.352 173.836 387.782 172.463 388.948 171.137C390.839 168.728 393.575 166.958 396.719 166.111C402.854 164.634 408.815 162.623 414.516 160.108C418.499 158.572 422.661 157.44 426.924 156.734C432.478 155.387 438.285 155.102 443.969 155.896C444.582 155.991 445.166 156.197 445.687 156.501C446.208 156.805 446.655 157.201 447 157.665C447.311 158.316 446.43 159.875 445.601 160.387C442.343 162.587 438.875 164.525 435.239 166.181C423.454 171.168 410.748 174.166 397.755 175.023C397.246 175.046 396.736 175.046 396.227 175.023L396.201 175.256Z" fill="#F0FFDF"/>
<path d="M346.701 45.858C344.576 60.3775 337.815 72.733 322.48 80.2255C316.988 82.8781 311.574 82.3429 308.025 79.2715C306.459 77.8368 305.27 76.1063 304.544 74.2062C303.818 72.3062 303.574 70.2845 303.828 68.2888C304.157 61.9287 306.043 55.7119 309.351 50.0813C312.66 44.4507 317.311 39.5448 322.972 35.713C326.083 33.4003 329.887 31.9671 333.904 31.5945C336.688 31.3214 339.481 32.0301 341.694 33.5711C343.907 35.1122 345.368 37.3651 345.768 39.8548C346.208 41.693 346.338 43.5312 346.701 45.858Z" fill="#F0FFDF"/>
<path d="M181.084 51.3754C181.483 49.0135 182.072 46.6806 182.846 44.3949C185.151 38.5312 191.057 36.1113 198.026 37.8797L199.062 38.1822C200.479 38.4048 201.784 39.0204 202.792 39.9427C203.8 40.8649 204.461 42.0475 204.683 43.3245C206.767 51.5634 212.187 58.8121 219.889 63.6611C221.301 64.4705 222.461 65.5894 223.258 66.9124C224.056 68.2353 224.465 69.7189 224.449 71.2233C224.89 75.4006 223.896 79.5991 221.599 83.2531C220.456 84.906 218.792 86.2158 216.817 87.0156C214.842 87.8154 212.647 88.069 210.512 87.7439C206.375 87.2711 202.484 85.7177 199.321 83.2763C188.208 75.2255 182.457 64.6849 181.084 51.3754Z" fill="#F0FFDF"/>
<path d="M252.225 65.8907C248.202 67.1701 243.813 67.1701 239.79 65.8907C224.429 61.4465 214.041 52.4183 209.87 38.2013C209.249 35.8578 209.196 33.4215 209.715 31.0579C210.212 28.2912 211.82 25.7838 214.235 24.009C216.65 22.2343 219.705 21.3151 222.823 21.4248C229.715 21.4131 236.424 23.4138 241.94 27.1256C242.236 27.481 242.442 27.8896 242.545 28.3234C242.648 28.7572 242.645 29.2059 242.536 29.6386C240.178 39.7055 241.829 50.1964 247.199 59.2825C248.75 61.5595 250.427 63.765 252.225 65.8907Z" fill="#F0FFDF"/>
<path d="M273.466 67.4754C271.726 68.1206 269.836 68.3731 267.962 68.2108C266.088 68.0486 264.286 67.4765 262.715 66.5446C259.1 64.4179 256.227 61.4175 254.426 57.8888C251.562 52.8444 249.857 47.3342 249.412 41.686C248.967 36.0378 249.791 30.3669 251.835 25.0105C253.054 21.9539 254.939 19.1458 257.379 16.7503C259.191 14.8703 261.735 13.6834 264.489 13.4326C267.244 13.1817 270.001 13.8858 272.196 15.4007C276.569 18.2679 279.895 22.2359 281.755 26.8022C281.749 26.8641 281.749 26.9265 281.755 26.9884C282.473 27.9028 282.764 29.0333 282.565 30.1379C282.367 31.2425 281.695 32.2334 280.693 32.8985C274.854 38.3909 270.347 44.9116 267.456 52.0484C266.842 53.7133 266.408 55.4276 266.161 57.1675C265.815 58.5481 265.944 59.9907 266.531 61.3038C267.119 62.617 268.137 63.7387 269.451 64.5203C270.72 65.3347 271.86 66.2887 273.466 67.4754Z" fill="#F0FFDF"/>
<path d="M211.421 90.6728C209.245 93.8838 205.67 94.3259 201.991 94.0932C195.808 93.5695 189.864 91.6833 184.687 88.6019C176.074 84.1348 169.008 77.6108 164.274 69.7545C163.092 67.6325 162.297 65.3545 161.917 63.0066C161.626 61.9477 161.607 60.8432 161.862 59.7767C162.116 58.7103 162.638 57.7098 163.387 56.8512C164.135 55.9925 165.092 55.2981 166.184 54.8206C167.275 54.3431 168.474 54.0949 169.688 54.0948C174.144 53.6062 174.144 53.6993 174.869 57.6549C175.554 63.9786 177.844 70.0771 181.562 75.4821C185.281 80.8871 190.328 85.4548 196.318 88.8346C198.483 90.2143 200.987 91.1023 203.618 91.4225C206.248 91.7426 208.925 91.4854 211.421 90.6728Z" fill="#F0FFDF"/>
<path d="M350.064 104.519C344.676 104.519 343.044 102.03 345.531 98.0276C348.72 93.4808 352.939 89.5881 357.913 86.6028C366.085 80.8998 375.385 76.6365 385.321 74.0379C387.992 73.4101 390.745 73.1049 393.506 73.1304C397.34 73.1304 398.687 75.178 397.211 78.3425C395.132 82.1093 392.097 85.385 388.351 87.9058C379.352 94.8732 368.861 100.115 357.525 103.309C356.2 103.671 354.85 103.951 353.484 104.147C352.344 104.357 351.023 104.426 350.064 104.519Z" fill="#F0FFDF"/>
<path d="M391.642 164.763C386.374 164.818 384.749 162.556 387.132 158.866C390.195 154.67 394.273 151.062 399.101 148.277C407.021 142.971 416.061 138.972 425.744 136.489C428.348 135.887 431.036 135.579 433.736 135.574C437.484 135.534 438.825 137.395 437.42 140.308C435.433 143.778 432.505 146.809 428.873 149.156C420.158 155.628 409.966 160.536 398.921 163.578C397.631 163.922 396.314 164.193 394.98 164.387C393.869 164.59 392.578 164.668 391.642 164.763Z" fill="#F0FFDF"/>
<path d="M369.963 69.4865C358.731 81.0759 347.978 90.0736 338.746 93.5692C335.462 94.7958 334.551 93.4102 335.962 90.2609C336.643 88.8059 337.634 87.1729 338.861 85.4811C340.088 83.7893 341.522 82.0813 343.057 80.4818C347.831 75.3002 352.876 70.5083 357.831 66.4477C362.786 62.387 367.53 59.1574 371.725 56.9889C374.183 55.6268 376.159 55.1101 377.404 55.5041C378.277 55.765 378.428 56.8361 377.825 58.4918C377.221 60.1474 375.911 62.2581 374.169 64.3787C372.918 65.9698 371.593 67.5065 369.963 69.4865Z" fill="#F0FFDF"/>
<path d="M408.831 114.741C394.88 123.618 382.533 130.595 373.97 133.516C370.932 134.544 370.92 133.577 373.488 131.233C374.696 130.149 376.221 128.923 377.95 127.645C379.68 126.366 381.57 125.067 383.485 123.843C389.538 119.884 395.605 116.197 401.253 113.044C406.902 109.892 411.993 107.35 416.163 105.602C418.651 104.511 420.373 104.053 421.11 104.287C421.636 104.44 421.232 105.211 419.985 106.437C418.738 107.663 416.745 109.249 414.426 110.86C412.728 112.066 411 113.237 408.831 114.741Z" fill="#F0FFDF"/>
</g>
<defs>
<clipPath id="clip0_2616_31679">
<rect width="544" height="500" fill="white"/>
</clipPath>
</defs>
</svg>
