<svg width="28" height="29" viewBox="0 0 28 29" fill="none" xmlns="http://www.w3.org/2000/svg">
<mask id="mask0_3818_1904" style="mask-type:alpha" maskUnits="userSpaceOnUse" x="0" y="0" width="28" height="29">
<rect y="0.5" width="28" height="28" fill="#D9D9D9"/>
</mask>
<g mask="url(#mask0_3818_1904)">
<path d="M13.2835 24.4173V22.6673H21.8089C21.9062 22.6673 21.9903 22.6374 22.0615 22.5775C22.1325 22.5178 22.168 22.4393 22.168 22.3421V14.1822C22.168 11.9519 21.37 10.0743 19.774 8.54949C18.1782 7.02465 16.2539 6.26223 14.0013 6.26223C11.7487 6.26223 9.82444 7.02465 8.22863 8.54949C6.63263 10.0743 5.83464 11.9519 5.83464 14.1822V21.0518H4.95964C4.40022 21.0518 3.92014 20.857 3.51939 20.4676C3.11844 20.0779 2.91797 19.6034 2.91797 19.0439V16.778C2.91797 16.3996 3.02569 16.0529 3.24114 15.7379C3.45658 15.4231 3.73775 15.17 4.08464 14.9787L4.13859 13.4889C4.23426 12.2189 4.56404 11.0426 5.12793 9.95969C5.69182 8.87683 6.41495 7.93416 7.29734 7.13169C8.17993 6.32922 9.19852 5.70398 10.3531 5.25598C11.5079 4.80798 12.724 4.58398 14.0013 4.58398C15.2786 4.58398 16.4916 4.80798 17.6404 5.25598C18.7892 5.70398 19.8078 6.32621 20.6962 7.12265C21.5846 7.9191 22.3078 8.85875 22.8656 9.94161C23.4235 11.0247 23.7563 12.2011 23.864 13.4708L23.918 14.9314C24.2575 15.0915 24.5368 15.3203 24.7559 15.618C24.9751 15.9157 25.0846 16.2477 25.0846 16.6141V19.2189C25.0846 19.5853 24.9751 19.9173 24.7559 20.215C24.5368 20.5127 24.2575 20.7415 23.918 20.9016V22.3421C23.918 22.9163 23.712 23.4057 23.2999 23.8104C22.8877 24.215 22.3907 24.4173 21.8089 24.4173H13.2835ZM10.7256 16.5648C10.44 16.5648 10.1965 16.4679 9.99526 16.2743C9.7942 16.0806 9.69368 15.8409 9.69368 15.555C9.69368 15.2694 9.7942 15.0279 9.99526 14.8305C10.1965 14.633 10.44 14.5342 10.7256 14.5342C11.0114 14.5342 11.2549 14.633 11.4559 14.8305C11.6572 15.0279 11.7578 15.2694 11.7578 15.555C11.7578 15.8409 11.6572 16.0806 11.4559 16.2743C11.2549 16.4679 11.0114 16.5648 10.7256 16.5648ZM17.277 16.5648C16.9912 16.5648 16.7477 16.4679 16.5467 16.2743C16.3454 16.0806 16.2448 15.8409 16.2448 15.555C16.2448 15.2694 16.3454 15.0279 16.5467 14.8305C16.7477 14.633 16.9912 14.5342 17.277 14.5342C17.5626 14.5342 17.8061 14.633 18.0073 14.8305C18.2084 15.0279 18.3089 15.2694 18.3089 15.555C18.3089 15.8409 18.2084 16.0806 18.0073 16.2743C17.8061 16.4679 17.5626 16.5648 17.277 16.5648ZM7.43443 14.734C7.31329 12.83 7.90557 11.2007 9.21126 9.84623C10.517 8.49193 12.1331 7.81478 14.0596 7.81478C15.678 7.81478 17.106 8.31547 18.3436 9.31686C19.5815 10.3182 20.3327 11.6146 20.5973 13.2059C18.9401 13.1865 17.4088 12.7513 16.0036 11.9004C14.5983 11.0494 13.5196 9.88269 12.7673 8.40044C12.4711 9.85119 11.8505 11.1337 10.9053 12.2481C9.95987 13.3625 8.80293 14.1911 7.43443 14.734Z" fill="#121212"/>
</g>
</svg>
