<svg width="52" height="57" viewBox="0 0 52 57" fill="none" xmlns="http://www.w3.org/2000/svg">
<g clip-path="url(#clip0_2616_30738)">
<path d="M2.67578 24.8646L3.1237 24.6387C2.9641 24.7003 2.81479 24.7722 2.67578 24.8646Z" fill="white" stroke="black"/>
<path d="M40.0958 42.2161L37.2229 38.6421L35.5548 36.5675L32.5275 32.8034L31.3176 31.2988L27.5849 31.6429L22.2305 32.1359V44.2085L22.4982 44.5423L31.3176 55.5111L40.4047 54.6176V42.6013L40.0958 42.2161ZM29.7988 49.6107L25.2578 43.9313V37.6355L25.8962 38.4366L28.419 41.5845L28.8566 42.134L29.7988 43.3099V49.6107ZM30.9315 41.1018L29.2839 39.0529L26.5707 35.6739L28.1873 35.5405L31.3176 35.2888L32.5275 36.7832L34.5612 39.2891L34.9525 39.7718L36.0594 41.1377L34.3192 41.3021L31.3176 41.5845L30.9315 41.1018ZM37.3723 50.9099L32.8313 51.295V44.9994L36.9655 44.5936L37.3723 44.5526V50.9099Z" fill="#C6E6A3" stroke="black"/>
<path d="M37.373 49.0312V50.9107L32.832 51.2958L37.373 49.0312Z" fill="white" stroke="black"/>
<path d="M37.373 45.097V49.0305L32.832 51.2951V44.9994L36.9663 44.5938L37.373 45.097Z" fill="white" stroke="black"/>
<path d="M29.7988 43.3088V49.6096L25.2578 43.9301L28.8566 42.1328L29.7988 43.3088Z" fill="white" stroke="black"/>
<path d="M28.8566 42.1351L25.2578 43.9324V37.6367L25.8962 38.4378L28.419 41.5856L28.8566 42.1351Z" fill="white" stroke="black"/>
<path d="M36.0621 41.1394L34.3219 41.3037L31.3203 41.5861L33.6268 40.4359L34.9552 39.7734L36.0621 41.1394Z" fill="white" stroke="black"/>
<path d="M34.9521 39.772L33.6238 40.4345L31.3172 41.5847L30.9311 41.102L29.2836 39.0531L26.5703 35.6742L28.1869 35.5407L31.3172 35.2891L32.5271 36.7834L34.5608 39.2893L34.9521 39.772Z" fill="white" stroke="black"/>
<path d="M50.7033 37.4648V49.4811L40.4062 54.6163V42.6L43.1298 41.2443L46.5742 39.524L50.7033 37.4648Z" fill="white" stroke="black"/>
<path d="M22.2316 32.1372V44.2099L22.4994 44.5437L19.7037 45.9353C18.257 42.6386 17.4487 39.5728 17.2839 36.7382C17.217 35.6188 17.2376 34.5456 17.356 33.5186C17.5259 31.9575 17.9069 30.5093 18.4938 29.1742L28.7909 24.0391C28.0701 25.6823 27.6582 27.4951 27.5655 29.4772L22.2316 32.1372Z" fill="white" stroke="black"/>
<path d="M19.7049 45.9345L1.03125 35.1764V28.7062C1.03125 27.4378 1.31442 26.4056 1.8859 25.6199C2.11244 25.3067 2.36986 25.0551 2.66848 24.8702H2.67877L3.1267 24.6391L3.15759 24.6237C3.48194 24.5056 3.86293 24.444 4.25937 24.444C5.97382 24.4286 7.90967 24.6956 10.0669 25.2451C10.4788 25.3478 10.901 25.471 11.3283 25.6097C13.1354 26.1951 15.0867 27.0937 17.1821 28.3005L17.8875 28.7113C18.0934 28.8243 18.2942 28.9834 18.495 29.1734C17.9081 30.5086 17.5271 31.9567 17.3572 33.5178C17.2388 34.5448 17.2182 35.618 17.2851 36.7375C17.4499 39.5721 18.2582 42.6378 19.7049 45.9345Z" fill="#9155F1" stroke="black"/>
<path d="M28.7907 24.0374L18.4937 29.1725C18.2929 28.9825 18.0921 28.8233 17.8862 28.7103L17.1808 28.2995C15.0854 27.0928 13.1341 26.1941 11.327 25.6087C10.8996 25.4701 10.4775 25.3468 10.0656 25.2441C7.90835 24.6947 5.97251 24.4276 4.25803 24.443C3.8616 24.443 3.48061 24.5047 3.15625 24.6228L11.6925 20.3555C11.7852 20.5095 11.8779 20.6584 11.9757 20.8074C13.4533 23.1182 15.1884 24.8436 17.1808 25.9887C19.405 27.2674 21.3048 27.4574 22.8854 26.5587L28.4767 23.7703C28.5848 23.8474 28.6878 23.9398 28.7907 24.0374Z" fill="white" stroke="black"/>
<path d="M25.2576 21.3992C25.2576 21.5943 25.2525 21.7843 25.2422 21.9692C25.1289 24.203 24.3412 25.7281 22.8841 26.56C21.3035 27.4587 19.4037 27.2687 17.1796 25.99C15.1871 24.8449 13.4521 23.1195 11.9744 20.8087C11.8766 20.6597 11.7839 20.5108 11.6913 20.3568C11.6192 20.2387 11.5471 20.1154 11.475 19.9922C9.89443 17.2706 9.10156 14.6362 9.10156 12.0943C9.10156 9.55245 9.89443 7.83218 11.475 6.93353L11.8251 6.75893C13.3336 6.06569 15.1202 6.31731 17.1796 7.50353C18.0445 7.9965 18.858 8.6025 19.62 9.32142C20.8299 10.446 21.9162 11.8376 22.8841 13.5014C23.9808 15.3911 24.6964 17.2397 25.0362 19.037C25.1855 19.833 25.2576 20.6187 25.2576 21.3992Z" fill="#9155F1" stroke="black"/>
<path d="M35.5576 16.2642C35.5576 18.8061 34.7648 20.5263 33.1842 21.425L32.8341 21.5996L28.4784 23.7718L22.8871 26.5601C24.3442 25.7282 25.1319 24.2031 25.2452 21.9693C25.2555 21.7845 25.2606 21.5945 25.2606 21.3994C25.2606 20.6188 25.1885 19.8332 25.0392 19.0372C24.6994 17.2399 23.9838 15.3913 22.8871 13.5015C21.9192 11.8378 20.8329 10.4461 19.623 9.32153C18.861 8.60262 18.0475 7.99667 17.1826 7.5037C15.1232 6.31748 13.3366 6.06581 11.8281 6.75905L21.7751 1.79855C23.3556 0.899898 25.2606 1.08989 27.4796 2.36854C29.7038 3.64719 31.6036 5.64991 33.1842 8.3664C34.7648 11.088 35.5576 13.7223 35.5576 16.2642Z" fill="white" stroke="black"/>
<path d="M41.6146 26.1641L32.5275 30.6983L31.3176 31.2992L27.5849 31.6433L22.2305 32.1362L27.5643 29.4762L32.5275 27.0011L41.6146 26.1641Z" fill="white" stroke="black"/>
<path d="M50.7045 37.4665L46.5754 39.5256L43.131 41.246L40.4074 42.6016L40.0985 42.2165L37.2257 38.6424L35.5575 36.5678L32.5302 32.8038L31.3203 31.2992L32.5302 30.6983L41.6173 26.1641L50.7045 37.4665Z" fill="white" stroke="black"/>
</g>
<defs>
<clipPath id="clip0_2616_30738">
<rect width="52" height="57" fill="white"/>
</clipPath>
</defs>
</svg>
