<svg width="20" height="20" viewBox="0 0 20 20" fill="none" xmlns="http://www.w3.org/2000/svg">
<mask id="mask0_6588_3644" style="mask-type:alpha" maskUnits="userSpaceOnUse" x="0" y="0" width="20" height="20">
<rect width="20" height="20" fill="#D9D9D9"/>
</mask>
<g mask="url(#mask0_6588_3644)">
<path d="M3.33268 15.8333V14.1667H4.99935V8.33333C4.99935 7.18056 5.34657 6.15625 6.04102 5.26042C6.73546 4.36458 7.63824 3.77778 8.74935 3.5V2.91667C8.74935 2.56944 8.87088 2.27431 9.11393 2.03125C9.35699 1.78819 9.65213 1.66667 9.99935 1.66667C10.3466 1.66667 10.6417 1.78819 10.8848 2.03125C11.1278 2.27431 11.2493 2.56944 11.2493 2.91667V3.5C12.3605 3.77778 13.2632 4.36458 13.9577 5.26042C14.6521 6.15625 14.9993 7.18056 14.9993 8.33333V14.1667H16.666V15.8333H3.33268ZM9.99935 18.3333C9.54102 18.3333 9.14865 18.1701 8.82227 17.8438C8.49588 17.5174 8.33268 17.125 8.33268 16.6667H11.666C11.666 17.125 11.5028 17.5174 11.1764 17.8438C10.85 18.1701 10.4577 18.3333 9.99935 18.3333ZM1.66602 8.33333C1.66602 6.94445 1.97504 5.67014 2.5931 4.51042C3.21115 3.35069 4.04102 2.38889 5.08268 1.625L6.06185 2.95833C5.22852 3.56944 4.56532 4.34028 4.07227 5.27083C3.57921 6.20139 3.33268 7.22222 3.33268 8.33333H1.66602ZM16.666 8.33333C16.666 7.22222 16.4195 6.20139 15.9264 5.27083C15.4334 4.34028 14.7702 3.56944 13.9368 2.95833L14.916 1.625C15.9577 2.38889 16.7875 3.35069 17.4056 4.51042C18.0237 5.67014 18.3327 6.94445 18.3327 8.33333H16.666Z" fill="#00A419"/>
</g>
</svg>
