<svg width="16" height="17" viewBox="0 0 16 17" fill="none" xmlns="http://www.w3.org/2000/svg">
<mask id="mask0_5780_15720" style="mask-type:alpha" maskUnits="userSpaceOnUse" x="0" y="0" width="16" height="17">
<rect y="0.5" width="16" height="16" fill="#D9D9D9"/>
</mask>
<g mask="url(#mask0_5780_15720)">
<path d="M4.20517 14.8333C3.87272 14.8333 3.58872 14.7155 3.35317 14.4801C3.11772 14.2445 3 13.9605 3 13.6281V7.37175C3 7.03931 3.11772 6.75531 3.35317 6.51975C3.58872 6.28431 3.87272 6.16659 4.20517 6.16659H5V4.83325C5 4.00081 5.29189 3.2927 5.87567 2.70892C6.45944 2.12514 7.16756 1.83325 8 1.83325C8.83244 1.83325 9.54056 2.12514 10.1243 2.70892C10.7081 3.2927 11 4.00081 11 4.83325V6.16659H11.7948C12.1273 6.16659 12.4113 6.28431 12.6468 6.51975C12.8823 6.75531 13 7.03931 13 7.37175V13.6281C13 13.9605 12.8823 14.2445 12.6468 14.4801C12.4113 14.7155 12.1273 14.8333 11.7948 14.8333H4.20517ZM4.20517 13.8333H11.7948C11.8547 13.8333 11.9039 13.814 11.9423 13.7756C11.9808 13.7371 12 13.688 12 13.6281V7.37175C12 7.31186 11.9808 7.2627 11.9423 7.22425C11.9039 7.18581 11.8547 7.16659 11.7948 7.16659H4.20517C4.14528 7.16659 4.09611 7.18581 4.05767 7.22425C4.01922 7.2627 4 7.31186 4 7.37175V13.6281C4 13.688 4.01922 13.7371 4.05767 13.7756C4.09611 13.814 4.14528 13.8333 4.20517 13.8333ZM8 11.6666C8.32389 11.6666 8.59933 11.5531 8.82633 11.3263C9.05322 11.0993 9.16667 10.8238 9.16667 10.4999C9.16667 10.176 9.05322 9.90059 8.82633 9.67359C8.59933 9.4467 8.32389 9.33325 8 9.33325C7.67611 9.33325 7.40067 9.4467 7.17367 9.67359C6.94678 9.90059 6.83333 10.176 6.83333 10.4999C6.83333 10.8238 6.94678 11.0993 7.17367 11.3263C7.40067 11.5531 7.67611 11.6666 8 11.6666ZM6 6.16659H10V4.83325C10 4.2777 9.80556 3.80547 9.41667 3.41659C9.02778 3.0277 8.55556 2.83325 8 2.83325C7.44444 2.83325 6.97222 3.0277 6.58333 3.41659C6.19444 3.80547 6 4.2777 6 4.83325V6.16659Z" fill="#8D8D8D"/>
</g>
</svg>
