<svg width="20" height="20" viewBox="0 0 20 20" fill="none" xmlns="http://www.w3.org/2000/svg">
<mask id="mask0_2616_29243" style="mask-type:alpha" maskUnits="userSpaceOnUse" x="0" y="0" width="20" height="20">
<rect width="20" height="20" fill="#D9D9D9"/>
</mask>
<g mask="url(#mask0_2616_29243)">
<path d="M16.9773 10.6253H7.1488V9.37533H16.9773L15.4613 7.85928L16.3394 6.95553L19.3842 10.0003L16.3394 13.0451L15.4613 12.1414L16.9773 10.6253ZM12.6696 7.38803V4.42345C12.6696 4.34859 12.6456 4.28713 12.5976 4.23908C12.5494 4.19102 12.4879 4.16699 12.4132 4.16699H4.42443C4.34957 4.16699 4.28811 4.19102 4.24005 4.23908C4.192 4.28713 4.16797 4.34859 4.16797 4.42345V15.5772C4.16797 15.6521 4.192 15.7135 4.24005 15.7616C4.28811 15.8096 4.34957 15.8337 4.42443 15.8337H12.4132C12.4879 15.8337 12.5494 15.8096 12.5976 15.7616C12.6456 15.7135 12.6696 15.6521 12.6696 15.5772V12.6126H13.9196V15.5772C13.9196 15.9928 13.7724 16.3478 13.478 16.6422C13.1837 16.9365 12.8287 17.0837 12.4132 17.0837H4.42443C4.00887 17.0837 3.65387 16.9365 3.35943 16.6422C3.06512 16.3478 2.91797 15.9928 2.91797 15.5772V4.42345C2.91797 4.00789 3.06512 3.6529 3.35943 3.35845C3.65387 3.06415 4.00887 2.91699 4.42443 2.91699H12.4132C12.8287 2.91699 13.1837 3.06415 13.478 3.35845C13.7724 3.6529 13.9196 4.00789 13.9196 4.42345V7.38803H12.6696Z" fill="#FE1C1E"/>
</g>
</svg>
