<svg width="20" height="20" viewBox="0 0 20 20" fill="none" xmlns="http://www.w3.org/2000/svg">
<mask id="mask0_2616_29169" style="mask-type:alpha" maskUnits="userSpaceOnUse" x="0" y="0" width="20" height="20">
<rect width="20" height="20" fill="#D9D9D9"/>
</mask>
<g mask="url(#mask0_2616_29169)">
<path d="M11.4589 10.5933C10.8766 10.5933 10.3839 10.3917 9.98052 9.98835C9.57719 9.58501 9.37552 9.09224 9.37552 8.51001C9.37552 7.92779 9.57719 7.43501 9.98052 7.03168C10.3839 6.62835 10.8766 6.42668 11.4589 6.42668C12.0411 6.42668 12.5339 6.62835 12.9372 7.03168C13.3405 7.43501 13.5422 7.92779 13.5422 8.51001C13.5422 9.09224 13.3405 9.58501 12.9372 9.98835C12.5339 10.3917 12.0411 10.5933 11.4589 10.5933ZM5.96198 13.1736C5.54781 13.1736 5.19323 13.0261 4.89823 12.7311C4.60323 12.4361 4.45573 12.0814 4.45573 11.6671V5.35293C4.45573 4.93876 4.60323 4.58418 4.89823 4.28918C5.19323 3.99418 5.54781 3.84668 5.96198 3.84668H16.9555C17.3698 3.84668 17.7245 3.99418 18.0195 4.28918C18.3145 4.58418 18.462 4.93876 18.462 5.35293V11.6671C18.462 12.0814 18.3145 12.4361 18.0195 12.7311C17.7245 13.0261 17.3698 13.1736 16.9555 13.1736H5.96198ZM7.21198 11.9236H15.7057C15.7057 11.508 15.8532 11.153 16.1482 10.8586C16.4432 10.5642 16.7978 10.4171 17.212 10.4171V6.60293C16.7964 6.60293 16.4415 6.45543 16.1472 6.16043C15.8529 5.86543 15.7057 5.51085 15.7057 5.09668H7.21198C7.21198 5.51224 7.06448 5.86717 6.76948 6.16147C6.47448 6.45578 6.1199 6.60293 5.70573 6.60293V10.4171C6.12128 10.4171 6.47621 10.5646 6.77052 10.8596C7.06483 11.1546 7.21198 11.5092 7.21198 11.9236ZM15.978 16.0902H3.04552C2.63122 16.0902 2.27656 15.9427 1.98156 15.6477C1.68656 15.3527 1.53906 14.9981 1.53906 14.5838V6.33064H2.78906V14.5838C2.78906 14.6478 2.81573 14.7065 2.86906 14.76C2.92253 14.8135 2.98135 14.8402 3.04552 14.8402H15.978V16.0902ZM5.96198 11.9236H5.70573V5.09668H5.96198C5.89253 5.09668 5.83247 5.12203 5.78177 5.17272C5.73108 5.22342 5.70573 5.28349 5.70573 5.35293V11.6671C5.70573 11.7365 5.73108 11.7966 5.78177 11.8473C5.83247 11.8981 5.89253 11.9236 5.96198 11.9236Z" fill="#9155F1"/>
</g>
</svg>
