<svg width="64" height="65" viewBox="0 0 64 65" fill="none" xmlns="http://www.w3.org/2000/svg">
<mask id="mask0_2616_20047" style="mask-type:alpha" maskUnits="userSpaceOnUse" x="0" y="0" width="64" height="65">
<rect y="0.5" width="64" height="64" fill="#D9D9D9"/>
</mask>
<g mask="url(#mask0_2616_20047)">
<path d="M48.6673 36.5007V28.5007H40.6673V25.834H48.6673V17.834H51.334V25.834H59.334V28.5007H51.334V36.5007H48.6673ZM24.0007 30.8594C21.8007 30.8594 19.9173 30.076 18.3507 28.5094C16.784 26.9427 16.0007 25.0594 16.0007 22.8594C16.0007 20.6594 16.784 18.776 18.3507 17.2094C19.9173 15.6427 21.8007 14.8594 24.0007 14.8594C26.2007 14.8594 28.084 15.6427 29.6507 17.2094C31.2173 18.776 32.0007 20.6594 32.0007 22.8594C32.0007 25.0594 31.2173 26.9427 29.6507 28.5094C28.084 30.076 26.2007 30.8594 24.0007 30.8594ZM5.33398 50.142V45.752C5.33398 44.6512 5.65443 43.6212 6.29532 42.662C6.93665 41.7034 7.7991 40.9589 8.88265 40.4287C11.3991 39.222 13.9171 38.3169 16.4367 37.7134C18.9562 37.1103 21.4775 36.8087 24.0007 36.8087C26.5238 36.8087 29.0451 37.1103 31.5647 37.7134C34.0842 38.3169 36.6022 39.222 39.1187 40.4287C40.2022 40.9589 41.0647 41.7034 41.706 42.662C42.3469 43.6212 42.6673 44.6512 42.6673 45.752V50.142H5.33398ZM8.00065 47.4754H40.0007V45.752C40.0007 45.1605 39.81 44.6049 39.4286 44.0854C39.0478 43.5658 38.5204 43.1265 37.8467 42.7674C35.652 41.7043 33.3891 40.8898 31.058 40.324C28.7269 39.7583 26.3744 39.4754 24.0007 39.4754C21.6269 39.4754 19.2744 39.7583 16.9433 40.324C14.6122 40.8898 12.3493 41.7043 10.1547 42.7674C9.48087 43.1265 8.95354 43.5658 8.57265 44.0854C8.19132 44.6049 8.00065 45.1605 8.00065 45.752V47.4754ZM24.0007 28.1927C25.4673 28.1927 26.7229 27.6705 27.7673 26.626C28.8118 25.5816 29.334 24.326 29.334 22.8594C29.334 21.3927 28.8118 20.1372 27.7673 19.0927C26.7229 18.0483 25.4673 17.526 24.0007 17.526C22.534 17.526 21.2784 18.0483 20.234 19.0927C19.1895 20.1372 18.6673 21.3927 18.6673 22.8594C18.6673 24.326 19.1895 25.5816 20.234 26.626C21.2784 27.6705 22.534 28.1927 24.0007 28.1927Z" fill="#8D8D8D"/>
</g>
</svg>
