<svg width="20" height="20" viewBox="0 0 20 20" fill="none" xmlns="http://www.w3.org/2000/svg">
<mask id="mask0_2616_29180" style="mask-type:alpha" maskUnits="userSpaceOnUse" x="0" y="0" width="20" height="20">
<rect width="20" height="20" fill="#D9D9D9"/>
</mask>
<g mask="url(#mask0_2616_29180)">
<path d="M14.0033 17.9163C13.3795 17.9163 12.8499 17.6982 12.4145 17.262C11.9793 16.8257 11.7616 16.296 11.7616 15.6728C11.7616 15.5895 11.7904 15.387 11.8481 15.0653L5.92182 11.5765C5.72099 11.7849 5.48238 11.9481 5.20599 12.0661C4.9296 12.1842 4.63349 12.2432 4.31766 12.2432C3.69668 12.2432 3.16884 12.0242 2.73411 11.5861C2.29939 11.1481 2.08203 10.6193 2.08203 9.99967C2.08203 9.38009 2.29939 8.85127 2.73411 8.41322C3.16884 7.97516 3.69668 7.75613 4.31766 7.75613C4.63349 7.75613 4.9296 7.81516 5.20599 7.93322C5.48238 8.05127 5.72099 8.21447 5.92182 8.4228L11.8481 4.94197C11.815 4.83947 11.7923 4.73905 11.7799 4.64072C11.7677 4.54238 11.7616 4.43766 11.7616 4.32655C11.7616 3.70335 11.9799 3.17363 12.4164 2.73738C12.8531 2.30113 13.3833 2.08301 14.007 2.08301C14.6308 2.08301 15.1603 2.30134 15.5956 2.73801C16.031 3.17454 16.2487 3.70467 16.2487 4.32842C16.2487 4.95218 16.0306 5.48176 15.5943 5.91717C15.1581 6.35245 14.6284 6.57009 14.0052 6.57009C13.6878 6.57009 13.3927 6.50974 13.1197 6.38905C12.8467 6.26835 12.6097 6.10384 12.4089 5.89551L6.48266 9.38426C6.51571 9.4869 6.53842 9.58731 6.55078 9.68551C6.563 9.78384 6.56911 9.88856 6.56911 9.99967C6.56911 10.1108 6.563 10.2155 6.55078 10.3138C6.53842 10.412 6.51571 10.5125 6.48266 10.6151L12.4089 14.1038C12.6097 13.8955 12.8467 13.731 13.1197 13.6103C13.3927 13.4896 13.6878 13.4293 14.0052 13.4293C14.6284 13.4293 15.1581 13.6475 15.5943 14.084C16.0306 14.5207 16.2487 15.0509 16.2487 15.6747C16.2487 16.2984 16.0304 16.8279 15.5937 17.2632C15.1572 17.6986 14.627 17.9163 14.0033 17.9163ZM14.0052 16.6663C14.2867 16.6663 14.5227 16.5711 14.7131 16.3807C14.9035 16.1903 14.9987 15.9543 14.9987 15.6728C14.9987 15.3913 14.9035 15.1553 14.7131 14.9649C14.5227 14.7743 14.2867 14.679 14.0052 14.679C13.7236 14.679 13.4877 14.7743 13.2972 14.9649C13.1067 15.1553 13.0114 15.3913 13.0114 15.6728C13.0114 15.9543 13.1067 16.1903 13.2972 16.3807C13.4877 16.5711 13.7236 16.6663 14.0052 16.6663ZM4.31766 10.9932C4.60141 10.9932 4.83925 10.898 5.0312 10.7076C5.22328 10.5172 5.31932 10.2812 5.31932 9.99967C5.31932 9.71815 5.22328 9.48217 5.0312 9.29176C4.83925 9.10134 4.60141 9.00613 4.31766 9.00613C4.03835 9.00613 3.80425 9.10134 3.61536 9.29176C3.42648 9.48217 3.33203 9.71815 3.33203 9.99967C3.33203 10.2812 3.42648 10.5172 3.61536 10.7076C3.80425 10.898 4.03835 10.9932 4.31766 10.9932ZM14.0052 5.3203C14.2867 5.3203 14.5227 5.22502 14.7131 5.03447C14.9035 4.84405 14.9987 4.60808 14.9987 4.32655C14.9987 4.04502 14.9035 3.80905 14.7131 3.61863C14.5227 3.42822 14.2867 3.33301 14.0052 3.33301C13.7236 3.33301 13.4877 3.42822 13.2972 3.61863C13.1067 3.80905 13.0114 4.04502 13.0114 4.32655C13.0114 4.60808 13.1067 4.84405 13.2972 5.03447C13.4877 5.22502 13.7236 5.3203 14.0052 5.3203Z" fill="#9155F1"/>
</g>
</svg>
