<svg width="52" height="57" viewBox="0 0 52 57" fill="none" xmlns="http://www.w3.org/2000/svg">
<path d="M2.67578 24.8666L3.1237 24.6406C2.9641 24.7022 2.81479 24.7741 2.67578 24.8666Z" fill="white" stroke="black"/>
<path d="M32 39.5L22.4994 44.5437L19.7037 45.9353C18.257 42.6386 17.4487 39.5728 17.2839 36.7382C17.217 35.6188 17.2376 34.5456 17.356 33.5186C17.5259 31.9575 17.9069 30.5093 18.4938 29.1742L28.7909 24.0391C28.0701 25.6823 27.6582 27.4951 27.5655 29.4772L32 39.5Z" fill="white" stroke="black"/>
<path d="M19.7049 45.9365L1.03125 35.1784V28.7081C1.03125 27.4397 1.31442 26.4076 1.8859 25.6219C2.11244 25.3086 2.36986 25.057 2.66848 24.8722H2.67877L3.1267 24.6411L3.15759 24.6257C3.48194 24.5076 3.86293 24.4459 4.25937 24.4459C5.97382 24.4305 7.90967 24.6976 10.0669 25.247C10.4788 25.3497 10.901 25.473 11.3283 25.6116C13.1354 26.197 15.0867 27.0957 17.1821 28.3024L17.8875 28.7132C18.0934 28.8262 18.2942 28.9854 18.495 29.1754C17.9081 30.5105 17.5271 31.9586 17.3572 33.5197C17.2388 34.5468 17.2182 35.62 17.2851 36.7395C17.4499 39.5741 18.2582 42.6397 19.7049 45.9365Z" fill="#9155F1" stroke="black"/>
<path d="M28.7907 24.0374L18.4937 29.1725C18.2929 28.9825 18.0921 28.8233 17.8862 28.7103L17.1808 28.2995C15.0854 27.0928 13.1341 26.1941 11.327 25.6087C10.8996 25.4701 10.4775 25.3468 10.0656 25.2441C7.90835 24.6947 5.97251 24.4276 4.25803 24.443C3.8616 24.443 3.48061 24.5047 3.15625 24.6228L11.6925 20.3555C11.7852 20.5095 11.8779 20.6584 11.9757 20.8074C13.4533 23.1182 15.1884 24.8436 17.1808 25.9887C19.405 27.2674 21.3048 27.4574 22.8854 26.5587L28.4767 23.7703C28.5848 23.8474 28.6878 23.9398 28.7907 24.0374Z" fill="white" stroke="black"/>
<path d="M25.2576 21.3973C25.2576 21.5924 25.2525 21.7824 25.2422 21.9673C25.1289 24.201 24.3412 25.7262 22.8841 26.5581C21.3035 27.4567 19.4037 27.2667 17.1796 25.9881C15.1871 24.8429 13.4521 23.1175 11.9744 20.8067C11.8766 20.6578 11.7839 20.5089 11.6913 20.3548C11.6192 20.2367 11.5471 20.1135 11.475 19.9902C9.89443 17.2686 9.10156 14.6343 9.10156 12.0924C9.10156 9.55049 9.89443 7.83022 11.475 6.93158L11.8251 6.75698C13.3336 6.06374 15.1202 6.31536 17.1796 7.50158C18.0445 7.99455 18.858 8.60055 19.62 9.31946C20.8299 10.4441 21.9162 11.8356 22.8841 13.4994C23.9808 15.3891 24.6964 17.2378 25.0362 19.0351C25.1855 19.831 25.2576 20.6167 25.2576 21.3973Z" fill="#9155F1" stroke="black"/>
<path d="M35.5576 16.2642C35.5576 18.8061 34.7648 20.5263 33.1842 21.425L32.8341 21.5996L28.4784 23.7718L22.8871 26.5601C24.3442 25.7282 25.1319 24.2031 25.2452 21.9693C25.2555 21.7845 25.2606 21.5945 25.2606 21.3994C25.2606 20.6188 25.1885 19.8332 25.0392 19.0372C24.6994 17.2399 23.9838 15.3913 22.8871 13.5015C21.9192 11.8378 20.8329 10.4461 19.623 9.32153C18.861 8.60262 18.0475 7.99667 17.1826 7.5037C15.1232 6.31748 13.3366 6.06581 11.8281 6.75905L21.7751 1.79855C23.3556 0.899898 25.2606 1.08989 27.4796 2.36854C29.7038 3.64719 31.6036 5.64991 33.1842 8.3664C34.7648 11.088 35.5576 13.7223 35.5576 16.2642Z" fill="white" stroke="black"/>
<g clip-path="url(#clip0_5781_17569)">
<path d="M38.5147 40.4943L36.3743 41.0114L39.0252 52.38L31.9839 42.26L24.9397 44.3257L27.5935 35.9914L20.5781 26.2772L29.2464 31.2314L30.0714 28.5772L30.8704 26.0057L31.9839 22.4286L33.0974 27.2772L34.7214 34.3629L42.2647 38.68L43.3868 39.32L42.4666 39.5429L38.5147 40.4943Z" fill="#C6E6A3" stroke="black"/>
<path d="M49.1533 36.4629L43.3841 39.32L42.262 38.68L34.7188 34.3629L40.488 31.5057L49.1533 36.4629Z" fill="white" stroke="black"/>
<path d="M30.8704 26.0058L30.0714 28.5772L29.2464 31.2315L20.5781 26.2772L26.3474 23.42L30.8704 26.0058Z" fill="white" stroke="black"/>
<path d="M44.7913 49.5228L39.0221 52.38L36.3711 41.0114L38.5115 40.4943L42.4634 39.5428L44.7913 49.5228Z" fill="white" stroke="black"/>
<path d="M40.4911 31.5057L34.7219 34.3628L33.0978 27.2771L31.9844 22.4286L37.7536 19.5714L40.4911 31.5057Z" fill="white" stroke="black"/>
</g>
<defs>
<clipPath id="clip0_5781_17569">
<rect width="30" height="34" fill="white" transform="translate(20 19)"/>
</clipPath>
</defs>
</svg>
