<svg width="47" height="52" viewBox="0 0 47 52" fill="none" xmlns="http://www.w3.org/2000/svg">
<g clip-path="url(#clip0_5729_14864)">
<path d="M2.41797 22.6827L2.82282 22.4766C2.67856 22.5328 2.54361 22.5984 2.41797 22.6827Z" fill="white" stroke="black"/>
<path d="M36.2413 38.5143L33.6446 35.2538L32.1369 33.3612L29.4007 29.9273L28.3071 28.5547L24.9334 28.8686L20.0938 29.3183V40.3319L20.3357 40.6365L28.3071 50.6431L36.5205 49.828V38.8657L36.2413 38.5143ZM26.9343 45.2603L22.83 40.079V34.3355L23.407 35.0664L25.6872 37.9381L26.0828 38.4394L26.9343 39.5121V45.2603ZM27.9581 37.4977L26.469 35.6286L24.0166 32.546L25.4778 32.4242L28.3071 32.1946L29.4007 33.5579L31.2388 35.8441L31.5925 36.2844L32.593 37.5305L31.0201 37.6805L28.3071 37.9381L27.9581 37.4977ZM33.7796 46.4455L29.6752 46.7969V41.0534L33.412 40.6833L33.7796 40.6459V46.4455Z" fill="#C6E6A3" stroke="black"/>
<path d="M33.7801 44.7305V46.4451L29.6758 46.7964L33.7801 44.7305Z" fill="white" stroke="black"/>
<path d="M33.7801 41.1427V44.7312L29.6758 46.7971V41.0537L33.4125 40.6836L33.7801 41.1427Z" fill="white" stroke="black"/>
<path d="M26.9325 39.5103V45.2584L22.8281 40.0771L26.0809 38.4375L26.9325 39.5103Z" fill="white" stroke="black"/>
<path d="M26.0809 38.4397L22.8281 40.0794V34.3359L23.4052 35.0667L25.6854 37.9385L26.0809 38.4397Z" fill="white" stroke="black"/>
<path d="M32.5944 37.5313L31.0216 37.6812L28.3086 37.9388L30.3933 36.8895L31.5939 36.2852L32.5944 37.5313Z" fill="white" stroke="black"/>
<path d="M31.5915 36.285L30.3909 36.8894L28.3061 37.9387L27.9571 37.4984L26.468 35.6292L24.0156 32.5467L25.4768 32.4249L28.3061 32.1953L29.3997 33.5586L31.2378 35.8447L31.5915 36.285Z" fill="white" stroke="black"/>
<path d="M45.8304 34.1797V45.1419L36.5234 49.8267V38.8644L38.9851 37.6276L42.0983 36.0582L45.8304 34.1797Z" fill="white" stroke="black"/>
<path d="M20.0921 29.3175V40.3311L20.3341 40.6356L17.8073 41.9052C16.4996 38.8977 15.769 36.1009 15.6201 33.5149C15.5596 32.4936 15.5782 31.5146 15.6853 30.5777C15.8388 29.1535 16.1832 27.8324 16.7137 26.6144L26.0206 21.9297C25.3691 23.4288 24.9969 25.0825 24.9131 26.8908L20.0921 29.3175Z" fill="white" stroke="black"/>
<path d="M17.8078 41.9068L0.929688 32.0923V26.1896C0.929688 25.0325 1.18563 24.0909 1.70216 23.3741C1.90692 23.0884 2.13959 22.8588 2.40949 22.6902H2.4188L2.82365 22.4794L2.85157 22.4653C3.14474 22.3576 3.48909 22.3014 3.84741 22.3014C5.39701 22.2873 7.14672 22.5309 9.09652 23.0322C9.4688 23.1259 9.85038 23.2383 10.2366 23.3648C11.87 23.8988 13.6336 24.7187 15.5276 25.8196L16.1651 26.1943C16.3513 26.2974 16.5328 26.4426 16.7142 26.616C16.1837 27.834 15.8394 29.155 15.6858 30.5792C15.5788 31.5161 15.5602 32.4952 15.6207 33.5165C15.7696 36.1024 16.5002 38.8992 17.8078 41.9068Z" fill="#9155F1" stroke="black"/>
<path d="M26.0212 21.9292L16.7143 26.6139C16.5328 26.4406 16.3513 26.2954 16.1651 26.1923L15.5276 25.8175C13.6337 24.7166 11.87 23.8968 10.2366 23.3627C9.85039 23.2363 9.46881 23.1238 9.09653 23.0301C7.14673 22.5289 5.39703 22.2853 3.8474 22.2993C3.48909 22.2993 3.14473 22.3555 2.85156 22.4633L10.567 18.5703C10.6508 18.7109 10.7346 18.8467 10.823 18.9826C12.1585 21.0907 13.7267 22.6647 15.5276 23.7094C17.5379 24.8759 19.255 25.0492 20.6837 24.2294L25.7373 21.6856C25.835 21.7559 25.9281 21.8402 26.0212 21.9292Z" fill="white" stroke="black"/>
<path d="M22.8291 19.5209C22.8291 19.6989 22.8245 19.8723 22.8152 20.0409C22.7128 22.0788 22.0008 23.4701 20.6839 24.229C19.2553 25.0488 17.5381 24.8755 15.5278 23.709C13.727 22.6643 12.1587 21.0903 10.8232 18.9822C10.7348 18.8463 10.651 18.7105 10.5673 18.5699C10.5021 18.4622 10.437 18.3497 10.3718 18.2373C8.9432 15.7544 8.22656 13.3512 8.22656 11.0323C8.22656 8.71335 8.9432 7.14398 10.3718 6.32416L10.6882 6.16488C12.0517 5.53245 13.6665 5.762 15.5278 6.84416C16.3096 7.29389 17.0449 7.84673 17.7336 8.50258C18.8272 9.52853 19.809 10.798 20.6839 12.3159C21.6751 14.0398 22.3219 15.7263 22.629 17.366C22.764 18.0921 22.8291 18.8088 22.8291 19.5209Z" fill="#9155F1" stroke="black"/>
<path d="M32.1392 14.8371C32.1392 17.1561 31.4226 18.7254 29.994 19.5452L29.6775 19.7045L25.7407 21.6861L20.687 24.2299C22.004 23.471 22.716 22.0796 22.8183 20.0418C22.8276 19.8731 22.8323 19.6998 22.8323 19.5218C22.8323 18.8098 22.7671 18.093 22.6322 17.3669C22.3251 15.7272 21.6782 14.0407 20.687 12.3168C19.8122 10.7989 18.8303 9.52939 17.7368 8.50345C17.048 7.84759 16.3128 7.2948 15.531 6.84507C13.6696 5.7629 12.0549 5.53331 10.6914 6.16574L19.6819 1.64037C21.1105 0.820548 22.8323 0.993877 24.8379 2.16036C26.8482 3.32685 28.5654 5.1539 29.994 7.63209C31.4226 10.115 32.1392 12.5182 32.1392 14.8371Z" fill="white" stroke="black"/>
<path d="M37.614 23.8672L29.4007 28.0037L28.3071 28.5519L24.9334 28.8657L20.0938 29.3155L24.9147 26.8888L29.4007 24.6308L37.614 23.8672Z" fill="white" stroke="black"/>
<path d="M45.8289 34.1782L42.0968 36.0567L38.9836 37.6261L36.522 38.8629L36.2428 38.5115L33.6461 35.251L32.1384 33.3584L29.4022 29.9245L28.3086 28.5519L29.4022 28.0037L37.6155 23.8672L45.8289 34.1782Z" fill="white" stroke="black"/>
</g>
<defs>
<clipPath id="clip0_5729_14864">
<rect width="47" height="52" fill="white"/>
</clipPath>
</defs>
</svg>
