<svg width="24" height="24" viewBox="0 0 24 24" fill="none" xmlns="http://www.w3.org/2000/svg">
<mask id="mask0_5648_16433" style="mask-type:alpha" maskUnits="userSpaceOnUse" x="0" y="0" width="24" height="24">
<rect width="24" height="24" fill="#D9D9D9"/>
</mask>
<g mask="url(#mask0_5648_16433)">
<path d="M10.9496 16.5496L16.5996 10.8996L15.1746 9.47461L10.9496 13.6996L8.82461 11.5746L7.39961 12.9996L10.9496 16.5496ZM11.9996 21.9996C10.7496 21.9996 9.57878 21.7621 8.48711 21.2871C7.39544 20.8121 6.44544 20.1704 5.63711 19.3621C4.82878 18.5538 4.18711 17.6038 3.71211 16.5121C3.23711 15.4204 2.99961 14.2496 2.99961 12.9996C2.99961 11.7496 3.23711 10.5788 3.71211 9.48711C4.18711 8.39544 4.82878 7.44544 5.63711 6.63711C6.44544 5.82878 7.39544 5.18711 8.48711 4.71211C9.57878 4.23711 10.7496 3.99961 11.9996 3.99961C13.2496 3.99961 14.4204 4.23711 15.5121 4.71211C16.6038 5.18711 17.5538 5.82878 18.3621 6.63711C19.1704 7.44544 19.8121 8.39544 20.2871 9.48711C20.7621 10.5788 20.9996 11.7496 20.9996 12.9996C20.9996 14.2496 20.7621 15.4204 20.2871 16.5121C19.8121 17.6038 19.1704 18.5538 18.3621 19.3621C17.5538 20.1704 16.6038 20.8121 15.5121 21.2871C14.4204 21.7621 13.2496 21.9996 11.9996 21.9996ZM5.59961 2.34961L6.99961 3.74961L2.74961 7.99961L1.34961 6.59961L5.59961 2.34961ZM18.3996 2.34961L22.6496 6.59961L21.2496 7.99961L16.9996 3.74961L18.3996 2.34961Z" fill="#9155F1"/>
</g>
</svg>
