<svg width="289" height="289" viewBox="0 0 289 289" fill="none" xmlns="http://www.w3.org/2000/svg">
<path d="M223.05 123.476C221.082 123.812 219.114 124.094 217.16 124.511C215.019 124.905 213.019 125.832 211.352 127.201C210.802 127.623 210.359 128.162 210.056 128.778C209.753 129.393 209.598 130.069 209.604 130.752C209.617 131.65 209.576 132.548 209.48 133.441C209.377 134.367 209.536 135.303 209.938 136.147C210.341 136.991 210.973 137.711 211.765 138.229C214.227 140.092 217.154 141.276 220.242 141.659C223.325 142.089 226.463 142.13 229.573 142.372C229.991 142.431 230.405 142.516 230.811 142.627V143.098C229.669 143.313 228.513 143.501 227.371 143.73C222.419 144.644 217.754 146.675 213.747 149.661C212.001 150.876 210.638 152.544 209.811 154.476C209.604 155.054 209.288 155.821 209.508 156.305C209.947 157.75 209.804 159.304 209.109 160.649C207.967 164.186 208.063 167.495 210.788 170.494C209.99 170.924 209.302 171.26 208.655 171.637C207.596 172.121 206.716 172.913 206.137 173.906C205.558 174.898 205.308 176.041 205.421 177.178C205.434 177.294 205.434 177.412 205.421 177.528C204.678 182.383 207.196 184.01 210.925 185.718C215.048 187.479 219.533 188.28 224.027 188.058C227.823 188.144 231.589 187.381 235.036 185.826C237.568 184.589 239.261 182.827 239.055 179.814C238.958 178.294 239.578 176.721 238.683 175.255C238.601 175.134 238.683 174.811 238.835 174.65C239.647 173.493 240.486 172.35 241.381 171.112C248.399 189.941 255.445 208.833 262.519 227.787C262.299 227.908 273.528 247.275 263.785 251.269L221.123 266.453C219.997 266.872 218.772 266.968 217.592 266.729C216.412 266.491 215.326 265.929 214.462 265.108C212.847 263.638 211.647 261.785 210.98 259.729C204.916 243.437 198.852 227.146 192.787 210.855L173.521 159.022C171.787 154.355 170.025 149.607 168.319 144.994C167.634 143.168 167.557 141.177 168.098 139.305C168.343 138.291 168.84 137.351 169.546 136.569C170.252 135.788 171.144 135.189 172.144 134.827L174.897 133.845C175.43 133.612 176.027 133.558 176.595 133.692C177.162 133.826 177.669 134.14 178.034 134.585C178.681 135.332 179.426 135.992 180.25 136.548C180.778 136.869 181.377 137.062 181.997 137.111C182.617 137.16 183.24 137.064 183.814 136.831L207.416 128.438C208.144 128.221 208.788 127.792 209.26 127.208C209.732 126.624 210.01 125.913 210.058 125.17C210.058 124.592 210.32 124.377 210.912 124.404C214.7 124.405 218.471 123.917 222.128 122.951C222.503 122.94 222.879 122.98 223.242 123.072L223.05 123.476ZM220.903 214.674C223.476 213.948 225.238 211.756 226.752 209.806C227.831 208.462 228.5 206.847 228.68 205.148C228.86 203.449 228.545 201.734 227.77 200.203C226.192 196.645 223.621 193.592 220.352 191.394C215.99 188.314 211.228 186.31 205.682 186.888C204.652 186.927 203.642 187.177 202.718 187.622C201.793 188.066 200.974 188.696 200.315 189.471C198.939 191.34 196.365 195.523 196.365 196.935C196.723 202.503 199.778 206.457 203.921 209.725C207.885 213.09 212.929 214.993 218.178 215.105C219.107 215.142 220.034 214.996 220.903 214.674Z" fill="white"/>
<path opacity="0.29" d="M249.983 222.381L213.624 236.045C212.669 236.392 211.652 236.549 210.634 236.51C209.615 236.47 208.615 236.233 207.691 235.812C206.767 235.392 205.937 234.797 205.25 234.061C204.563 233.325 204.032 232.464 203.688 231.526L182.412 176.815C181.839 175.379 181.87 173.78 182.5 172.366C183.129 170.952 184.304 169.839 185.77 169.27L225.556 154.664C226.444 154.35 227.388 154.211 228.332 154.256C229.276 154.302 230.202 154.53 231.054 154.928C231.907 155.326 232.671 155.886 233.3 156.575C233.93 157.264 234.413 158.068 234.721 158.941L254.593 211.958C255.359 213.94 255.307 216.136 254.446 218.081C253.586 220.026 251.985 221.568 249.983 222.381Z" fill="#C6E6A3"/>
<path d="M270.602 243.187C271.238 245.121 271.139 247.214 270.322 249.082C269.506 250.95 268.026 252.467 266.157 253.355C252.794 259.703 222.325 269.642 220.536 270.354C216.627 271.847 210.187 270.354 208.357 268.391C205.604 264.491 168.075 163.689 162.199 147.9C161.106 145.29 160.937 142.398 161.717 139.683C162.115 138.318 162.855 137.072 163.872 136.06C164.889 135.047 166.15 134.3 167.539 133.886C176.553 130.739 185.539 127.498 194.526 124.283C198.09 123.019 201.627 121.741 205.191 120.504C205.989 120.222 206.278 119.98 206.017 119.052C205.967 118.696 205.989 118.335 206.084 117.989C206.178 117.642 206.343 117.318 206.567 117.034C207.255 116.287 208.016 115.607 208.838 115.003H207.572C206.753 115.055 205.938 114.856 205.24 114.434C204.542 114.013 203.996 113.389 203.677 112.65C203.371 111.996 202.997 111.374 202.563 110.794C202.055 110.195 201.767 109.447 201.744 108.67C201.722 107.892 201.966 107.13 202.439 106.504C203.621 104.733 205.007 103.099 206.567 101.635C211.49 97.1599 217.509 94.0008 224.045 92.4627C225.555 92.1841 227.095 92.0937 228.628 92.1937C229.257 92.2336 229.86 92.4539 230.362 92.8271C230.864 93.2002 231.242 93.7097 231.449 94.2918C231.85 95.1204 232.309 95.9203 232.825 96.6857C233.148 97.0992 233.348 97.5921 233.401 98.1098C233.455 98.6274 233.36 99.1494 233.128 99.6176C232.55 100.932 231.771 102.152 230.816 103.235C228.807 105.186 226.55 106.907 224.375 108.723C224.082 108.923 223.834 109.179 223.646 109.476C224.926 109.234 226.206 108.884 227.513 108.75C229.963 108.494 232.426 108.265 234.889 108.239C237.119 108.239 237.779 108.83 238.413 110.928C238.564 111.439 238.702 111.95 238.853 112.462C239.527 114.681 239.39 115.151 237.477 116.617C234.829 118.458 231.917 119.904 228.834 120.908C227.623 121.351 226.398 121.755 225.174 122.172C225.202 122.585 225.395 122.97 225.712 123.244C226.029 123.519 226.444 123.66 226.866 123.638C230.707 123.713 234.491 124.555 237.986 126.112C239.135 126.647 240.208 127.325 241.179 128.13C243.931 130.551 243.835 136.562 240.986 138.889C239.052 140.353 236.778 141.328 234.367 141.727C233.885 141.834 233.417 141.969 232.99 142.09C232.99 142.991 233.486 143.018 234.105 143.139C235.879 143.465 237.627 143.914 239.335 144.484C239.931 144.719 240.457 145.097 240.864 145.584C241.27 146.07 241.544 146.65 241.66 147.268C241.842 148.016 242.095 148.745 242.417 149.447C243.518 151.841 242.761 153.885 241.041 155.768C240.667 156.203 240.267 156.616 239.844 157.005C238.605 158.175 238.578 158.659 239.555 160.125C240.27 161.188 240.931 162.304 241.55 163.42C241.789 163.833 241.93 164.292 241.963 164.765C241.963 167.926 243.504 170.642 244.509 173.507C245.514 176.372 246.601 179.102 247.605 181.913C247.853 182.599 265.014 226.228 270.602 243.187ZM223.054 123.49L223.137 123.073C222.773 122.981 222.398 122.94 222.022 122.952C218.365 123.918 214.594 124.406 210.806 124.404C210.214 124.404 210.008 124.593 209.953 125.171C209.905 125.914 209.626 126.624 209.154 127.208C208.682 127.792 208.039 128.222 207.311 128.439L183.709 136.831C183.135 137.065 182.512 137.161 181.892 137.112C181.272 137.063 180.673 136.87 180.145 136.549C179.321 135.993 178.576 135.333 177.929 134.585C177.563 134.141 177.057 133.827 176.489 133.693C175.921 133.559 175.324 133.613 174.791 133.846L172.039 134.827C171.039 135.19 170.146 135.789 169.44 136.57C168.734 137.352 168.237 138.291 167.993 139.306C167.452 141.178 167.529 143.169 168.213 144.995C169.92 149.675 171.681 154.409 173.415 159.022L192.682 210.855C198.755 227.138 204.82 243.429 210.875 259.73C211.542 261.786 212.741 263.639 214.357 265.109C215.221 265.93 216.307 266.492 217.487 266.73C218.666 266.968 219.891 266.873 221.017 266.454L263.679 251.27C264.529 250.943 265.293 250.436 265.916 249.784C266.54 249.133 267.008 248.354 267.285 247.504C269.404 244.395 262.193 227.909 262.413 227.788C255.358 208.843 248.312 189.951 241.275 171.113C240.38 172.351 239.541 173.494 238.729 174.65C238.605 174.812 238.495 175.134 238.578 175.256C239.472 176.721 238.853 178.295 238.949 179.815C239.156 182.827 237.463 184.589 234.931 185.827C231.483 187.382 227.717 188.145 223.921 188.059C219.428 188.281 214.943 187.48 210.82 185.719C207.132 184.011 204.613 182.384 205.315 177.528C205.329 177.412 205.329 177.295 205.315 177.179C205.202 176.042 205.453 174.899 206.032 173.906C206.611 172.914 207.49 172.122 208.549 171.638C209.196 171.261 209.925 170.925 210.682 170.495C207.93 167.495 207.861 164.187 209.003 160.65C209.699 159.305 209.842 157.75 209.402 156.306C209.182 155.822 209.499 155.055 209.705 154.477C210.532 152.544 211.895 150.877 213.641 149.662C217.648 146.675 222.313 144.644 227.265 143.731C228.408 143.502 229.564 143.314 230.706 143.099V142.628C230.299 142.517 229.885 142.432 229.467 142.372C226.357 142.13 223.219 142.09 220.137 141.66C217.048 141.277 214.121 140.092 211.659 138.23C210.867 137.712 210.236 136.992 209.833 136.148C209.43 135.304 209.272 134.368 209.375 133.442C209.47 132.549 209.511 131.651 209.499 130.752C209.493 130.069 209.647 129.394 209.95 128.778C210.253 128.163 210.697 127.624 211.247 127.202C212.914 125.832 214.914 124.906 217.054 124.512C219.118 124.095 221.086 123.813 223.054 123.476V123.49ZM269.404 247.303C268.661 246.966 268.028 246.63 267.739 247.598C267.387 248.641 266.778 249.583 265.968 250.342C265.157 251.102 264.168 251.656 263.088 251.956C249.106 256.905 235.142 261.872 221.196 266.858C220.347 267.177 219.437 267.315 218.528 267.264C217.62 267.213 216.732 266.974 215.926 266.562C213.532 265.327 211.732 263.22 210.916 260.698C203.393 240.578 195.888 220.476 188.402 200.392L175.259 165.236C172.81 158.646 170.291 152.069 167.952 145.452C165.984 139.884 168.034 136.038 173.456 133.913C175.92 132.945 177.585 133.294 179.195 135.258C179.73 135.97 180.508 136.473 181.388 136.675C182.269 136.877 183.194 136.766 183.998 136.361C184.824 136.038 185.663 135.755 186.489 135.46L207.063 128.143C207.734 127.947 208.33 127.56 208.774 127.03C209.218 126.5 209.49 125.853 209.554 125.171C209.554 124.862 209.292 124.283 209.058 124.23C208.442 124.126 207.88 123.821 207.464 123.364C207.049 122.907 206.806 122.325 206.774 121.715C206.671 121.337 206.538 120.968 206.375 120.612C206.017 120.706 205.728 120.76 205.439 120.867C193.934 124.947 182.438 129.04 170.952 133.146C169.77 133.578 168.721 134.3 167.906 135.242C167.092 136.184 166.539 137.315 166.3 138.526C165.668 141.042 165.831 143.687 166.768 146.111L186.296 198.455C193.507 217.777 200.719 237.104 207.93 256.435C208.884 259.228 210.1 261.929 211.563 264.504C212.617 266.329 214.325 267.709 216.358 268.377C218.39 269.045 220.604 268.954 222.573 268.122C236.334 263.051 250.206 258.183 264.051 253.328C265.403 252.862 266.607 252.06 267.546 251.001C268.485 249.943 269.125 248.663 269.404 247.289V247.303ZM232.027 143.314V143.61C226.722 143.915 221.567 145.445 216.985 148.075C214.34 149.365 212.135 151.379 210.641 153.871C210.311 154.347 210.103 154.892 210.034 155.462C209.964 156.032 210.036 156.61 210.242 157.147C210.448 157.684 210.783 158.166 211.219 158.551C211.655 158.935 212.179 159.212 212.747 159.359C214.07 159.85 215.462 160.14 216.875 160.219C222.702 160.413 228.468 159.016 233.527 156.185C236.315 154.903 238.694 152.904 240.408 150.402C242.018 147.819 241.234 145.372 238.289 144.457C236.229 143.943 234.137 143.562 232.027 143.314ZM210.201 159.197C209.789 160.562 209.789 162.015 210.201 163.38C210.962 165.59 212.404 167.516 214.329 168.894C218.108 171.829 222.711 173.57 227.527 173.884C230.845 174.264 234.206 173.728 237.229 172.337C240.449 170.764 241.949 168.37 241.55 165.061C241.171 162.802 239.962 160.756 238.151 159.305C237.958 159.13 237.38 159.197 237.064 159.305C235.371 160.125 233.775 161.134 232.041 161.847C227.362 163.984 222.182 164.858 217.04 164.375C214.054 164.012 211.439 163.03 210.641 159.735C210.512 159.543 210.364 159.363 210.201 159.197ZM237.848 175.538C237.229 175.861 236.706 176.17 236.142 176.426C235.554 176.712 234.942 176.946 234.311 177.125C230.661 178.098 226.827 178.208 223.125 177.445C219.423 176.683 215.96 175.07 213.022 172.741C210.779 171.086 210.613 170.992 208.288 172.646C207.885 172.938 207.511 173.266 207.173 173.628C206.853 173.921 206.596 174.272 206.416 174.662C206.236 175.052 206.137 175.472 206.124 175.9C206.111 176.328 206.185 176.753 206.342 177.153C206.498 177.552 206.734 177.918 207.035 178.228C208.037 179.321 209.247 180.212 210.6 180.85C217.258 183.743 224.731 184.308 231.766 182.451C233.989 182.035 236.018 180.938 237.559 179.317C238.065 178.827 238.373 178.175 238.426 177.48C238.479 176.786 238.274 176.096 237.848 175.538ZM210.462 120.02V119.899C210.733 119.912 211.004 119.912 211.274 119.899C218.182 119.401 224.937 117.664 231.201 114.775C233.133 113.818 234.975 112.697 236.706 111.426C237.146 111.13 237.614 110.229 237.449 109.852C237.266 109.584 237.028 109.355 236.752 109.18C236.475 109.004 236.164 108.885 235.839 108.83C232.819 108.371 229.734 108.536 226.784 109.314C224.519 109.723 222.308 110.377 220.192 111.265C217.181 112.715 214.033 113.877 210.792 114.734C209.122 115.224 207.669 116.247 206.664 117.639C206.045 118.406 206.347 119.2 207.352 119.469C208.378 119.705 209.416 119.889 210.462 120.02ZM214.302 135.231C214.728 135.473 214.907 135.621 215.1 135.702C222.047 138.531 229.798 138.855 236.968 136.616C238.631 136.012 240.159 135.098 241.468 133.926C241.802 133.661 242.077 133.33 242.275 132.955C242.472 132.58 242.589 132.17 242.616 131.749C242.643 131.328 242.58 130.907 242.433 130.51C242.285 130.114 242.055 129.753 241.757 129.448C240.951 128.55 240.025 127.763 239.004 127.108C238.76 126.985 238.493 126.91 238.219 126.89C237.944 126.869 237.669 126.902 237.408 126.987C233.444 128.332 229.495 129.771 225.545 131.183L214.302 135.231ZM237.89 111.372C230.169 117.263 221.1 119.253 211.742 120.571C211.951 121.237 212.117 121.916 212.237 122.602C212.361 123.638 212.884 123.947 213.875 123.786C218.481 123.319 223.013 122.317 227.375 120.8C230.802 119.773 234.05 118.245 237.009 116.268C238.798 114.923 238.908 114.479 238.234 112.448C238.082 112.085 238 111.722 237.89 111.372ZM231.532 95.7712C230.775 94.1573 230.032 92.7317 228.091 92.651C227.093 92.6059 226.093 92.6555 225.105 92.7989C221.868 93.3666 218.746 94.4382 215.857 95.9729C211.938 97.8707 208.371 100.393 205.301 103.437C205.04 103.72 204.751 104.311 204.875 104.54C205.369 105.374 205.921 106.173 206.526 106.934C206.733 106.786 206.843 106.732 206.912 106.665C211.18 102.433 216.348 99.1687 222.05 97.1026C225.002 95.738 228.306 95.274 231.532 95.7712ZM241.77 149.568C235.261 158.215 226.068 160.757 215.733 160.892C216.366 164.133 216.16 163.824 219.008 163.864C223.974 163.862 228.871 162.724 233.307 160.542C236.344 159.272 239.014 157.29 241.082 154.773C241.713 154.081 242.116 153.219 242.239 152.301C242.362 151.382 242.198 150.448 241.77 149.621V149.568ZM210.462 181.765C210.462 182.128 210.366 182.518 210.324 182.922C210.159 184.764 210.146 184.804 211.935 185.437C217.798 187.583 224.178 187.995 230.279 186.62C232.36 186.081 234.359 185.276 236.224 184.226C236.994 183.787 237.607 183.126 237.979 182.335C238.351 181.543 238.464 180.658 238.302 179.801C236.996 180.725 235.615 181.543 234.174 182.249C228.61 184.316 222.547 184.741 216.738 183.473C214.687 183.15 212.65 182.424 210.462 181.819V181.765ZM215.43 136.414C215.32 137.006 215.237 137.437 215.169 137.88C214.907 139.494 214.893 139.535 216.462 140.059C222.154 141.969 228.268 142.345 234.16 141.149C236.415 140.783 238.554 139.913 240.408 138.607C241.124 138.16 241.681 137.508 242.003 136.74C242.326 135.972 242.398 135.126 242.211 134.316C241.481 134.913 240.719 135.47 239.926 135.984C237.159 137.513 234.061 138.38 230.885 138.513C225.64 139.034 220.344 138.333 215.43 136.468V136.414ZM264.23 227.694C256.812 207.829 249.422 188.059 241.977 168.101C241.77 168.437 241.647 168.612 241.55 168.8C241.014 169.889 241.619 170.831 241.977 171.813C248.849 190.22 255.707 208.627 262.551 227.035C262.854 227.842 263.322 228.138 264.23 227.694ZM214.109 169.674C212.733 171.813 212.733 172.014 214.715 173.252C219.89 176.679 226.234 177.988 232.385 176.896C233.77 176.745 235.108 176.321 236.32 175.648C237.531 174.975 238.59 174.068 239.431 172.983C239.851 172.304 240.214 171.593 240.518 170.858C239.394 171.66 238.222 172.397 237.009 173.063C233.172 174.734 228.884 175.144 224.788 174.233C220.921 173.577 217.275 172.013 214.164 169.674H214.109ZM169.975 161.605C169.19 161.833 168.598 162.022 168.901 162.869C170.374 166.904 171.846 170.817 173.388 174.771C173.498 175.054 174.117 175.161 174.502 175.35C174.681 174.96 175.094 174.489 174.984 174.193C173.608 170.239 172.094 166.312 170.608 162.385C170.451 162.117 170.257 161.872 170.03 161.658L169.975 161.605ZM218.54 269.198C216.642 269.037 214.84 268.31 213.38 267.113C213.208 266.97 212.986 266.897 212.76 266.911C211.563 267.248 210.393 267.624 209.1 268.041C210.305 269.269 211.902 270.058 213.628 270.281C215.354 270.503 217.106 270.145 218.595 269.265L218.54 269.198ZM161.855 144.296C162.984 143.906 164.029 143.569 165.062 143.166C165.177 143.119 165.28 143.045 165.361 142.952C165.443 142.858 165.5 142.747 165.529 142.628C165.529 141.444 165.529 140.261 165.529 139.064C162.006 139.871 161.016 141.216 161.91 144.363L161.855 144.296ZM224.926 123.732L225.119 123.342C224.83 122.454 224.334 122.118 223.316 123.086L224.926 123.732Z" fill="#121212"/>
<path d="M108.127 40.9922C108.127 40.7367 108.265 40.4274 108.306 40.0911C108.802 36.1774 112.724 31.7258 116.66 30.865C119.724 30.289 122.899 30.7641 125.646 32.2099C126.816 32.7614 127.945 33.4204 129.197 34.0794C129.384 33.5513 129.614 33.0386 129.885 32.5462C130.812 30.9959 131.851 29.5127 132.995 28.108C133.573 27.5046 134.279 27.032 135.064 26.723C135.848 26.414 136.692 26.2762 137.537 26.3192C137.925 26.3189 138.313 26.2783 138.693 26.1982C142.821 25.2971 145.78 27.18 147.996 30.354C149.11 31.9679 149.922 33.77 150.927 35.5991C151.629 34.9939 152.386 34.2542 153.17 33.6759C155.236 31.7874 157.731 30.4046 160.45 29.6412C161.095 29.4594 161.778 29.4509 162.427 29.6166C163.076 29.7823 163.667 30.116 164.138 30.5826C164.627 31.0828 165.167 31.5334 165.749 31.9275C166.602 32.3842 167.275 33.1049 167.664 33.9763C168.053 34.8478 168.134 35.8207 167.895 36.7423C167.875 36.8896 167.875 37.0388 167.895 37.1861C169.272 36.554 170.469 35.8412 171.776 35.357C172.874 34.8469 174.093 34.6351 175.304 34.744C176.514 34.8528 177.673 35.2783 178.657 35.9757C179.01 36.2164 179.388 36.4193 179.786 36.5809C183.35 38.0872 184.616 40.9653 184.616 44.5159C184.502 50.2314 182.334 55.7254 178.492 60.0362C176.551 62.555 173.97 64.5346 171.006 65.779C169.824 66.3438 168.508 66.5822 167.198 66.4684C165.888 66.3546 164.635 65.893 163.574 65.1334C163.261 64.921 162.93 64.7364 162.583 64.582C159.28 63.1161 157.987 60.4128 157.877 57.0505C157.877 55.7056 157.987 54.3607 158.056 52.8813C157.753 53.1233 157.519 53.3385 157.257 53.5268C155.069 55.0062 152.95 56.5932 150.679 57.9112C150 58.3633 149.21 58.6303 148.39 58.6847C147.57 58.7391 146.75 58.5788 146.014 58.2206C145.834 58.1732 145.644 58.1732 145.464 58.2206C143.867 58.4358 142.271 58.6778 140.674 58.9199C139.013 59.1738 137.315 58.8246 135.899 57.9381C135.417 57.6423 135.073 57.5212 134.605 57.9381C133.728 58.7727 132.671 59.406 131.512 59.7921C130.352 60.1782 129.12 60.3076 127.903 60.1707C125.35 59.9901 122.868 59.2598 120.637 58.0323L119.564 57.4809C119.693 58.4889 119.748 59.5047 119.729 60.5204C119.666 62.0547 119.464 63.5805 119.123 65.0796C118.863 66.0745 118.373 66.9978 117.69 67.7787C117.008 68.5597 116.152 69.1776 115.187 69.5851C114.207 69.9975 113.37 70.6798 112.779 71.5487C111.802 72.9877 110.495 74.2385 109.38 75.5834C108.939 76.0945 108.678 76.74 108.238 77.2645C104.591 81.5414 98.6042 94.1432 98.4253 94.4794C98.2464 94.8157 98.0675 94.8157 97.9161 94.735C99.0446 92.0451 101.178 87.7683 102.554 84.7288C102.371 84.6411 102.172 84.5902 101.969 84.5794C101.765 84.5686 101.562 84.5979 101.371 84.6657C101.179 84.7335 101.004 84.8384 100.855 84.974C100.706 85.1096 100.586 85.2733 100.503 85.4551C99.1935 88.7859 98.0725 92.1847 97.1454 95.6361C96.7188 97.1558 95.0674 105.602 92.26 106.57C88.0764 108.937 87.9387 104.499 88.3241 97.9897C89.2874 93.2825 90.4296 86.9883 91.393 82.2407C84.746 78.6498 78.4293 74.5478 76.2549 66.4514C69.3992 78.6046 64.9585 91.9158 63.1673 105.683L62.6719 105.562C62.782 104.62 62.8645 103.679 63.0159 102.751C64.9122 90.3123 69.025 78.2952 75.1677 67.2449C76.8879 64.2189 78.9247 61.3677 80.8238 58.4358L80.9477 58.3147C83.3147 56.5798 84.2368 53.742 86.1772 51.5901C86.855 50.8377 87.7113 50.2592 88.671 49.9052C89.6306 49.5511 90.6645 49.4324 91.682 49.5593C92.4526 49.5593 92.7141 49.4383 92.7692 48.6986C92.8359 47.1432 93.3504 45.6377 94.2536 44.3554C95.1568 43.073 96.412 42.0658 97.8748 41.4495C99.8015 40.5484 101.591 39.3111 103.861 39.7684C105.279 40.0508 106.641 40.5619 108.127 40.9922ZM184.162 45.2287C183.969 43.8838 183.901 42.8213 183.667 41.7992C183.454 40.3601 182.678 39.0579 181.502 38.1672C180.326 37.2765 178.843 36.8669 177.364 37.0247C175.23 37.2401 173.209 38.0685 171.556 39.4052C168.549 41.62 166.078 44.4556 164.32 47.7101C162.562 50.9646 161.561 54.5579 161.386 58.234C161.255 59.3833 161.387 60.5466 161.773 61.6398C162.158 62.7331 162.788 63.7289 163.615 64.5551C165.501 66.3304 168.377 66.6397 171.295 65.1065C179.442 60.7625 183.034 53.621 184.162 45.2287ZM96.1821 48.4161C96.9115 56.1763 99.9666 62.2688 105.815 66.9222C107.496 68.3333 109.563 69.2311 111.761 69.5044C112.904 69.6886 114.078 69.5334 115.131 69.0586C116.183 68.5839 117.066 67.8116 117.664 66.8415C118.885 64.7295 119.413 62.3027 119.178 59.8883C119.187 59.0187 118.97 58.1612 118.546 57.3965C118.122 56.6319 117.506 55.9851 116.756 55.5173C112.68 52.7074 109.816 48.5187 108.719 43.7627C108.625 43.0108 108.289 42.3074 107.76 41.7539C107.231 41.2004 106.535 40.8254 105.774 40.6829L105.224 40.5081C101.522 39.4859 98.3427 40.8846 97.1592 44.2738C96.7291 45.6291 96.4025 47.0137 96.1821 48.4161ZM133.972 56.8757C133.017 55.647 132.126 54.3722 131.303 53.0561C128.449 47.8043 127.573 41.7406 128.825 35.9219C128.883 35.6718 128.885 35.4125 128.83 35.1618C128.775 34.911 128.666 34.6748 128.509 34.4694C125.587 32.3 122.022 31.1197 118.353 31.1071C116.689 31.0335 115.056 31.5602 113.765 32.587C112.473 33.6137 111.613 35.0687 111.348 36.6751C111.086 38.0441 111.128 39.4523 111.472 40.8039C113.729 49.0214 119.247 54.2531 127.408 56.8488C129.537 57.5657 131.853 57.5515 133.972 56.8084V56.8757ZM145.257 57.7902C144.404 57.1043 143.798 56.5394 143.11 56.0822C142.412 55.6304 141.872 54.9821 141.559 54.2231C141.247 53.4641 141.179 52.6303 141.362 51.8322C141.494 50.8266 141.724 49.8357 142.051 48.8734C143.586 44.7483 145.981 40.9794 149.083 37.8048C149.615 37.4204 149.972 36.8476 150.078 36.2091C150.183 35.5707 150.028 34.9172 149.647 34.3887C149.644 34.3529 149.644 34.3169 149.647 34.2811C148.659 31.6418 146.892 29.3483 144.569 27.691C143.403 26.8154 141.938 26.4085 140.475 26.5535C139.011 26.6985 137.66 27.3845 136.697 28.4711C135.401 29.8557 134.4 31.4788 133.752 33.2455C132.666 36.3415 132.228 39.6193 132.465 42.884C132.701 46.1486 133.607 49.3335 135.128 52.2492C136.085 54.2888 137.611 56.023 139.532 57.2522C140.374 57.7822 141.337 58.1023 142.335 58.1844C143.333 58.2665 144.336 58.108 145.257 57.7229V57.7902ZM112.229 71.2393C110.903 71.709 109.48 71.8577 108.083 71.6726C106.686 71.4876 105.355 70.9744 104.205 70.1768C101.012 68.2392 98.3162 65.612 96.3242 62.4972C94.3321 59.3824 93.0972 55.8628 92.7141 52.2088C92.3976 49.9225 92.3976 49.8687 89.9617 50.1511C89.3166 50.1511 88.68 50.2945 88.1 50.5706C87.5201 50.8466 87.0119 51.2479 86.6141 51.7442C86.2164 52.2405 85.9393 52.8188 85.804 53.4352C85.6687 54.0516 85.6787 54.69 85.8332 55.3021C86.0408 56.6407 86.4634 57.9388 87.0855 59.1486C89.6618 63.6714 93.4734 67.4057 98.095 69.9348C100.862 71.7241 104.039 72.8147 107.343 73.1088C109.242 73.2433 111.141 72.9877 112.297 71.1317L112.229 71.2393ZM82.9019 57.2253C82.2231 57.4834 81.6402 57.9364 81.2299 58.5246C80.8197 59.1127 80.6013 59.8086 80.6036 60.5204C80.6311 61.8718 80.9254 63.2053 81.4706 64.4475C83.7826 69.2758 87.7874 72.517 92.3563 75.2068C95.3097 77.1064 98.7112 78.2361 102.237 78.4884C103.763 78.4577 105.275 78.2039 106.724 77.7353C107.302 77.5739 107.701 76.888 108.293 76.3903C106.667 76.5268 105.033 76.5268 103.407 76.3903C97.3106 75.2875 92.3976 71.9656 88.269 67.6888C85.5166 64.7703 83.2597 61.5829 82.9019 57.2253ZM164.758 31.9679C163.258 30.3271 162.294 29.8967 160.629 30.2195C159.838 30.3748 159.07 30.6279 158.345 30.9726C154.511 32.9361 151.158 35.6893 148.519 39.0421C145.801 42.0925 143.713 45.6271 142.367 49.4517C142.306 49.6801 142.297 49.9186 142.339 50.1508C142.382 50.3831 142.476 50.6034 142.615 50.7966C143.253 51.349 143.944 51.8399 144.679 52.2626C144.785 52.1113 144.881 51.9541 144.968 51.7919C147.362 45.5399 151.431 40.0311 156.748 35.8412C158.983 33.8269 161.763 32.4824 164.758 31.9679ZM177.845 36.2178C177.609 36.0712 177.366 35.9365 177.116 35.8143C175.989 35.3978 174.777 35.2501 173.58 35.3834C172.384 35.5167 171.237 35.9273 170.235 36.5809C162.886 40.9115 159.225 47.5016 158.303 55.7056C158.294 55.898 158.328 56.09 158.402 56.2687C158.475 56.4473 158.587 56.6085 158.73 56.7412C159.366 57.1152 160.033 57.4347 160.725 57.6961C161.022 53.8638 162.218 50.1498 164.221 46.8426C167.359 41.6916 171.24 37.4551 177.845 36.2178ZM93.2921 67.2449C89.3149 63.4523 85.5992 59.6596 85.1588 53.9572C84.5432 54.4234 84.0719 55.0473 83.7974 55.7596C83.5228 56.4719 83.4558 57.2446 83.6037 57.9919C84.3194 63.0354 87.7323 66.4245 91.3379 69.7868L93.2921 67.2449ZM88.1589 73.1626C84.223 69.7599 80.5761 66.3035 79.833 60.87C79.2219 61.4344 78.7799 62.1508 78.5544 62.9423C78.3289 63.7337 78.3284 64.5703 78.5531 65.3621C78.96 66.7329 79.5232 68.0547 80.2321 69.3027C81.808 71.7982 83.8533 73.9795 86.2598 75.7313L88.1589 73.1626ZM117.472 52.2626C115.834 50.3389 114.326 48.3127 112.958 46.197C111.889 44.0178 110.969 41.7713 110.206 39.4725C108.829 40.2256 108.637 41.5571 109.105 43.1306C109.187 43.4131 109.242 43.7224 109.311 44.0048C110.412 47.8249 112.592 51.2647 115.6 53.9303L117.472 52.2626ZM131.757 40.9115C131.949 35.6126 132.844 30.6364 137.358 26.9379C136.079 27.0272 134.847 27.4481 133.79 28.1573C132.733 28.8665 131.889 29.8383 131.344 30.9726C129.919 33.4434 129.113 36.2086 128.991 39.0421C128.991 39.7684 128.991 40.4946 128.991 41.2881L131.757 40.9115ZM96.1684 53.7017C95.527 54.0059 94.9023 54.3426 94.2967 54.7103C94.1906 54.8013 94.1087 54.9163 94.0584 55.0452C94.008 55.1741 93.9906 55.3131 94.0077 55.45C94.7309 58.0926 95.9033 60.5976 97.4757 62.8605L99.9529 61.7711L96.1684 53.7017ZM131.605 41.7992C131.192 41.7992 130.656 41.7992 130.119 41.7992C129.252 41.7992 128.743 42.0816 128.991 42.9961C129.445 45.2018 129.885 47.4209 130.367 49.6131C130.426 49.7738 130.525 49.9179 130.655 50.0327C130.784 50.1476 130.94 50.2298 131.11 50.2721C131.834 50.2681 132.556 50.2096 133.27 50.0973C132.706 47.2326 132.114 44.5562 131.605 41.7992ZM97.3519 42.4582C93.3059 44.1393 92.5215 50.2452 93.8151 54.1455C94.4095 53.8974 94.9767 53.591 95.5078 53.2309C95.672 53.0875 95.8025 52.9111 95.8903 52.7138C95.9782 52.5165 96.0214 52.3029 96.017 52.0878C95.5078 48.8196 95.439 45.6322 97.3519 42.4582ZM108.802 39.3111C110.508 38.6924 110.618 37.3206 110.797 35.9757L110.495 35.8278L108.802 39.3111Z" fill="#121212"/>
<path d="M154.837 199.692C154.975 201.064 155.002 202.444 154.92 203.821C154.698 209.779 152.824 215.567 149.498 220.565C148.401 222.047 147.1 223.373 145.63 224.505C145.029 224.968 144.32 225.279 143.567 225.413C142.814 225.547 142.039 225.498 141.309 225.272C129.937 222.59 119.194 217.811 109.657 211.191C104.964 207.963 100.56 204.305 96.1977 200.633C93.6105 198.468 91.3673 195.885 88.9314 193.532C88.4979 193.168 88.2299 192.65 88.1861 192.093C88.1422 191.536 88.3261 190.985 88.6974 190.56C90.1007 188.473 91.6601 186.49 93.3627 184.629C98.2603 179.519 104.042 175.294 110.441 172.148L110.978 171.906C114.24 170.561 114.652 170.668 117.088 173.17C124.24 180.832 133.076 186.81 142.933 190.654C145.176 191.49 147.475 192.173 149.814 192.698C151.755 193.142 153.007 193.492 154.149 195.495C154.149 195.495 154.149 195.59 154.149 195.643C154.536 196.963 154.767 198.321 154.837 199.692ZM146.704 193.761C146.809 193.687 146.893 193.586 146.944 193.47C146.996 193.354 147.014 193.226 146.997 193.1C146.98 192.974 146.929 192.856 146.848 192.756C146.767 192.657 146.66 192.581 146.539 192.537C144.708 191.905 142.906 191.326 141.172 190.613C131.852 186.648 123.488 180.815 116.62 173.493C114.446 171.26 114.295 171.233 111.35 172.35C111.129 172.43 110.909 172.551 110.689 172.645C106.198 174.812 102.031 177.568 98.3033 180.836C96.528 182.342 94.849 183.956 93.06 185.583C92.9926 185.649 92.939 185.726 92.9025 185.811C92.866 185.897 92.8472 185.989 92.8472 186.081C92.8472 186.174 92.866 186.265 92.9025 186.351C92.939 186.436 92.9926 186.514 93.06 186.579C105.446 199.396 119.565 209.267 136.231 215.118C136.328 215.15 136.43 215.162 136.532 215.153C136.634 215.144 136.732 215.113 136.821 215.064C136.91 215.014 136.986 214.946 137.046 214.865C137.106 214.784 137.147 214.691 137.167 214.593C137.8 211.5 138.24 208.487 139.135 205.623C140.566 201.05 142.548 196.692 146.704 193.761ZM90.1287 191.568C90.0335 191.468 89.9105 191.397 89.7747 191.365C89.6388 191.332 89.4962 191.339 89.3645 191.385C89.2327 191.431 89.1176 191.513 89.0333 191.623C88.949 191.732 88.8992 191.862 88.8901 191.999C88.9049 192.257 88.9736 192.509 89.0919 192.741C89.2103 192.972 89.3757 193.177 89.5782 193.344C91.8627 195.576 94.0646 197.916 96.4592 200.068C107.026 209.982 119.625 217.592 133.424 222.394C134.8 222.838 136.093 223.241 137.552 223.658C137.735 223.717 137.934 223.702 138.105 223.618C138.277 223.533 138.407 223.386 138.467 223.207C138.528 223.029 138.513 222.835 138.426 222.667C138.34 222.499 138.189 222.372 138.006 222.313L137.58 222.165C135.997 221.641 134.401 221.103 132.832 220.511C117.262 214.391 103.244 205.028 91.7526 193.075L90.1287 191.568Z" fill="#121212"/>
<path d="M201.626 51.2948C201.199 52.4021 200.708 53.4843 200.153 54.536C196.641 60.0653 192.143 64.9346 186.873 68.9132C184.838 70.4634 182.675 71.8445 180.405 73.042C178.478 74.0911 177.914 73.8624 176.359 72.3292C175.939 71.8444 175.479 71.3946 174.982 70.9843C174.677 70.7956 174.414 70.5467 174.212 70.2533C174.01 69.9599 173.873 69.6286 173.81 69.2805C173.746 68.9325 173.758 68.5753 173.844 68.2318C173.93 67.8884 174.088 67.5662 174.308 67.2858C175.589 65.0593 177.024 62.9204 178.602 60.884C182.651 55.8183 187.585 51.4927 193.176 48.1073C196.575 46.1303 197.043 46.2379 199.768 49.0353C200.427 49.7563 201.047 50.5105 201.626 51.2948ZM178.23 68.3752C184.079 60.6419 190.478 53.7156 199.479 49.5464C197.125 47.0449 197.401 46.6952 193.726 48.4301C193.625 48.485 193.528 48.548 193.437 48.6184C187.029 52.591 181.468 57.738 177.061 63.7756C175.533 65.793 175.574 65.8333 177.446 67.6086L178.23 68.3752Z" fill="#121212"/>
<path d="M197.152 97.021C196.822 96.8454 196.521 96.6234 196.257 96.362C195.542 95.3802 194.881 94.3312 194.207 93.3494C193.684 92.6366 194.055 92.0852 194.551 91.6548C196.519 89.9199 198.445 88.0908 200.565 86.5307C206.066 82.3763 211.997 78.7972 218.262 75.8521C221.455 74.3996 221.469 74.4265 223.368 77.197C224.744 79.322 224.841 79.3623 222.928 81.1107C218.343 85.1688 213.323 88.7311 207.955 91.7355C205.12 93.4032 202.12 94.8154 199.175 96.2948C198.52 96.586 197.844 96.8287 197.152 97.021ZM223.299 78.3402C221.056 74.8838 221.923 74.7896 218.084 76.538C210.916 79.9363 204.178 84.1383 198.005 89.0591C197.714 89.2407 197.405 89.3939 197.083 89.5164L199.422 92.798C206.923 87.109 214.56 81.8773 223.354 78.3402H223.299Z" fill="#121212"/>
<path d="M188.138 83.2512C187.368 83.3058 186.599 83.1306 185.933 82.7488C185.267 82.3669 184.736 81.7964 184.409 81.1128C184.029 80.3541 183.568 79.6372 183.033 78.9744C182.648 78.5006 182.421 77.9224 182.384 77.3184C182.347 76.7144 182.502 76.1139 182.826 75.5987C183.997 73.5101 185.594 71.679 187.519 70.219C192.668 65.7854 198.788 62.5648 205.409 60.8046C206.313 60.5983 207.235 60.4723 208.162 60.428C208.934 60.3094 209.724 60.4479 210.405 60.8211C211.086 61.1943 211.62 61.7806 211.919 62.4858C212.311 63.2193 212.777 63.9131 213.309 64.5569C213.754 65.0934 213.996 65.7628 213.996 66.4532C213.996 67.1437 213.754 67.8131 213.309 68.3496C211.962 70.1797 210.436 71.8778 208.754 73.4199C204.052 77.4838 198.522 80.5274 192.528 82.3501C191.125 82.7805 189.611 82.9553 188.138 83.2512ZM185.95 79.1358C186.459 79.1358 187.106 79.0416 187.753 78.9206C188.479 78.807 189.196 78.6452 189.9 78.4364C195.927 76.5917 201.505 73.5619 206.29 69.5331C208.28 68.0761 209.892 66.1827 210.997 64.0055C211.795 62.1764 211.066 60.9794 209.029 60.9929C207.562 60.9782 206.099 61.1546 204.68 61.5174C199.402 63.0194 194.461 65.4836 190.12 68.7799C187.477 70.5054 185.236 72.7554 183.542 75.3835C182.221 77.6967 183.033 79.1089 185.95 79.1358ZM190.244 79.1358C190.505 79.7141 190.726 80.2386 190.946 80.7497C191.565 82.1753 191.551 82.0946 193.051 81.6911C197.871 80.0824 202.389 77.7156 206.428 74.6841C208.964 73.004 211.127 70.8402 212.786 68.3227C213.041 67.9768 213.225 67.585 213.325 67.1697C213.425 66.7545 213.441 66.324 213.37 65.9029C213.3 65.4818 213.145 65.0784 212.915 64.7159C212.685 64.3534 212.384 64.0388 212.029 63.7903C206.868 71.7119 198.859 75.7063 190.244 79.082V79.1358Z" fill="#121212"/>
<path d="M64.5273 105.064C65.1466 101.917 65.6421 99.0387 66.2889 96.1874C66.8485 93.6859 67.5091 91.2113 68.2706 88.7635C68.6207 88.0624 69.0855 87.4219 69.6468 86.8672C70.0165 87.6004 70.2672 88.3854 70.3899 89.1939C70.2895 90.5507 70.0918 91.8989 69.7982 93.2286C69.2477 96.4295 68.6559 99.617 68.1605 102.818C68.153 103.194 68.0114 103.556 67.7602 103.84C67.5089 104.125 67.1637 104.315 66.7843 104.378C66.1375 104.512 65.4769 104.768 64.5273 105.064Z" fill="#121212"/>
<path d="M269.402 247.29C269.12 248.658 268.48 249.931 267.544 250.984C266.608 252.038 265.409 252.836 264.063 253.302C250.218 258.184 236.36 263.052 222.584 268.096C220.616 268.928 218.402 269.019 216.37 268.351C214.337 267.683 212.629 266.303 211.575 264.478C210.112 261.903 208.895 259.202 207.942 256.409C200.685 237.096 193.473 217.769 186.308 198.429L166.78 146.085C165.843 143.661 165.68 141.016 166.312 138.5C166.55 137.289 167.104 136.158 167.918 135.216C168.733 134.274 169.781 133.552 170.963 133.12C182.441 128.996 193.932 124.898 205.437 120.828C205.726 120.72 206.015 120.666 206.373 120.572C206.536 120.929 206.669 121.298 206.772 121.675C206.804 122.286 207.047 122.867 207.462 123.324C207.878 123.782 208.44 124.087 209.056 124.19C209.29 124.19 209.593 124.822 209.552 125.132C209.488 125.813 209.216 126.461 208.772 126.991C208.328 127.52 207.732 127.908 207.061 128.104L186.487 135.42C185.661 135.716 184.822 135.998 183.996 136.321C183.192 136.726 182.267 136.838 181.386 136.636C180.506 136.433 179.728 135.931 179.193 135.218C177.61 133.214 175.918 132.865 173.454 133.873C168.046 135.985 165.995 139.845 167.95 145.413C170.289 152.03 172.807 158.606 175.257 165.197L188.4 200.393C195.895 220.513 203.4 240.628 210.914 260.739C211.73 263.261 213.53 265.368 215.924 266.603C216.73 267.015 217.618 267.255 218.526 267.306C219.435 267.357 220.345 267.218 221.194 266.899C235.149 261.923 249.113 256.955 263.086 251.997C264.166 251.697 265.155 251.143 265.966 250.383C266.776 249.624 267.385 248.682 267.737 247.64C268.067 246.618 268.659 246.954 269.402 247.29Z" fill="#9155F1"/>
<path d="M232.027 143.312C234.119 143.567 236.192 143.953 238.234 144.469C241.179 145.384 241.963 147.831 240.353 150.414C238.639 152.916 236.26 154.915 233.472 156.197C228.413 159.028 222.647 160.425 216.82 160.232C215.407 160.153 214.015 159.862 212.692 159.371C212.124 159.225 211.6 158.947 211.164 158.563C210.728 158.178 210.393 157.697 210.187 157.159C209.981 156.622 209.909 156.044 209.979 155.474C210.048 154.904 210.256 154.359 210.586 153.884C212.08 151.391 214.285 149.377 216.93 148.087C221.512 145.457 226.667 143.927 231.972 143.622L232.027 143.312Z" fill="#C6E6A3"/>
<path d="M210.201 159.197C210.328 159.38 210.439 159.574 210.531 159.776C211.329 163.084 213.944 164.052 216.93 164.416C222.072 164.898 227.252 164.025 231.931 161.887C233.665 161.174 235.261 160.166 236.954 159.345C237.27 159.197 237.848 159.13 238.041 159.345C239.852 160.796 241.061 162.843 241.44 165.101C241.839 168.41 240.339 170.804 237.119 172.377C234.096 173.768 230.735 174.304 227.417 173.924C222.601 173.61 217.997 171.869 214.219 168.934C212.294 167.556 210.852 165.63 210.091 163.42C209.706 162.032 209.745 160.565 210.201 159.197Z" fill="#C6E6A3"/>
<path d="M237.849 175.539C238.274 176.098 238.479 176.787 238.426 177.482C238.373 178.176 238.066 178.828 237.56 179.319C236.019 180.939 233.989 182.037 231.766 182.452C224.719 184.319 217.229 183.753 210.559 180.852C209.207 180.214 207.996 179.323 206.995 178.229C206.693 177.919 206.457 177.554 206.301 177.154C206.145 176.755 206.071 176.329 206.083 175.901C206.096 175.474 206.196 175.053 206.376 174.663C206.556 174.273 206.813 173.922 207.132 173.63C207.471 173.268 207.844 172.939 208.247 172.648C210.573 170.993 210.738 171.088 212.981 172.742C215.919 175.071 219.382 176.684 223.084 177.447C226.786 178.209 230.621 178.099 234.271 177.126C234.901 176.947 235.514 176.713 236.101 176.427C236.707 176.185 237.23 175.862 237.849 175.539Z" fill="#C6E6A3"/>
<path d="M210.459 120.022C209.395 119.892 208.338 119.708 207.294 119.47C206.289 119.201 205.987 118.408 206.606 117.641C207.611 116.249 209.064 115.226 210.735 114.736C213.994 113.882 217.16 112.72 220.189 111.266C222.305 110.378 224.516 109.724 226.781 109.316C229.732 108.538 232.816 108.373 235.836 108.832C236.162 108.887 236.472 109.006 236.749 109.182C237.026 109.357 237.263 109.586 237.446 109.854C237.612 110.231 237.144 111.132 236.703 111.428C234.972 112.699 233.13 113.82 231.199 114.777C224.938 117.659 218.187 119.392 211.285 119.887C211.015 119.901 210.744 119.901 210.473 119.887L210.459 120.022Z" fill="white"/>
<path d="M214.301 135.23L225.531 131.196C229.48 129.851 233.43 128.358 237.393 126.999C237.654 126.915 237.93 126.882 238.204 126.903C238.478 126.923 238.745 126.997 238.99 127.12C240.011 127.776 240.936 128.563 241.742 129.461C242.04 129.765 242.27 130.127 242.418 130.523C242.566 130.919 242.628 131.341 242.601 131.762C242.574 132.182 242.458 132.593 242.26 132.968C242.063 133.343 241.788 133.673 241.453 133.939C240.144 135.111 238.616 136.024 236.953 136.629C229.783 138.868 222.033 138.544 215.085 135.714C214.906 135.62 214.686 135.472 214.301 135.23Z" fill="#C6E6A3"/>
<path d="M237.888 111.371C237.998 111.721 238.095 112.084 238.218 112.447C238.893 114.478 238.783 114.962 236.994 116.267C234.035 118.244 230.787 119.772 227.36 120.799C222.987 122.299 218.445 123.284 213.832 123.731C212.841 123.825 212.319 123.583 212.195 122.547C212.074 121.861 211.909 121.182 211.699 120.517C221.099 119.252 230.168 117.262 237.888 111.371Z" fill="#9155F1"/>
<path d="M231.532 95.7711C228.318 95.2863 225.03 95.7548 222.091 97.116C216.39 99.182 211.222 102.446 206.953 106.678C206.953 106.678 206.774 106.799 206.568 106.947C205.963 106.187 205.411 105.387 204.916 104.553C204.792 104.325 205.081 103.733 205.343 103.451C208.413 100.407 211.98 97.884 215.898 95.9863C218.774 94.4509 221.882 93.3748 225.105 92.7988C226.093 92.6554 227.093 92.6058 228.091 92.6509C230.032 92.7988 230.775 94.1437 231.532 95.7711Z" fill="#9155F1"/>
<path d="M241.768 149.621C242.208 150.454 242.378 151.399 242.255 152.328C242.132 153.258 241.722 154.129 241.08 154.826C239.012 157.343 236.341 159.325 233.304 160.596C228.869 162.778 223.972 163.915 219.006 163.918C216.157 163.918 216.364 164.187 215.73 160.945C226.066 160.811 235.327 158.269 241.768 149.621Z" fill="#C6E6A3"/>
<path d="M210.463 181.819C212.651 182.424 214.688 183.164 216.78 183.527C222.589 184.795 228.652 184.37 234.216 182.303C235.658 181.598 237.038 180.779 238.345 179.855C238.506 180.712 238.393 181.597 238.021 182.389C237.649 183.181 237.037 183.841 236.267 184.28C234.401 185.33 232.402 186.135 230.322 186.674C224.22 188.049 217.84 187.638 211.977 185.491C210.188 184.859 210.202 184.818 210.367 182.976C210.367 182.572 210.422 182.182 210.463 181.819Z" fill="#C6E6A3"/>
<path d="M215.429 136.468C220.325 138.329 225.601 139.034 230.828 138.526C234.004 138.393 237.103 137.527 239.87 135.998C240.681 135.48 241.462 134.919 242.209 134.316C242.415 135.128 242.357 135.982 242.044 136.761C241.73 137.539 241.178 138.203 240.462 138.66C238.607 139.967 236.469 140.837 234.214 141.202C228.321 142.399 222.208 142.023 216.516 140.113C214.947 139.588 214.961 139.548 215.222 137.934C215.236 137.49 215.319 137.06 215.429 136.468Z" fill="#C6E6A3"/>
<path d="M264.228 227.695C263.265 228.139 262.852 227.843 262.549 227.036C255.696 208.628 248.838 190.221 241.975 171.814C241.617 170.832 241.012 169.89 241.549 168.801C241.645 168.613 241.769 168.438 241.975 168.102C249.476 188.06 256.866 207.83 264.228 227.695Z" fill="#9155F1"/>
<path d="M214.165 169.676C217.292 172.022 220.958 173.587 224.844 174.235C228.94 175.146 233.228 174.736 237.065 173.065C238.278 172.399 239.45 171.662 240.574 170.859C240.27 171.595 239.907 172.305 239.487 172.984C238.646 174.07 237.587 174.977 236.376 175.649C235.164 176.322 233.826 176.747 232.441 176.898C226.29 177.989 219.946 176.681 214.771 173.253C212.816 172.016 212.816 171.814 214.165 169.676Z" fill="#C6E6A3"/>
<path d="M170.029 161.658C170.28 161.885 170.494 162.148 170.662 162.438C172.148 166.365 173.635 170.293 175.038 174.247C175.149 174.542 174.736 175.013 174.557 175.403C174.171 175.215 173.552 175.107 173.442 174.825C171.901 170.871 170.428 166.903 168.956 162.922C168.625 162.075 169.272 161.887 170.029 161.658Z" fill="#C6E6A3"/>
<path d="M218.593 269.265C217.116 270.139 215.38 270.501 213.667 270.291C211.953 270.081 210.363 269.312 209.152 268.108C210.446 267.691 211.616 267.315 212.813 266.978C213.038 266.964 213.261 267.037 213.432 267.18C214.893 268.377 216.695 269.104 218.593 269.265Z" fill="#C6E6A3"/>
<path d="M161.91 144.363C160.988 141.229 162.007 139.817 165.612 139.131C165.612 140.328 165.612 141.511 165.612 142.695C165.583 142.814 165.525 142.925 165.444 143.019C165.363 143.112 165.26 143.185 165.144 143.233C164.085 143.636 163.039 143.973 161.91 144.363Z" fill="#C6E6A3"/>
<path d="M224.923 123.733L223.312 123.088C224.331 122.119 224.826 122.455 225.115 123.343L224.923 123.733Z" fill="white"/>
<path d="M107.111 164.079C102.709 165.245 98.582 167.236 94.9592 169.943C91.2435 172.445 87.7205 175.202 83.9497 178.013C83.0414 176.735 81.9405 175.323 81.0322 173.857C78.3899 169.49 75.7981 165.088 73.2567 160.65C72.9966 160.103 72.9383 159.485 73.0916 158.901C74.7705 152.863 78.0871 148.007 83.9222 145.089C85.8536 144.008 88.0867 143.556 90.2985 143.798C92.5103 144.04 94.586 144.963 96.2253 146.434C96.6509 146.823 97.0088 147.277 97.285 147.779C99.9775 153.282 103.131 158.559 106.712 163.555C106.85 163.662 106.946 163.864 107.111 164.079Z" fill="#9155F1" stroke="#121212" stroke-width="0.5" stroke-miterlimit="10"/>
<path d="M88.0726 98.3446C88.0702 98.9295 88.0624 99.503 88.0546 100.07C88.0364 101.405 88.0187 102.704 88.0735 104.026L88.0737 104.029C88.1085 104.71 88.2067 105.454 88.5116 106.078C88.8232 106.714 89.3496 107.221 90.2109 107.407C91.0733 107.594 91.7462 107.344 92.2697 106.9C92.7803 106.466 93.1461 105.851 93.4305 105.302C93.4306 105.301 93.4307 105.301 93.4308 105.301L93.2088 105.186C94.0197 103.643 94.7031 102.034 95.3926 100.411C95.5808 99.9682 95.7694 99.5241 95.9612 99.0801C96.2089 98.4883 96.3809 97.9234 96.553 97.3586C96.725 96.7937 96.897 96.2289 97.1447 95.6371M88.0726 98.3446L97.368 95.7513M88.0726 98.3446L85.8608 99.1275L85.8582 99.1284L85.8582 99.1284C82.483 100.281 79.1155 101.476 75.7454 102.672C73.4538 103.485 71.161 104.298 68.8638 105.099L88.0726 98.3446ZM97.1447 95.6371L97.3583 95.7671C97.3615 95.7618 97.3647 95.7565 97.368 95.7513M97.1447 95.6371L97.3753 95.7336C97.3729 95.7395 97.3704 95.7454 97.368 95.7513M97.1447 95.6371C97.3873 95.2385 97.7203 94.9017 98.1161 94.6515C98.0802 94.7787 98.0445 94.9059 98.009 95.0331C97.7552 95.2335 97.5379 95.4763 97.368 95.7513" fill="#9155F1" stroke="#121212" stroke-width="0.5"/>
<path d="M64.0187 105.349C63.9238 106.391 63.8187 107.426 63.7142 108.456C63.4582 110.978 63.2049 113.473 63.1097 115.976L63.1097 115.976C62.9994 119.021 63.0362 122.072 63.0729 125.115C63.0912 126.633 63.1095 128.15 63.1095 129.663C63.1095 129.976 63.109 130.186 63.0883 130.341C63.0684 130.49 63.0346 130.546 62.999 130.58C62.9555 130.622 62.8701 130.668 62.6697 130.715C62.5188 130.75 62.3266 130.781 62.0752 130.818C61.9096 129.489 61.8154 128.152 61.793 126.813C61.9443 121.437 62.1644 116.061 62.3982 110.684C62.4519 109.552 62.5982 108.429 62.7459 107.297C62.7859 106.99 62.8261 106.682 62.8645 106.373L62.8648 106.373L62.8657 106.361C62.8869 106.081 62.9022 105.9 62.9341 105.768C62.9632 105.647 62.999 105.599 63.044 105.565C63.1019 105.521 63.2068 105.478 63.4244 105.436C63.5793 105.406 63.7724 105.38 64.0187 105.349Z" fill="#9155F1" stroke="#121212" stroke-width="0.5"/>
<path d="M71.5624 168.586L79.0076 179.91C79.266 180.352 79.5703 180.767 79.9158 181.147C80.0853 181.281 80.2221 181.45 80.316 181.642C80.4099 181.834 80.4587 182.044 80.4587 182.257C80.4587 182.47 80.4099 182.68 80.316 182.872C80.2221 183.064 80.0853 183.233 79.9158 183.367C79.6739 183.134 79.4529 182.883 79.2553 182.613C76.8057 178.915 74.3698 175.189 71.8927 171.491C71.6076 171.066 71.4292 170.582 71.3718 170.077C71.3144 169.572 71.3797 169.061 71.5624 168.586Z" fill="#9155F1" stroke="#121212" stroke-width="0.5" stroke-miterlimit="10"/>
<path d="M184.164 45.2287C183.035 53.6209 179.443 60.7624 171.296 65.093C168.379 66.6262 165.503 66.3169 163.617 64.5416C162.786 63.7124 162.154 62.7121 161.768 61.6139C161.383 60.5157 161.253 59.3472 161.388 58.1936C161.562 54.5175 162.564 50.9242 164.322 47.6697C166.08 44.4152 168.551 41.5796 171.558 39.3648C173.211 38.0281 175.231 37.1997 177.365 36.9843C178.844 36.8265 180.328 37.2361 181.504 38.1268C182.68 39.0176 183.456 40.3197 183.668 41.7588C183.902 42.8213 183.971 43.8837 184.164 45.2287Z" fill="#F7F7F7"/>
<path d="M96.1797 48.4174C96.3919 47.0522 96.7046 45.7038 97.1155 44.3827C98.3403 40.9935 101.478 39.5948 105.18 40.6169L105.73 40.7917C106.483 40.9204 107.176 41.2762 107.712 41.8093C108.248 42.3423 108.599 43.0259 108.717 43.764C109.824 48.5261 112.703 52.7158 116.795 55.5185C117.545 55.9864 118.161 56.6331 118.585 57.3978C119.008 58.1625 119.226 59.02 119.217 59.8895C119.452 62.304 118.923 64.7307 117.703 66.8427C117.096 67.7981 116.212 68.5552 115.163 69.0175C114.114 69.4798 112.948 69.6263 111.813 69.4384C109.616 69.1651 107.548 68.2673 105.868 66.8562C99.9642 62.2028 96.9091 56.1103 96.1797 48.4174Z" fill="white"/>
<path d="M133.97 56.8099C131.833 57.5494 129.501 57.5494 127.365 56.8099C119.204 54.2411 113.685 49.0229 111.47 40.8054C111.139 39.4508 111.111 38.0427 111.387 36.6765C111.651 35.0774 112.506 33.6281 113.789 32.6023C115.071 31.5765 116.694 31.0452 118.351 31.1086C122.012 31.1018 125.576 32.2583 128.507 34.4036C128.664 34.6091 128.773 34.8453 128.828 35.096C128.883 35.3467 128.881 35.6061 128.823 35.8562C127.571 41.6748 128.447 47.7386 131.301 52.9904C132.124 54.3065 133.015 55.5812 133.97 56.8099Z" fill="white"/>
<path d="M145.255 57.7225C144.33 58.0955 143.326 58.2414 142.331 58.1476C141.335 58.0539 140.378 57.7232 139.544 57.1846C137.623 55.9553 136.097 54.2211 135.14 52.1815C133.619 49.2658 132.713 46.081 132.476 42.8163C132.24 39.5516 132.678 36.2738 133.764 33.1779C134.411 31.4111 135.412 29.7881 136.709 28.4034C137.671 27.3168 139.023 26.6308 140.486 26.4858C141.949 26.3408 143.414 26.7477 144.581 27.6234C146.903 29.2806 148.67 31.5741 149.659 34.2134C149.655 34.2492 149.655 34.2853 149.659 34.321C150.04 34.8496 150.195 35.503 150.089 36.1415C149.984 36.7799 149.627 37.3527 149.094 37.7371C145.992 40.9117 143.598 44.6807 142.062 48.8058C141.736 49.7681 141.505 50.7589 141.374 51.7646C141.19 52.5626 141.259 53.3964 141.571 54.1554C141.883 54.9144 142.424 55.5628 143.122 56.0145C143.796 56.4852 144.402 57.0366 145.255 57.7225Z" fill="white"/>
<path d="M112.298 71.1323C111.142 72.9883 109.243 73.2438 107.288 73.1093C104.004 72.8066 100.846 71.7164 98.0955 69.9353C93.5199 67.3534 89.7661 63.5825 87.2511 59.0415C86.6235 57.815 86.2007 56.4983 85.9987 55.1413C85.8443 54.5292 85.8343 53.8908 85.9696 53.2744C86.1049 52.658 86.3819 52.0797 86.7797 51.5834C87.1775 51.0871 87.6856 50.6858 88.2656 50.4097C88.8456 50.1337 89.4822 49.9903 90.1273 49.9903C92.4944 49.7078 92.4944 49.7616 92.8797 52.048C93.2439 55.7031 94.4603 59.228 96.4356 62.3521C98.4109 65.4762 101.093 68.1163 104.275 70.0698C105.424 70.8673 106.755 71.3806 108.152 71.5656C109.55 71.7507 110.972 71.602 112.298 71.1323Z" fill="white"/>
<path d="M82.8998 57.2266C83.2576 61.5841 85.5146 64.7715 88.2807 67.6227C92.4093 71.8996 97.3085 75.2215 103.419 76.3243C105.044 76.4608 106.679 76.4608 108.304 76.3243C107.713 76.8758 107.313 77.5617 106.735 77.6693C105.287 78.1379 103.775 78.3917 102.249 78.4224C98.7229 78.1701 95.3214 77.0404 92.368 75.1408C87.7991 72.451 83.7943 69.1559 81.4823 64.3815C80.941 63.1611 80.6421 61.8512 80.6016 60.5216C80.5993 59.8098 80.8176 59.114 81.2279 58.5258C81.6381 57.9376 82.221 57.4847 82.8998 57.2266Z" fill="#9155F1"/>
<path d="M164.757 31.9687C161.774 32.5121 159.014 33.8796 156.802 35.9093C151.485 40.0992 147.416 45.608 145.022 51.86C144.935 52.0222 144.839 52.1794 144.733 52.3307C143.998 51.908 143.307 51.4171 142.669 50.8647C142.53 50.6715 142.436 50.4512 142.394 50.2189C142.351 49.9867 142.36 49.7481 142.421 49.5198C143.78 45.6815 145.888 42.1372 148.628 39.0833C151.267 35.7305 154.62 32.9773 158.454 31.0138C159.179 30.6691 159.947 30.416 160.738 30.2607C162.293 29.8975 163.257 30.3279 164.757 31.9687Z" fill="#9155F1"/>
<path d="M177.844 36.2179C171.238 37.4552 167.358 41.7186 164.22 46.8427C162.217 50.1499 161.02 53.8639 160.724 57.6962C160.032 57.4348 159.364 57.1153 158.729 56.7413C158.586 56.6086 158.474 56.4475 158.4 56.2688C158.327 56.0901 158.293 55.8981 158.302 55.7057C159.21 47.5017 162.885 40.9117 170.234 36.581C171.236 35.9274 172.382 35.5169 173.579 35.3835C174.776 35.2502 175.988 35.3979 177.115 35.8144C177.365 35.9366 177.608 36.0713 177.844 36.2179Z" fill="#9155F1"/>
<path d="M93.2924 67.247L91.3382 69.8023C87.6638 66.44 84.3196 63.0777 83.604 58.0074C83.4561 57.2601 83.5231 56.4874 83.7976 55.7751C84.0722 55.0628 84.5435 54.4389 85.1591 53.9727C85.5995 59.702 89.3152 63.4946 93.2924 67.247Z" fill="#9155F1"/>
<path d="M88.1597 73.1617L86.2605 75.7304C83.854 73.9786 81.8088 71.7973 80.2328 69.3017C79.5239 68.0538 78.9608 66.732 78.5539 65.3612C78.3275 64.5706 78.3258 63.7348 78.5488 62.9434C78.7719 62.152 79.2113 61.4349 79.82 60.8691C80.5769 66.3026 84.2238 69.759 88.1597 73.1617Z" fill="#9155F1"/>
<path d="M117.47 52.2641L115.598 53.9318C112.573 51.2586 110.383 47.8037 109.282 43.966C109.282 43.6835 109.158 43.3742 109.075 43.0918C108.607 41.5182 108.827 40.1867 110.176 39.4336C110.94 41.7324 111.859 43.9789 112.929 46.1582C114.304 48.2885 115.821 50.3282 117.47 52.2641Z" fill="#9155F1"/>
<path d="M131.756 40.9124L129.004 41.2487C129.004 40.4552 129.004 39.7289 129.004 39.0027C129.126 36.1691 129.933 33.404 131.357 30.9332C131.902 29.7989 132.747 28.827 133.804 28.1178C134.861 27.4086 136.092 26.9877 137.371 26.8984C132.843 30.6373 131.949 35.6135 131.756 40.9124Z" fill="#9155F1"/>
<path d="M96.167 53.7031L99.9515 61.7726L97.4744 62.862C95.9019 60.5991 94.7296 58.094 94.0064 55.4515C93.9893 55.3145 94.0067 55.1756 94.057 55.0466C94.1074 54.9177 94.1892 54.8028 94.2954 54.7118C94.9009 54.3441 95.5256 54.0074 96.167 53.7031Z" fill="#9155F1"/>
<path d="M131.606 41.8002C132.17 44.5573 132.707 47.1799 133.285 50.0983C132.57 50.2106 131.848 50.2691 131.124 50.2732C130.955 50.2308 130.798 50.1486 130.669 50.0337C130.539 49.9189 130.441 49.7748 130.381 49.6141C129.886 47.4219 129.445 45.2028 129.005 42.9972C128.812 42.0826 129.266 41.7599 130.133 41.8002C130.656 41.8136 131.193 41.8002 131.606 41.8002Z" fill="white"/>
<path d="M97.3508 42.459C95.4379 45.633 95.5067 48.8204 95.9746 52.0886C95.979 52.3037 95.9358 52.5173 95.8479 52.7146C95.7601 52.9119 95.6296 53.0883 95.4654 53.2317C94.9343 53.5918 94.3671 53.8982 93.7727 54.1463C92.5203 50.246 93.3048 44.1401 97.3508 42.459Z" fill="#9155F1"/>
<path d="M108.801 39.3115L110.494 35.8281L110.796 35.9761C110.617 37.321 110.507 38.6928 108.801 39.3115Z" fill="white"/>
<path d="M147.883 193.009C142.915 195.914 140.686 200.634 139.117 205.651C138.14 208.758 137.741 212.039 136.984 215.415C119.768 209.524 105.263 199.37 92.5469 186.096C94.5286 184.294 96.3589 182.518 98.3131 180.864C102.041 177.596 106.208 174.84 110.699 172.673C110.919 172.579 111.139 172.458 111.359 172.378C114.304 171.261 114.456 171.288 116.63 173.521C123.501 180.834 131.865 186.657 141.181 190.615C143.342 191.502 145.585 192.188 147.883 193.009Z" fill="#9155F1"/>
<path d="M89.3689 190.803L91.6534 193.143C103.146 205.091 117.164 214.449 132.733 220.566C134.302 221.157 135.898 221.695 137.481 222.22C138.76 222.65 138.774 222.623 139.559 224.318C137.37 223.646 135.347 223.081 133.379 222.422C119.58 217.619 106.981 210.01 96.415 200.096C94.0617 197.931 91.8598 195.591 89.5341 193.372C89.3417 193.219 89.1838 193.03 89.0703 192.815C88.9568 192.6 88.8901 192.364 88.8746 192.123C88.8591 191.881 88.895 191.639 88.9801 191.412C89.0652 191.185 89.1976 190.977 89.3689 190.803Z" fill="#9155F1"/>
<path d="M178.245 68.3753L177.461 67.6625C175.589 65.8872 175.548 65.8469 177.075 63.8295C181.483 57.7919 187.044 52.6449 193.452 48.6723C193.543 48.6019 193.64 48.5389 193.741 48.484C197.415 46.7491 197.14 47.1391 199.493 49.6003C190.493 53.7157 184.094 60.6421 178.245 68.3753Z" fill="#9155F1"/>
<path d="M223.357 78.3407C214.563 81.8779 206.925 87.1096 199.425 92.7582L197.141 89.517C197.463 89.3944 197.771 89.2413 198.063 89.0597C204.236 84.1388 210.974 79.9368 218.141 76.5386C221.981 74.7902 221.114 74.8843 223.357 78.3407Z" fill="#9155F1"/>
<path d="M185.949 79.134C183.087 79.134 182.22 77.6949 183.541 75.3817C185.235 72.7536 187.477 70.5036 190.119 68.7781C194.461 65.4818 199.401 63.0176 204.679 61.5156C206.099 61.1528 207.561 60.9764 209.028 60.9911C211.065 60.9911 211.781 62.1746 210.996 64.0037C209.892 66.1809 208.28 68.0743 206.29 69.5313C201.508 73.5585 195.936 76.5882 189.913 78.4346C189.209 78.6434 188.492 78.8052 187.766 78.9188C187.161 79.0398 186.459 79.0802 185.949 79.134Z" fill="white"/>
<path d="M190.242 79.0807C198.857 75.705 206.867 71.7106 211.972 63.7891C212.327 64.0376 212.628 64.3521 212.858 64.7146C213.089 65.0772 213.243 65.4806 213.314 65.9016C213.384 66.3227 213.369 66.7532 213.268 67.1685C213.168 67.5837 212.985 67.9755 212.729 68.3214C211.086 70.8337 208.943 72.9972 206.426 74.6829C202.4 77.6903 197.901 80.0386 193.105 81.6361C191.605 82.1068 191.618 82.1202 190.999 80.6946C190.724 80.1836 190.504 79.659 190.242 79.0807Z" fill="#9155F1"/>
<path d="M218.304 215.187C213.019 215.067 207.938 213.167 203.922 209.807C199.794 206.539 196.725 202.585 196.367 197.017C196.365 196.508 196.454 196.003 196.629 195.524C197.854 193.52 198.913 191.489 200.317 189.553C200.976 188.779 201.795 188.149 202.719 187.704C203.644 187.259 204.654 187.009 205.684 186.97C211.189 186.392 215.992 188.396 220.354 191.476C223.623 193.674 226.194 196.727 227.772 200.285C228.547 201.816 228.862 203.531 228.682 205.23C228.502 206.929 227.833 208.544 226.754 209.888C225.24 211.757 223.643 214.877 218.304 215.187ZM219.556 211.529H220.602C224.978 211.3 227.786 208.933 227.965 205.033C228.005 203.601 227.757 202.175 227.235 200.837C225.251 196.114 221.543 192.28 216.831 190.077C213.327 188.01 209.2 187.189 205.147 187.751C204.149 187.852 203.185 188.167 202.324 188.671C201.464 189.175 200.726 189.858 200.163 190.67C199.601 191.483 199.227 192.406 199.068 193.374C198.909 194.343 198.969 195.334 199.243 196.277C199.922 199.166 201.414 201.812 203.551 203.916C205.576 206.148 208.032 207.966 210.779 209.265C213.526 210.565 216.509 211.32 219.556 211.488V211.529ZM225.061 211.004C223.008 212.001 220.71 212.416 218.428 212.201C214.09 211.788 209.976 210.126 206.606 207.427C204.363 205.638 202.477 203.486 200.289 201.469C198.638 202.679 198.583 202.921 199.835 204.67C201.477 206.967 203.55 208.939 205.945 210.48C210.074 213.169 214.505 214.824 219.556 214.218C220.671 214.129 221.749 213.789 222.706 213.224C223.664 212.66 224.474 211.886 225.075 210.964L225.061 211.004Z" fill="#121212"/>
<path d="M192.53 130.739C192.321 130.834 192.086 130.858 191.861 130.806C191.637 130.755 191.436 130.632 191.292 130.457C191.157 130.342 191.057 130.193 191.003 130.026C190.941 129.82 190.942 129.601 191.005 129.396C191.069 129.19 191.192 129.008 191.361 128.87C193.453 128.036 195.586 127.256 197.732 126.583C197.957 126.533 198.192 126.56 198.398 126.661C198.604 126.761 198.768 126.929 198.861 127.135C199.219 127.888 198.489 128.587 198.049 128.776C196.246 129.475 192.558 130.726 192.53 130.739ZM197.939 128.291C198.077 128.099 198.138 127.864 198.11 127.631C198.082 127.398 197.967 127.183 197.788 127.027C197.741 126.988 197.685 126.96 197.626 126.946C197.566 126.932 197.503 126.932 197.444 126.946C195.586 127.525 193.755 128.184 191.939 128.91C191.868 128.938 191.806 128.985 191.76 129.045C191.682 129.154 191.633 129.281 191.617 129.413C191.602 129.546 191.62 129.68 191.67 129.804C191.721 129.928 191.802 130.037 191.906 130.123C192.011 130.209 192.135 130.268 192.269 130.295C192.342 130.309 192.416 130.309 192.489 130.295C194.251 129.744 195.985 129.112 197.705 128.453C197.8 128.428 197.883 128.371 197.939 128.291Z" fill="#121212"/>
<path d="M219.559 211.489C216.506 211.31 213.52 210.542 210.772 209.229C208.025 207.915 205.572 206.082 203.554 203.836C201.418 201.732 199.926 199.086 199.247 196.197C198.972 195.253 198.912 194.263 199.071 193.294C199.23 192.325 199.604 191.402 200.166 190.59C200.729 189.777 201.467 189.095 202.328 188.591C203.189 188.086 204.152 187.772 205.15 187.67C209.203 187.108 213.33 187.93 216.834 189.997C221.546 192.2 225.254 196.034 227.238 200.756C227.76 202.095 228.008 203.521 227.968 204.952C227.789 208.853 224.981 211.22 220.605 211.448L219.559 211.489Z" fill="#C6E6A3"/>
<path d="M225.076 210.961C224.473 211.874 223.663 212.639 222.708 213.197C221.753 213.754 220.68 214.089 219.572 214.176C214.521 214.781 210.09 213.1 205.961 210.437C203.566 208.896 201.492 206.924 199.851 204.627C198.598 202.878 198.653 202.636 200.305 201.426C202.424 203.443 204.433 205.595 206.622 207.384C209.992 210.083 214.106 211.745 218.443 212.158C220.725 212.373 223.023 211.958 225.076 210.961Z" fill="#C6E6A3"/>
<path d="M197.675 126.932C197.832 126.971 197.973 127.054 198.082 127.171C198.191 127.288 198.262 127.433 198.287 127.59C198.312 127.746 198.289 127.905 198.222 128.049C198.155 128.193 198.046 128.314 197.909 128.398L197.717 128.492C195.955 129.178 194.18 129.837 192.391 130.388C192.314 130.409 192.233 130.409 192.157 130.388C192.009 130.366 191.87 130.306 191.754 130.213C191.638 130.121 191.549 129.999 191.497 129.862C191.446 129.725 191.432 129.577 191.458 129.433C191.485 129.289 191.55 129.155 191.648 129.044C191.693 128.98 191.755 128.929 191.826 128.896C193.671 128.156 195.556 127.47 197.469 126.865C197.506 126.861 197.544 126.865 197.58 126.876C197.615 126.888 197.648 126.907 197.675 126.932Z" fill="white"/>
<path d="M66.5499 47.4614C66.6462 49.156 66.8389 50.8506 66.9902 52.5317C67.1416 54.2129 66.7701 54.6836 65.1874 55.2215L64.3067 55.5309C63.9089 55.6357 63.5668 55.8843 63.3496 56.2265C63.1324 56.5686 63.0564 56.9786 63.1369 57.3734C63.1369 57.8172 63.2332 58.2745 63.247 58.7183C63.3002 59.1928 63.1783 59.6703 62.9033 60.0648C62.6283 60.4593 62.2183 60.7449 61.747 60.8702C60.2469 61.3409 58.7744 61.9327 57.2881 62.4572C55.1963 63.1969 55.1 63.3179 55.2651 65.4832C55.4027 67.1644 55.0724 67.662 53.4072 68.2672C49.0998 69.8273 44.7923 71.3739 40.4986 72.9475C40.0962 73.1295 39.6487 73.1946 39.2095 73.135C38.7703 73.0753 38.3579 72.8936 38.0214 72.6113C35.2691 70.446 35.2002 70.4729 31.8699 71.6564C31.6281 71.7774 31.3678 71.8591 31.0992 71.8985C30.6836 71.9432 30.263 71.8878 29.8744 71.7371C28.223 70.7822 26.5853 69.8004 24.9752 68.7648C22.6907 67.2854 20.42 65.7926 18.1905 64.2325C17.9451 64.0706 17.7373 63.86 17.5808 63.6143C17.4243 63.3687 17.3226 63.0935 17.2823 62.8069C17.3909 61.7433 17.1313 60.6749 16.5449 59.7727C15.9586 58.8705 15.0794 58.1867 14.0482 57.8307C13.8418 57.7365 13.6766 57.5617 13.4564 57.4541C13.0602 57.2618 12.7296 56.9611 12.5048 56.5887C12.2801 56.2162 12.1708 55.788 12.1903 55.356C11.8325 51.1061 11.4334 46.8965 11.0068 42.6869C10.7729 40.2795 10.9105 39.9971 13.2775 39.244C14.6537 38.7732 14.9014 38.437 14.7776 36.9845C14.64 35.3303 14.4611 33.676 14.3097 32.0218C14.2348 31.7448 14.2194 31.4557 14.2647 31.1727C14.3099 30.8896 14.4147 30.6189 14.5725 30.3774C14.7303 30.136 14.9376 29.9292 15.1814 29.7701C15.4251 29.611 15.7 29.503 15.9886 29.453L17.0758 29.0764C17.4364 28.9815 17.7489 28.7608 17.9543 28.456C18.1597 28.1512 18.2438 27.7834 18.1905 27.4222C18.1905 27.0187 18.108 26.6018 18.0667 26.1849C17.9973 25.9268 17.9821 25.6577 18.022 25.3938C18.0619 25.1298 18.156 24.8765 18.2988 24.6491C18.4415 24.4216 18.6299 24.2248 18.8525 24.0703C19.0751 23.9159 19.3275 23.8071 19.5942 23.7506C21.0392 23.2126 22.498 22.7015 23.943 22.2039C26.1724 21.4104 26.2688 21.2759 26.0348 19.0165C25.9531 18.7413 25.9319 18.4523 25.9726 18.1686C26.0133 17.8848 26.115 17.6127 26.2709 17.3701C26.4269 17.1274 26.6337 16.9198 26.8776 16.7609C27.1215 16.6019 27.3971 16.4952 27.6863 16.4477C32.0212 14.8741 36.37 13.3006 40.6912 11.7136C41.1131 11.4994 41.5937 11.4218 42.0637 11.4919C42.5337 11.562 42.9687 11.7762 43.306 12.1036C45.2189 13.8789 47.352 10.3552 51.5632 13.0316C54.8798 15.0893 58.1138 17.2815 61.4992 19.2451C62.4195 19.6621 63.187 20.3445 63.6987 21.2004C64.2104 22.0563 64.4418 23.0448 64.3617 24.033C64.3681 24.2888 64.4289 24.5405 64.5402 24.772C64.6516 25.0036 64.8111 25.2099 65.0085 25.3779C66.0407 26.1714 67.1967 26.7901 68.2426 27.5701C68.6547 27.8731 68.9387 28.3134 69.0408 28.8074C69.5362 33.5012 69.949 38.2218 70.417 42.9021C70.4835 43.4021 70.3547 43.9083 70.0562 44.3196C69.7578 44.7309 69.3116 45.0172 68.8068 45.1212C68.2288 45.3095 67.6646 45.5516 66.8664 45.8609C66.6949 46.3799 66.5886 46.9173 66.5499 47.4614ZM34.1543 24.0733C34.2507 26.7632 34.1543 26.8304 31.6359 27.7584C30.2597 28.2426 28.8835 28.794 27.5073 29.2378C27.0818 29.3225 26.7043 29.5603 26.4495 29.9039C26.1946 30.2476 26.081 30.6722 26.1312 31.0938C26.1312 31.3897 26.1312 31.699 26.2 31.9949C26.2791 32.2902 26.2953 32.5983 26.2478 32.9001C26.2002 33.2018 26.0898 33.4908 25.9235 33.7492C25.7571 34.0076 25.5382 34.23 25.2804 34.4024C25.0226 34.5749 24.7314 34.6939 24.4247 34.752C22.2916 35.5455 22.2228 35.653 22.443 37.8991C22.5806 39.365 22.7044 40.831 22.8558 42.2969C22.9565 42.8056 22.8544 43.3327 22.5704 43.7702C22.2864 44.2078 21.842 44.5227 21.3282 44.6505C20.9567 44.785 20.6126 44.9464 20.2411 45.054C19.8226 45.1564 19.46 45.4111 19.2272 45.7661C18.9945 46.121 18.9092 46.5494 18.9887 46.9638C19.4153 51.5903 19.8557 56.2168 20.2823 60.8433C20.3649 61.8251 20.8603 61.9327 21.6585 61.6771C24.4935 60.776 24.5072 60.7895 24.7825 63.6541C24.8926 64.9991 25.0027 66.2095 25.1403 67.4871C25.2779 68.7648 25.5944 69.0069 26.8468 68.5765H26.9569C29.2001 67.8099 29.434 67.9579 29.7092 70.2846C29.8606 71.6295 30.1634 71.7774 31.4432 71.3201L36.1361 69.6794C37.7875 69.101 38.2416 69.3835 38.4205 71.0243C38.4205 71.1722 38.4205 71.3201 38.4205 71.4681C38.5582 72.813 38.8609 73.0147 40.127 72.5575L53.6687 67.7427C54.0606 67.6273 54.3964 67.377 54.614 67.0383C54.8316 66.6995 54.9162 66.2952 54.8522 65.9002C54.8522 65.5236 54.8522 65.1604 54.7697 64.7839C54.7112 64.5154 54.7076 64.2382 54.759 63.9684C54.8105 63.6985 54.9159 63.4412 55.0694 63.2113C55.2228 62.9814 55.4212 62.7833 55.6532 62.6285C55.8851 62.4737 56.1461 62.3652 56.4211 62.3092L61.2102 60.6012C62.5864 60.0901 62.9167 59.6732 62.8066 58.2476C62.6277 55.8267 62.8066 55.6654 65.0911 54.7912C66.4673 54.2935 66.6875 53.8901 66.5636 52.4779C66.426 50.8237 66.2471 49.1694 66.1232 47.5152C65.9994 45.8609 66.3572 45.5651 67.7471 45.0271C70.1004 44.1395 70.1004 44.1394 69.8665 41.6379C69.4903 37.5314 69.1096 33.4339 68.7242 29.3454C68.5866 27.866 68.3389 27.7181 66.9077 28.2291L66.137 28.4981C64.9535 28.8478 64.3617 28.4981 64.2241 27.2877C64.0452 25.6065 63.9076 23.912 63.7424 22.2174C63.6048 20.8724 63.3433 20.6842 61.9809 21.1818C61.7607 21.2625 61.5543 21.3701 61.3341 21.4373C59.9579 21.8677 59.3937 21.518 59.2423 20.0924C58.9946 17.8867 58.9946 17.8867 56.8615 18.6668L52.5953 20.1731C51.2191 20.6438 50.6411 20.3076 50.476 18.8954C50.2145 16.6494 50.2145 16.6494 48.0401 17.4295L35.7782 21.8677L34.4709 22.3787C34.3038 22.931 34.1977 23.4991 34.1543 24.0733ZM35.9709 21.3028C40.0995 19.7562 44.2281 18.2902 48.453 16.7839C48.6558 16.7014 48.8534 16.6071 49.0447 16.5015C48.8178 16.2744 48.5789 16.0589 48.3291 15.8559C46.5401 14.6724 44.7372 13.5023 42.962 12.3188C42.6888 12.1146 42.364 11.9867 42.0222 11.9488C41.6805 11.9109 41.3346 11.9644 41.0215 12.1036C36.5902 13.7579 32.1176 15.318 27.6863 16.9587C27.1927 17.1987 26.799 17.5977 26.5715 18.0885C26.5715 18.2499 27.0119 18.8013 27.356 19.0299C29.379 20.3748 31.4845 21.7197 33.1772 22.8764C34.0681 22.2861 35.0018 21.7602 35.9709 21.3028ZM27.8514 28.6595C29.2276 28.0543 30.7139 27.5836 32.2965 27.0052C32.1129 26.795 31.9103 26.6014 31.691 26.4269C29.8056 25.1627 27.9477 23.8985 26.0211 22.7015C25.578 22.4441 25.0493 22.3668 24.5485 22.4863C22.8971 22.9974 21.2732 23.5892 19.6768 24.2347C19.4412 24.3371 19.2294 24.4853 19.0544 24.6703C18.8793 24.8553 18.7446 25.0732 18.6584 25.3107C18.5896 25.5796 19.1126 26.0907 19.4704 26.3462C21.4934 27.6912 23.599 29.0361 25.2779 30.1792C26.1026 29.6209 26.9621 29.1134 27.8514 28.6595ZM49.5401 16.1384C49.9712 16.3522 50.3302 16.6827 50.5742 17.0905C50.8182 17.4983 50.937 17.9662 50.9163 18.4382C50.9851 20.0117 51.2466 20.1327 52.7467 19.5948L58.0312 17.6985C56.655 16.8377 49.3062 13.2199 47.0217 14.4572C47.9575 15.1028 48.7144 15.6945 49.5401 16.1384ZM20.8328 44.1394C20.6582 43.9677 20.4695 43.8103 20.2686 43.6687C18.4337 42.4583 16.5987 41.2524 14.7638 40.0509C14.2542 39.769 13.6585 39.6737 13.0835 39.7821C12.5084 39.8906 11.9918 40.1956 11.6261 40.6427C11.5518 40.8222 11.5242 41.0169 11.5458 41.2093C11.5674 41.4018 11.6376 41.586 11.75 41.7455C13.9106 43.2518 16.14 44.6774 18.1493 45.9954L20.8328 44.1394ZM24.2871 34.0391C22.0576 32.5866 19.8557 31.0938 17.5988 29.6816C16.9795 29.2916 15.1629 30.0717 14.929 30.7845C14.8858 30.9471 14.8833 31.1176 14.9216 31.2814C14.9599 31.4452 15.038 31.5977 15.1492 31.7259C17.3235 33.2188 19.553 34.6578 21.5897 36.0027L24.2871 34.0391ZM67.4306 27.4491L64.5406 25.5527C64.5819 28.4309 64.7746 28.5519 67.4306 27.4491ZM59.9717 18.8282C59.7689 18.7772 59.5615 18.7457 59.3524 18.734C59.6276 19.6351 59.6689 20.6035 60.1781 21.0876C60.4671 21.3566 61.5543 20.8321 62.2699 20.6707V20.3479L59.9717 18.8282Z" fill="#121212"/>
<path d="M35.779 21.8674L48.0408 17.483C50.2152 16.7029 50.2152 16.7029 50.4767 18.9489C50.6418 20.2938 51.1923 20.6973 52.596 20.2266L56.8347 18.7203C58.9678 17.9402 58.9678 17.9402 59.2155 20.1459C59.3669 21.5715 59.9173 21.9212 61.3073 21.4908C61.5275 21.4908 61.7339 21.316 61.9541 21.2353C63.3303 20.7376 63.578 20.8856 63.7156 22.2708C63.8808 23.9654 64.0184 25.66 64.1973 27.3412C64.3349 28.5381 64.9267 28.9013 66.1102 28.5516L66.8809 28.2826C68.2571 27.7715 68.5598 27.9195 68.6974 29.3989C69.0828 33.4874 69.4635 37.5849 69.8397 41.6914C70.0736 44.1929 70.0736 44.1929 67.7203 45.0806C66.3442 45.6185 65.9863 46.0893 66.0964 47.5687C66.2065 49.0481 66.3992 50.8772 66.5368 52.5314C66.6607 53.8763 66.3992 54.347 65.0643 54.8446C62.711 55.7188 62.6009 55.8802 62.7798 58.3011C62.8899 59.7267 62.6009 60.1436 61.1834 60.6547L56.4218 62.3089C56.1425 62.3646 55.8775 62.4744 55.6423 62.6318C55.4072 62.7893 55.2067 62.9912 55.0527 63.2257C54.8988 63.4601 54.7945 63.7223 54.746 63.9968C54.6975 64.2714 54.7058 64.5526 54.7704 64.8239C54.7704 65.2005 54.8392 65.5636 54.853 65.9402C54.9063 66.3289 54.8166 66.7236 54.5999 67.0537C54.3831 67.3838 54.0533 67.6279 53.6694 67.7424L40.3066 72.5437C39.0405 73.001 38.7378 72.7858 38.6002 71.4543C38.6002 71.3064 38.6002 71.1584 38.6002 71.0105C38.4213 69.3428 37.9671 69.0604 36.3157 69.6656L31.5265 71.2795C30.2467 71.7368 29.9439 71.5619 29.7925 70.2439C29.5311 67.9172 29.2971 67.7693 27.0402 68.5359H26.9301C25.6777 68.9662 25.3612 68.7779 25.2236 67.4465C25.086 66.115 24.9759 64.8911 24.8658 63.6135C24.5905 60.7488 24.5768 60.7354 21.7418 61.6365C20.8886 61.892 20.3656 61.7844 20.3656 60.8026C19.939 56.1761 19.4986 51.5496 19.072 46.9231C18.9925 46.5088 19.0778 46.0804 19.3105 45.7254C19.5433 45.3705 19.9059 45.1158 20.3244 45.0133C20.6959 44.9057 21.04 44.7443 21.4115 44.6099C21.9253 44.482 22.3697 44.1671 22.6537 43.7296C22.9377 43.292 23.0398 42.765 22.9391 42.2563C22.7877 40.7903 22.6639 39.3243 22.5263 37.8584C22.3061 35.6124 22.3749 35.5048 24.508 34.7113C24.8147 34.6532 25.1059 34.5342 25.3637 34.3618C25.6215 34.1893 25.8404 33.967 26.0067 33.7086C26.1731 33.4502 26.2835 33.1612 26.3311 32.8594C26.3786 32.5577 26.3624 32.2496 26.2833 31.9542C26.2833 31.6583 26.2833 31.349 26.2144 31.0531C26.1643 30.6315 26.2779 30.2069 26.5328 29.8633C26.7876 29.5196 27.1651 29.2819 27.5906 29.1971C28.9668 28.7533 30.343 28.2019 31.7192 27.7177C34.2927 26.7898 34.334 26.6822 34.2376 24.0327C34.2343 23.4772 34.2896 22.9228 34.4028 22.3784L35.779 21.8674Z" fill="white"/>
<path d="M33.1799 22.863C34.0575 22.2745 34.9773 21.7486 35.9323 21.2895C40.0609 19.7428 44.1895 18.2769 48.4144 16.7706C48.6172 16.688 48.8148 16.5937 49.0061 16.4881C48.7792 16.261 48.5403 16.0455 48.2905 15.8426C46.5015 14.659 44.6986 13.489 42.9234 12.3054C42.6533 12.1108 42.3352 11.9897 42.0016 11.9542C41.668 11.9188 41.3308 11.9704 41.0242 12.1037C36.5929 13.758 32.1203 15.318 27.6889 16.9588C27.1954 17.1988 26.8017 17.5978 26.5742 18.0886C26.5742 18.25 27.0146 18.8014 27.3586 19.03C29.3816 20.4018 31.4322 21.7333 33.1799 22.863Z" fill="white"/>
<path d="M25.278 30.1795C26.1027 29.6212 26.9622 29.1136 27.8515 28.6597C29.2276 28.0545 30.7139 27.5838 32.2965 27.0055C32.113 26.7952 31.9103 26.6016 31.691 26.4271C29.8056 25.1629 27.9478 23.8987 26.0211 22.7017C25.5781 22.4443 25.0493 22.367 24.5486 22.4865C22.8972 22.9976 21.2733 23.5894 19.6769 24.2349C19.4413 24.3373 19.2295 24.4855 19.0544 24.6705C18.8793 24.8555 18.7446 25.0734 18.6585 25.3109C18.5897 25.5798 19.1126 26.0909 19.4705 26.3464C21.4935 27.7183 23.544 29.0363 25.278 30.1795Z" fill="white"/>
<path d="M47.0469 14.4699C47.9552 15.102 48.7121 15.6938 49.5378 16.151C49.9688 16.3649 50.3278 16.6954 50.5718 17.1032C50.8159 17.511 50.9346 17.9789 50.914 18.4508C50.9828 20.0244 51.2443 20.1454 52.7443 19.6075L58.0289 17.7111L54.4921 15.3979C54.0792 15.1289 49.2763 13.2326 47.0469 14.4699Z" fill="white"/>
<path d="M18.191 45.9952L20.8332 44.1392C20.6587 43.9675 20.4699 43.8101 20.269 43.6685C18.4341 42.4581 16.5992 41.2522 14.7642 40.0507C14.2546 39.7688 13.6589 39.6735 13.0839 39.7819C12.5089 39.8903 11.9922 40.1954 11.6265 40.6425C11.5522 40.8219 11.5246 41.0167 11.5462 41.2091C11.5678 41.4016 11.638 41.5858 11.7504 41.7453C13.9523 43.2516 16.1817 44.6772 18.191 45.9952Z" fill="white"/>
<path d="M21.5893 36.0034L24.3417 34.0398C22.1122 32.5873 19.9103 31.0944 17.6534 29.6823C17.0341 29.2923 15.2175 30.0723 14.9836 30.7851C14.9404 30.9478 14.9379 31.1182 14.9762 31.2821C15.0145 31.4459 15.0926 31.5983 15.2037 31.7266C17.3231 33.2194 19.5525 34.6585 21.5893 36.0034Z" fill="white"/>
<path d="M64.5391 25.5527C64.5391 28.4577 64.773 28.5788 67.4428 27.476L64.5391 25.5527Z" fill="white"/>
<path d="M62.2278 20.2791L59.9708 18.8266C59.768 18.7756 59.5606 18.7441 59.3516 18.7324C59.6268 19.6335 59.6681 20.6019 60.1773 21.086C60.4663 21.355 61.5535 20.8305 62.2691 20.6691L62.2278 20.2791Z" fill="white"/>
<path d="M32.5162 67.9305L41.9294 57.8571L40.4018 53.7686L48.9755 44.3407L47.5993 40.6019L54.9756 32.3844L56.7234 38.4096L61.0859 37.2934L58.5262 24.4629L46.1405 25.6195L46.2368 30.2864L52.5535 29.6408L42.6725 40.2387L44.2414 43.8296L36.0117 53.0289L37.4017 56.9157L30.9336 64.0437L32.5162 67.9305Z" fill="#9155F1"/>
<path d="M35.0516 38.8312L38.471 37.7366L38.328 35.2991L34.8696 36.4084L34.6486 33.2266L31.8923 33.9709L32.1523 37.3425L28.6289 38.4955L28.7979 40.7578L32.3603 39.6632L32.5163 42.845L35.2857 41.9547L35.0516 38.8312Z" fill="#9155F1"/>
<path d="M162.843 41.5339C157.922 49.8407 158.817 52.9011 149.787 57.0346C147.554 57.7287 146.171 56.734 145.973 54.632C145.906 53.6622 146.022 52.5841 146.312 51.4764C146.602 50.3686 147.059 49.2591 147.65 48.2288C149.397 44.8822 151.544 41.816 153.939 39.2487C156.334 36.6815 158.918 34.6762 161.506 33.3758C162.982 32.5509 164.424 32.2856 165.65 32.6134C166.503 32.8326 167.104 33.5763 167.326 34.6877C167.547 35.799 167.405 36.2198 166.869 37.5991C166.515 38.6365 163.346 40.2463 162.843 41.5339Z" fill="#F0FFDF"/>
<path d="M210.479 119.793C209.415 119.664 208.358 119.48 207.314 119.242C206.309 118.973 206.006 118.179 206.626 117.413C207.63 116.02 209.084 114.997 210.754 114.508C214.013 113.654 217.18 112.492 220.209 111.038C222.325 110.15 224.536 109.496 226.8 109.088C229.751 108.309 232.836 108.144 235.856 108.604C236.181 108.658 236.491 108.777 236.768 108.953C237.045 109.129 237.282 109.358 237.466 109.626C237.631 110.002 237.163 110.903 236.723 111.199C234.992 112.471 233.15 113.591 231.218 114.548C224.957 117.431 218.207 119.163 211.305 119.659C211.034 119.672 210.763 119.672 210.493 119.659L210.479 119.793Z" fill="#F0FFDF"/>
<path d="M184.183 45.0041C183.055 53.3963 179.463 60.5378 171.316 64.8684C168.398 66.4016 165.522 66.0923 163.637 64.317C162.805 63.4878 162.173 62.4875 161.788 61.3893C161.402 60.2911 161.272 59.1226 161.407 57.969C161.582 54.2929 162.584 50.6996 164.342 47.4451C166.099 44.1906 168.57 41.355 171.577 39.1402C173.23 37.8035 175.251 36.9751 177.385 36.7597C178.864 36.6019 180.348 37.0115 181.524 37.9022C182.7 38.7929 183.475 40.0951 183.688 41.5342C183.922 42.5967 183.991 43.6591 184.183 45.0041Z" fill="#F0FFDF"/>
<path d="M96.2031 48.1908C96.4153 46.8257 96.728 45.4773 97.1389 44.1561C98.3637 40.7669 101.501 39.3682 105.203 40.3903L105.754 40.5652C106.507 40.6939 107.2 41.0497 107.735 41.5827C108.271 42.1158 108.622 42.7993 108.74 43.5374C109.847 48.2995 112.726 52.4892 116.818 55.292C117.569 55.7598 118.184 56.4065 118.608 57.1712C119.032 57.9359 119.25 58.7934 119.241 59.663C119.475 62.0774 118.947 64.5042 117.727 66.6162C117.12 67.5715 116.235 68.3286 115.186 68.7909C114.137 69.2532 112.971 69.3997 111.837 69.2118C109.639 68.9386 107.572 68.0407 105.892 66.6296C99.9877 61.9762 96.9325 55.8837 96.2031 48.1908Z" fill="#F0FFDF"/>
<path d="M133.994 56.5833C131.857 57.3228 129.525 57.3228 127.388 56.5833C119.227 54.0146 113.709 48.7963 111.493 40.5789C111.163 39.2243 111.135 37.8161 111.41 36.45C111.675 34.8508 112.529 33.4015 113.812 32.3757C115.095 31.3499 116.718 30.8186 118.374 30.882C122.035 30.8752 125.6 32.0317 128.53 34.1771C128.687 34.3825 128.797 34.6187 128.851 34.8694C128.906 35.1202 128.904 35.3795 128.847 35.6296C127.594 41.4483 128.471 47.512 131.324 52.7638C132.148 54.0799 133.039 55.3547 133.994 56.5833Z" fill="#F0FFDF"/>
<path d="M145.278 57.4979C144.354 57.8708 143.35 58.0168 142.354 57.923C141.359 57.8292 140.402 57.4986 139.567 56.96C137.646 55.7307 136.12 53.9965 135.163 51.9569C133.642 49.0412 132.736 45.8563 132.5 42.5917C132.263 39.327 132.701 36.0492 133.787 32.9532C134.435 31.1865 135.436 29.5634 136.732 28.1788C137.695 27.0922 139.046 26.4062 140.51 26.2612C141.973 26.1162 143.438 26.5231 144.604 27.3988C146.927 29.056 148.694 31.3495 149.682 33.9888C149.679 34.0246 149.679 34.0606 149.682 34.0964C150.063 34.625 150.218 35.2784 150.112 35.9169C150.007 36.5553 149.65 37.1281 149.118 37.5125C146.016 40.6871 143.621 44.4561 142.086 48.5811C141.759 49.5434 141.529 50.5343 141.397 51.54C141.214 52.338 141.282 53.1718 141.594 53.9308C141.907 54.6898 142.447 55.3381 143.145 55.7899C143.82 56.2606 144.425 56.812 145.278 57.4979Z" fill="#F0FFDF"/>
<path d="M112.317 70.9077C111.161 72.7637 109.262 73.0192 107.308 72.8847C104.023 72.582 100.865 71.4918 98.115 69.7107C93.5394 67.1287 89.7857 63.3579 87.2706 58.8169C86.643 57.5904 86.2202 56.2737 86.0183 54.9167C85.8638 54.3046 85.8538 53.6662 85.9891 53.0498C86.1244 52.4334 86.4015 51.8551 86.7993 51.3588C87.197 50.8625 87.7052 50.4612 88.2851 50.1851C88.8651 49.9091 89.5017 49.7657 90.1468 49.7657C92.5139 49.4832 92.5139 49.537 92.8992 51.8234C93.2634 55.4785 94.4799 59.0034 96.4552 62.1275C98.4305 65.2515 101.112 67.8917 104.294 69.8452C105.444 70.6427 106.775 71.156 108.172 71.341C109.569 71.526 110.992 71.3774 112.317 70.9077Z" fill="#F0FFDF"/>
<path d="M185.969 78.9094C183.107 78.9094 182.24 77.4703 183.561 75.157C185.255 72.529 187.496 70.279 190.139 68.5535C194.48 65.2572 199.42 62.793 204.699 61.291C206.118 60.9282 207.581 60.7518 209.048 60.7665C211.085 60.7665 211.8 61.95 211.016 63.7791C209.911 65.9563 208.299 67.8496 206.309 69.3067C201.528 73.3339 195.955 76.3636 189.932 78.21C189.229 78.4188 188.512 78.5806 187.786 78.6942C187.18 78.8152 186.478 78.8556 185.969 78.9094Z" fill="#F0FFDF"/>
<path d="M208.059 113.729C205.26 113.761 204.397 112.453 205.663 110.32C207.29 107.895 209.456 105.81 212.021 104.2C216.229 101.133 221.032 98.8216 226.175 97.387C227.559 97.0389 228.987 96.8609 230.421 96.8579C232.412 96.835 233.125 97.9106 232.378 99.5941C231.323 101.6 229.767 103.352 227.838 104.708C223.208 108.449 217.793 111.286 211.926 113.044C211.24 113.243 210.541 113.399 209.832 113.512C209.242 113.629 208.556 113.674 208.059 113.729Z" fill="#F0FFDF"/>
<path d="M196.541 58.6623C190.575 65.361 184.862 70.5617 179.958 72.5821C178.213 73.2911 177.729 72.4902 178.478 70.6699C178.84 69.8289 179.367 68.8851 180.019 67.9072C180.671 66.9294 181.432 65.9422 182.248 65.0176C184.784 62.0226 187.464 59.253 190.096 56.9059C192.729 54.5588 195.249 52.6921 197.478 51.4387C198.784 50.6514 199.833 50.3528 200.495 50.5805C200.959 50.7313 201.039 51.3504 200.718 52.3074C200.398 53.2644 199.701 54.4843 198.776 55.71C198.112 56.6297 197.407 57.5179 196.541 58.6623Z" fill="#F0FFDF"/>
<path d="M217.195 84.8174C209.783 89.9482 203.224 93.9807 198.674 95.6695C197.061 96.2632 197.054 95.7043 198.419 94.3498C199.06 93.7233 199.87 93.0147 200.789 92.2757C201.708 91.5366 202.712 90.7859 203.729 90.0781C206.945 87.7901 210.168 85.6591 213.169 83.8367C216.17 82.0144 218.874 80.5456 221.09 79.5349C222.412 78.9044 223.326 78.6399 223.718 78.775C223.997 78.8633 223.783 79.3088 223.12 80.0175C222.458 80.7263 221.399 81.6429 220.167 82.5742C219.265 83.2715 218.347 83.9479 217.195 84.8174Z" fill="#F0FFDF"/>
</svg>
