<svg width="24" height="24" viewBox="0 0 24 24" fill="none" xmlns="http://www.w3.org/2000/svg">
<path d="M3.25539 0.961065C3.24977 0.96294 3.24602 0.97419 3.24039 0.976065C3.22727 0.97794 3.20852 0.972316 3.19539 0.976065C3.09414 0.987316 3.00039 1.02857 2.92539 1.09607C2.60289 1.27232 2.40039 1.63419 2.40039 2.02607V22.0811C2.40039 22.3792 2.53164 22.6923 2.77539 22.8761C2.88789 23.0017 3.05852 23.0579 3.22539 23.0261C3.44477 23.0373 3.67539 22.9886 3.87039 22.8761C4.27727 22.6398 12.5854 17.8361 12.5854 17.8361L16.9204 15.3311C16.9298 15.3273 16.941 15.3217 16.9504 15.3161L17.0104 15.2861C17.0104 15.2861 17.0685 15.2561 17.0704 15.2561C17.076 15.2504 17.0798 15.2467 17.0854 15.2411C17.2148 15.1661 20.766 13.1223 21.2554 12.8411C21.5929 12.6461 21.861 12.3292 21.8554 11.9411C21.8498 11.5529 21.576 11.2511 21.2704 11.0861C21.1016 10.9961 20.0066 10.3698 18.9904 9.78106C17.9741 9.19232 17.0104 8.62607 17.0104 8.62607L12.5854 6.07607C12.5854 6.07607 4.53977 1.42982 4.06539 1.15607C3.89852 1.06044 3.70914 0.983565 3.52539 0.961065C3.43352 0.949816 3.34539 0.946065 3.25539 0.961065ZM3.36039 2.25107L13.1404 11.9561L3.36039 21.6611V2.25107ZM5.64039 3.16607C8.08164 4.57607 12.1054 6.90107 12.1054 6.90107L15.9754 9.13607L13.8154 11.2811L5.64039 3.16607ZM16.8304 9.63107C17.061 9.76607 17.6479 10.1073 18.5104 10.6061C19.5266 11.1948 20.5691 11.7911 20.8204 11.9261C20.8448 11.9392 20.8373 11.9467 20.8504 11.9561C20.8316 11.9692 20.826 11.9729 20.7754 12.0011C20.3141 12.2673 17.3235 14.0036 16.8454 14.2811L14.4904 11.9561L16.8304 9.63107ZM13.8154 12.6161L15.9904 14.7761L12.1054 17.0111C12.1054 17.0111 8.18664 19.2723 5.65539 20.7311L13.8154 12.6161Z" fill="black"/>
</svg>
