<svg width="53" height="57" viewBox="0 0 53 57" fill="none" xmlns="http://www.w3.org/2000/svg">
<path d="M3.17578 24.8666L3.6237 24.6406C3.4641 24.7022 3.31479 24.7741 3.17578 24.8666Z" fill="white" stroke="black"/>
<path d="M32.5 39.5L22.9994 44.5437L20.2037 45.9353C18.757 42.6386 17.9487 39.5728 17.7839 36.7382C17.717 35.6188 17.7376 34.5456 17.856 33.5186C18.0259 31.9575 18.4069 30.5093 18.9938 29.1742L29.2909 24.0391C28.5701 25.6823 28.1582 27.4951 28.0655 29.4772L32.5 39.5Z" fill="white" stroke="black"/>
<path d="M20.2049 45.9365L1.53125 35.1784V28.7081C1.53125 27.4397 1.81442 26.4076 2.3859 25.6219C2.61244 25.3086 2.86986 25.057 3.16848 24.8722H3.17877L3.6267 24.6411L3.65759 24.6257C3.98194 24.5076 4.36293 24.4459 4.75937 24.4459C6.47382 24.4305 8.40967 24.6976 10.5669 25.247C10.9788 25.3497 11.401 25.473 11.8283 25.6116C13.6354 26.197 15.5867 27.0957 17.6821 28.3024L18.3875 28.7132C18.5934 28.8262 18.7942 28.9854 18.995 29.1754C18.4081 30.5105 18.0271 31.9586 17.8572 33.5197C17.7388 34.5468 17.7182 35.62 17.7851 36.7395C17.9499 39.5741 18.7582 42.6397 20.2049 45.9365Z" fill="#9155F1" stroke="black"/>
<path d="M29.2907 24.0374L18.9937 29.1725C18.7929 28.9825 18.5921 28.8233 18.3862 28.7103L17.6808 28.2995C15.5854 27.0928 13.6341 26.1941 11.827 25.6087C11.3996 25.4701 10.9775 25.3468 10.5656 25.2441C8.40835 24.6947 6.47251 24.4276 4.75803 24.443C4.3616 24.443 3.98061 24.5047 3.65625 24.6228L12.1925 20.3555C12.2852 20.5095 12.3779 20.6584 12.4757 20.8074C13.9533 23.1182 15.6884 24.8436 17.6808 25.9887C19.905 27.2674 21.8048 27.4574 23.3854 26.5587L28.9767 23.7703C29.0848 23.8474 29.1878 23.9398 29.2907 24.0374Z" fill="white" stroke="black"/>
<path d="M25.7576 21.3973C25.7576 21.5924 25.7525 21.7824 25.7422 21.9673C25.6289 24.201 24.8412 25.7262 23.3841 26.5581C21.8035 27.4567 19.9037 27.2667 17.6796 25.9881C15.6871 24.8429 13.9521 23.1175 12.4744 20.8067C12.3766 20.6578 12.2839 20.5089 12.1913 20.3548C12.1192 20.2367 12.0471 20.1135 11.975 19.9902C10.3944 17.2686 9.60156 14.6343 9.60156 12.0924C9.60156 9.55049 10.3944 7.83022 11.975 6.93158L12.3251 6.75698C13.8336 6.06374 15.6202 6.31536 17.6796 7.50158C18.5445 7.99455 19.358 8.60055 20.12 9.31946C21.3299 10.4441 22.4162 11.8356 23.3841 13.4994C24.4808 15.3891 25.1964 17.2378 25.5362 19.0351C25.6855 19.831 25.7576 20.6167 25.7576 21.3973Z" fill="#9155F1" stroke="black"/>
<path d="M36.0576 16.2642C36.0576 18.8061 35.2648 20.5263 33.6842 21.425L33.3341 21.5996L28.9784 23.7718L23.3871 26.5601C24.8442 25.7282 25.6319 24.2031 25.7452 21.9693C25.7555 21.7845 25.7606 21.5945 25.7606 21.3994C25.7606 20.6188 25.6885 19.8332 25.5392 19.0372C25.1994 17.2399 24.4838 15.3913 23.3871 13.5015C22.4192 11.8378 21.3329 10.4461 20.123 9.32153C19.361 8.60262 18.5475 7.99667 17.6826 7.5037C15.6232 6.31748 13.8366 6.06581 12.3281 6.75905L22.2751 1.79855C23.8556 0.899898 25.7606 1.08989 27.9796 2.36854C30.2038 3.64719 32.1036 5.64991 33.6842 8.3664C35.2648 11.088 36.0576 13.7223 36.0576 16.2642Z" fill="white" stroke="black"/>
<g clip-path="url(#clip0_5781_17287)">
<path d="M39.0137 40.4944L36.8733 41.0116L39.5243 52.3801L32.4829 42.2601L25.4387 44.3259L28.0925 35.9916L21.0771 26.2773L29.7454 31.2316L30.5704 28.5773L31.3695 26.0059L32.4829 22.4287L33.5964 27.2773L35.2204 34.363L42.7637 38.6801L43.8858 39.3201L42.9656 39.543L39.0137 40.4944Z" fill="#C6E6A3" stroke="black"/>
<path d="M49.6552 36.463L43.8861 39.3201L42.764 38.6801L35.2207 34.363L40.9899 31.5059L49.6552 36.463Z" fill="white" stroke="black"/>
<path d="M31.3695 26.0056L30.5704 28.5771L29.7454 31.2313L21.0771 26.2771L26.8464 23.4199L31.3695 26.0056Z" fill="white" stroke="black"/>
<path d="M45.2932 49.523L39.524 52.3801L36.873 41.0115L39.0134 40.4944L42.9654 39.543L45.2932 49.523Z" fill="white" stroke="black"/>
<path d="M40.9892 31.5056L35.2199 34.3627L33.5959 27.277L32.4824 22.4284L38.2517 19.5713L40.9892 31.5056Z" fill="white" stroke="black"/>
</g>
<defs>
<clipPath id="clip0_5781_17287">
<rect width="30" height="34" fill="white" transform="translate(20.5 19)"/>
</clipPath>
</defs>
</svg>
