<svg width="24" height="24" viewBox="0 0 24 24" fill="none" xmlns="http://www.w3.org/2000/svg">
<g clip-path="url(#clip0_2616_21330)">
<path d="M11.999 0.958984C5.90711 0.958984 0.958984 5.90711 0.958984 11.999C0.958984 18.0909 5.90711 23.039 11.999 23.039C18.0909 23.039 23.039 18.0909 23.039 11.999C23.039 5.90711 18.0909 0.958984 11.999 0.958984ZM11.999 1.91898C17.5715 1.91898 22.079 6.42649 22.079 11.999C22.079 17.5715 17.5715 22.079 11.999 22.079C6.42649 22.079 1.91898 17.5715 1.91898 11.999C1.91898 6.42649 6.42649 1.91898 11.999 1.91898ZM11.969 5.17399C11.8996 5.18336 11.8246 5.21148 11.759 5.24898L11.324 5.50398C11.0652 5.65399 10.979 5.99523 11.129 6.25398L14.894 12.734L16.274 11.924L12.509 5.44398C12.3965 5.25086 12.179 5.14774 11.969 5.17399ZM10.814 7.33398C10.604 7.30586 10.3865 7.39398 10.274 7.58898L9.79399 8.41399L11.219 9.23899L11.699 8.42899C11.8509 8.17024 11.7627 7.83086 11.504 7.67899L11.024 7.39398C10.9584 7.35648 10.8834 7.34336 10.814 7.33398ZM9.67399 8.60898L6.35898 14.309L7.76899 15.134L11.099 9.44899L9.67399 8.60898ZM4.94898 11.189V12.779H6.97399L7.90399 11.189H4.94898ZM10.289 11.189L9.40399 12.779H14.564L13.679 11.189H10.289ZM16.184 11.189L17.039 12.779H19.019V11.189H16.184ZM16.424 12.194L15.044 12.989L15.839 14.369L17.219 13.559L16.424 12.194ZM17.159 13.934C17.1121 13.9415 17.0559 13.9677 17.009 13.994C16.784 14.1215 16.4559 14.3109 16.259 14.429C15.8896 14.6502 16.1746 15.2934 16.259 15.434C16.7371 16.2346 17.2227 16.1277 17.594 16.694C17.7984 17.0034 17.7402 17.1309 17.804 17.234C17.8284 17.2715 17.9221 17.3221 17.954 17.279C18.5277 16.4859 18.3534 15.1115 17.939 14.504C17.7702 14.2565 17.4834 13.8815 17.159 13.934ZM6.17899 14.609L5.48899 17.204C5.47586 17.2509 5.49273 17.2996 5.53398 17.324C5.57523 17.3484 5.63524 17.3427 5.66898 17.309L7.58898 15.449L6.17899 14.609Z" fill="black"/>
</g>
<defs>
<clipPath id="clip0_2616_21330">
<rect width="24" height="24" fill="white"/>
</clipPath>
</defs>
</svg>
